<svg xmlns="http://www.w3.org/2000/svg" xmlns:xlink="http://www.w3.org/1999/xlink" width="410" height="483.222" viewBox="0 0 410 483.222">
  <defs>
    <pattern id="_10_dpi_30_" data-name="10 dpi 30%" width="28.8" height="28.801" patternTransform="translate(71.131 12.498) scale(0.682)" patternUnits="userSpaceOnUse" viewBox="0 0 28.8 28.801">
      <rect width="28.8" height="28.801" fill="none"/>
      <g>
        <circle cx="28.8" cy="28.801" r="2.16" fill="#231815"/>
        <circle cx="14.4" cy="28.801" r="2.16" fill="#231815"/>
        <circle cx="28.8" cy="14.4" r="2.16" fill="#231815"/>
        <circle cx="14.4" cy="14.4" r="2.16" fill="#231815"/>
        <circle cx="7.2" cy="21.6" r="2.16" fill="#231815"/>
        <circle cx="21.6" cy="21.6" r="2.16" fill="#231815"/>
        <circle cx="7.2" cy="7.201" r="2.16" fill="#231815"/>
        <circle cx="21.6" cy="7.201" r="2.16" fill="#231815"/>
      </g>
      <g>
        <circle cy="28.801" r="2.16" fill="#231815"/>
        <circle cy="14.4" r="2.16" fill="#231815"/>
      </g>
      <g>
        <circle cx="28.8" cy="0.001" r="2.16" fill="#231815"/>
        <circle cx="14.4" cy="0.001" r="2.16" fill="#231815"/>
      </g>
      <circle cy="0.001" r="2.16" fill="#231815"/>
    </pattern>
  </defs>
  <title>アセット 4</title>
  <g id="レイヤー_2" data-name="レイヤー 2">
    <g id="Layer_1" data-name="Layer 1">
      <path d="M113.927,287.5s-15.55-9.44-20.232-13.072-12.383-9.144-14.024-11.123.4-10.737-1.483-15.021-7.5-12.568-11.758-20.725-9.873-9.138-13.076-11.491-16.379-15.223-18.041-16.975-8.31-8.764-9.336-10-3.047.857-4.079,2.13.526,7.808,2.1,12.976,4.63,7.849,5.73,8.294a1.357,1.357,0,0,1,.279.172c.032.024.067.054.1.083.077.063.158.135.245.217.043.04.085.08.13.125.092.092.192.2.294.3s.239.257.368.4l.168.186c.768.865,1.747,2.022,2.919,3.26-7.274-3.913-16.462-12.292-19.647-15.117.242-.742-.569-1.573-.611-2.624a7.561,7.561,0,0,0-1.158-4.151c.106-1.785-.41-4.618-1.149-5.481s-2.427-3.545-4.023-2.36a9.458,9.458,0,0,0-3.22,6.583c0,1.708.635,5.665,1.194,11.479.263,2.741,2.607,6.016,3.752,7.654a2.55,2.55,0,0,0-.576.269,16.374,16.374,0,0,0-3,1.416,8.379,8.379,0,0,0-3.583,4.458,9.828,9.828,0,0,0-.357,8.1c.225.507.589,1.345,1.035,2.371a7.109,7.109,0,0,0-1.23.744,1.549,1.549,0,0,0-.229.212c-1.413,1.691-1.367,2.938-.843,5.969.533,3.085,7.254,9.692,8.934,12.473.185.306.412.642.66.991l.034.048c.255.356.536.728.834,1.108h0q-.189.486-.367.975l-.013.036q-.169.465-.323.925l-.029.083c-.1.286-.185.568-.27.846-.014.046-.03.092-.043.138-.076.254-.144.5-.21.741-.017.065-.038.132-.054.2-.057.218-.1.424-.149.63-.017.078-.039.161-.055.237-.039.188-.066.36-.094.534-.013.08-.031.167-.042.243-.022.165-.03.31-.04.458,0,.069-.016.147-.018.212a3.007,3.007,0,0,0,.029.543c.684,4.286,3.385,5.907,8.687,10.225s2.855,1.807,8.331,6.712,14.719,7.776,19.258,8.656,10.824-.338,13.048.9a21.025,21.025,0,0,1,.3,2.941c.1,1.587,3.876,3.622,3.876,3.622a35.729,35.729,0,0,1,3.565,4.1c1.578,2.658,24.446,27.176,24.446,27.176s9.713-5.434,17.183-10.491C121.463,302.942,113.927,287.5,113.927,287.5Z" fill="#fff" stroke="#000" stroke-miterlimit="10" stroke-width="0.5"/>
      <g>
        <path d="M50,249.46l-19.588,8.106c-.847.387-3.935,1.58-5.562-2.389L1.31,160.116c-.953-4.836,2.329-5.236,3.25-5.328l23.061-2.137c.816-.081,1.611.041,1.8.968l21.07,92.928C51.144,248.346,51.112,249,50,249.46Z" fill="#fff" stroke="#000" stroke-miterlimit="10" stroke-width="0.5"/>
        <path d="M52.911,248.786l-22.5,8.78c-.847.387-1.912.749-2.645-1.119l-24.5-99.631a1.387,1.387,0,0,1,1.291-2.027l25.877-2.755c.816-.081,1.611.041,1.8.967L53.4,245.875C54.052,247.673,54.02,248.324,52.911,248.786Z" fill="#fff" stroke="#000" stroke-miterlimit="10" stroke-width="0.5"/>
        <polygon points="50.064 238.489 27.23 246.731 7.991 166.842 33.007 163.492 50.064 238.489"/>
        <path d="M22.886,160.208l-2.654.316c-.167.02-.4-.354-.524-.831h0c-.121-.477-.083-.883.084-.9l2.659-.3c.165-.019.4.353.517.826h0C23.088,159.785,23.051,160.188,22.886,160.208Z"/>
      </g>
      <path d="M68.085,296.129c1.578,2.658,22.8,26.371,22.8,26.371a140.427,140.427,0,0,0,17.183-10.491c14-10.489,5.859-24.509,5.859-24.509S99.1,276.964,94.69,273,83,262.99,81.505,260.9s-1.435-8.329-3.317-12.613-7.5-12.568-11.758-20.725-9.873-9.138-13.076-11.491-16.379-15.223-18.041-16.975,5.472,4.84,4.446,3.6-3.152-.465-4.183.807-1.859,5.247-.288,10.414a14.928,14.928,0,0,0,7.077,8.534c1.1.445,7.769,4.9,9.855,9.348" fill="#fff" stroke="#000" stroke-miterlimit="10" stroke-width="0.5"/>
      <path d="M14.046,222.416a6.55,6.55,0,0,0,4.99-7.38c-.2-1.272-2.493-1.624-5.559-1.464-2.351.123-5.6.048-7.683,1.336a8.379,8.379,0,0,0-3.583,4.458,9.828,9.828,0,0,0-.357,8.1c1.32,2.976,7.193,16.761,8.821,19.481" fill="#fff" stroke="#000" stroke-miterlimit="10" stroke-width="0.5"/>
      <path d="M16.084,236.4a51.209,51.209,0,0,0,6.833-1.409c3.642-1.047,3.655-5.381,3.331-7.2s-2.189-1.5-4.06-1.759a44.21,44.21,0,0,0-10.182.241c-2.687.546-9.486,3.212-10.578,4.518-1.413,1.691-1.367,2.938-.843,5.969.533,3.085,7.254,9.692,8.934,12.473s6.41,7.73,6.41,7.73" fill="#fff" stroke="#000" stroke-miterlimit="10" stroke-width="0.5"/>
      <path d="M24.852,255.177c2.079-1.085,2.739-4,4.717-4.2,4.521-.462,5.931-1.332,7-3,1.588-2.472,1.33-7.452-.636-7.39-1.276.04-6.485.905-8.9,1.283a53.187,53.187,0,0,1-7.251.55c-3.109.086-4.478,1.616-6.012,3.384-1.22,1.405-4.8,9.877-4.407,12.369.684,4.286,3.385,5.907,8.687,10.225s2.855,1.807,8.331,6.712" fill="#fff" stroke="#000" stroke-miterlimit="10" stroke-width="0.5"/>
      <path d="M90.549,268.051s-1.555,8.855-7.428,15.241C70.86,296.625,65.188,294.96,65.188,294.96s25.933,32.791,36.844,46.661c16.1,20.464,30.565,35.289,30.565,35.289s40.579,41.647,60.473,49.023,113.208-86.3,113.208-86.3L295.422,247.21s-47.1,24.11-64.67,42.414c-18.41,19.184-31.4,35.719-40.445,50.874-8.19-14.046-39.589-30.8-56.491-42.816C118.544,286.823,90.549,268.051,90.549,268.051Z"/>
      <path d="M238.465,192.219c-.411-.131-.814-.237-1.215-.329l-.2-.043a9.9,9.9,0,0,0-1.2-.184c.613-2.549,1.035-7.586.191-10.166-.008-.025-.017-.049-.025-.074a4.236,4.236,0,0,0-.211-.51c-.024-.049-.046-.1-.071-.145a2.309,2.309,0,0,0-.322-.46c-2.085-2.2-13.736-.312-14.916-.487s-2.254,2.423-2.4,3.434a1.751,1.751,0,0,1-.063.231c-.012.037-.024.073-.039.115s-.047.125-.072.191c-.046.119-.1.248-.158.393a6.746,6.746,0,0,0-1.784-1.76c-1.105-.681-2.1-1.517-3.612-.621a42.7,42.7,0,0,0-4.046,3.447c-2.782-2.133-3.145-2.015-5.142-2.483s-4.371,1.592-9.79,5.613c-.459.341-.968.7-1.5,1.071l-.375.261c-.539.373-1.1.753-1.684,1.143h0a1.454,1.454,0,0,0-.817-.015,22.18,22.18,0,0,0-3.085-.578c-4.575-.525-10.286,3.53-12.284,4.612s-4.993,2.3-6.569,5.573-1.607,7.744-2.044,8.369a86.5,86.5,0,0,1-4.97,10.29c-4.233,7.642-6.555,24.316-8.2,28.245-1.952,4.649-4.525,4.957-6.356,8.017-1.8,3.011-.772,4.05-2.173,6.914a39.883,39.883,0,0,1-1.776,3.578c-.205.35-.415.7-.634,1.061-2.4,3.916-6.678,11.191-10.8,17.7l-6.937,10.165s-3.578,6.706,11.382,12.712,29.283,1.582,29.283,1.582,3.863-7.468,9.974-20.8,11.811-17.316,15.108-20.962a52.975,52.975,0,0,1,11.258-9.7c5.65-3.907,8.556-9.3,13.793-15.185s9.093-13.7,11.416-21.624S229.5,208.549,233,203.554s8.55-6.543,8.625-8.6S240.988,193.023,238.465,192.219Zm-7.993-1.8c-.105.3-.666,1.818-1.073,3.411q-.293.274-.583.593c.75-2.016,1.376-3.342,1.645-3.99C230.464,190.423,230.469,190.422,230.472,190.416Z" fill="#fff" stroke="#000" stroke-miterlimit="10" stroke-width="0.5"/>
      <path d="M221.191,205.71c4.046-5.6,6.485-11.214,9.482-12.837a8.979,8.979,0,0,1,7.792-.654c2.522.8,3.23.68,3.155,2.736s-5.128,3.6-8.625,8.6-5.287,9.324-7.609,17.249-6.18,15.738-11.416,21.624" fill="#fff" stroke="#000" stroke-miterlimit="10" stroke-width="0.5"/>
      <path d="M211.368,62.585c-.821,14.957-3.832,38.852-3.832,38.852l1.815,3.911,4.4,14.595S202.5,141.8,202.81,144.508s.307,2.709,1.815,3.911,9.636.281,11.145,1.482.018,8.488.052,11.057c-1.182,1.677-.022,2.815,3.631,4.048,2.853.963,6.045,1.888,6.045,1.888l-7.064,1.229c-1.561.606-1.414,3.419.095,4.62s5.887,2.763,6.737,4.211c2.377,4.047,1.349,5.85,1.683,12.587.279,5.614,6.506,6.044,10.816,6.15,8.084.2,22.356-5.534,25.525-1.776s19.121,35.567,18.687,43.848-.741,5.572-.741,5.572-.788,14.826-2.74,21.235-5.987,16.8-5.987,16.8-26.343,22.456-16.818,21.114c70.663,6.06,93.6-69.764,93.6-69.764l1.023-.3s-2.521-33.6-2.474-36.726c.17-11.361.551-37.788.431-38.851-.153-1.355,5.187-39.006,6.234-41.869s7-35.1-6.01-65.179S302.8,9.7,286.386,10.182c-15.052.446-38.01,3.373-50.558,13.959C220.8,36.82,212.19,47.628,211.368,62.585Z" fill="#fff" stroke="#000" stroke-miterlimit="10" stroke-width="0.5"/>
      <g>
        <path d="M265.422,119.933c.535-.679,1.071-1.38,1.567-2.1A6.279,6.279,0,0,0,265.422,119.933Z" fill="#fff" stroke="#000" stroke-miterlimit="10" stroke-width="0.5"/>
        <path d="M349.663,29.77c-3.553-5.159-7.177-10.4-12.063-14.318-4.716-3.786-10.386-6.164-16.032-8.331a64.561,64.561,0,0,0-15.094-4.289c-4.8-.591-11.154-2.925-15.975-2.54-10.35.827-15.11.275-25.461,1.1-8.216.656-15.513,9.418-24.186,13.6-4.82,2.325-11.982,6.251-16.593,8.969-2.08,1.226-8.005,8.716-9.94,10.159-7.591,5.662-8.867,4.5-10.1,13.835-.527-2.749-2.944,2.277-4.665,1.214.32,14.942,2.056,11.554,6.781,20.5-1.059-3.467-2.683-10.531-1.008-13.95,2.465,8.639,5.2,10.988,9.367,15.061-1.3-1.271-.96-6.349-1.6-8.052s.726-3.661,2.211-4.71C221.51,68,226.328,76.8,235.158,84.544l-1.179-9.079a98.6,98.6,0,0,0,24.516,20.358,23.967,23.967,0,0,1-5.874-16.931c-.038.7,3.664,4.086,4.242,4.871a65.542,65.542,0,0,1,4.219,6.72c2.6,4.6,4.518,9.3,4.575,14.7A12.159,12.159,0,0,1,262.484,114a10.646,10.646,0,0,0,4.8-8.74c.495,2.5,1.841,4.927,1.716,7.493a9.985,9.985,0,0,1-2.008,5.08c.475-.461.975-.906,1.429-1.38,2.6-2.721,3.549-6.582,4.393-10.252a14.454,14.454,0,0,1,2.032,10.6c-.48,3.115-.772,6.286-1.322,9.223.958-2.5,10.685-10.99,9.621-13.249.528,1.12,2.755,2.624,3.283,3.744,1.488-8.058,3.921-18.414,10.178-22.192,5.652-3.411,10.374-1.323,16.6-.453,1.875,2.164,2.694,8.3,4.223,10.672,3.938,6.114,2.276,13.474.5,20.525s-3.444,13.286-9.2,17.735c5.632-.408,12.141-6.2,16.415-9.886-2.356,12-5.729,15.522-9.955,17.722a36.205,36.205,0,0,0,12.122-10.153c.657,10.657-5.216,13.018-9.653,18.4a32.6,32.6,0,0,0,13.815-11.837,23.227,23.227,0,0,1-8.012,17.563,33.851,33.851,0,0,0,11.714-12.075,32.332,32.332,0,0,1-1.956,12.646c5.054-2.2,3.606-12.27,6.612-16.556,1.345,4.728,9.54,14.878,10.885,19.605,1.63-4.8-2.433-11.387-.214-18.042,1.513,5.72,4.109,9.553,6.606,14.916-1.987-7.071-2.678-12.717-.214-19.636.975-2.735,2.6-5.193,3.711-7.876,2.689-6.489,2.32-14.125,6.017-20.1a17.353,17.353,0,0,1,3.534,9c-.731-15.229-2.547-22.052-5.978-35.256,1.73-.882,5.326,4.267,6.314,7.289.188-4.573-2.566-18-3.315-22.538l2.272,5.685C369.717,63.8,360.986,46.212,349.663,29.77Z" fill="#fff" stroke="#000" stroke-miterlimit="10" stroke-width="0.5"/>
        <path d="M349.663,29.77c-3.553-5.159-7.177-10.4-12.063-14.318-4.716-3.786-10.386-6.164-16.032-8.331a64.561,64.561,0,0,0-15.094-4.289c-4.8-.591-11.154-2.925-15.975-2.54-10.35.827-15.11.275-25.461,1.1-8.216.656-15.513,9.418-24.186,13.6-4.82,2.325-11.982,6.251-16.593,8.969-2.08,1.226-8.005,8.716-9.94,10.159-7.591,5.662-8.867,4.5-10.1,13.835-.527-2.749-2.944,2.277-4.665,1.214.32,14.942,2.056,11.554,6.781,20.5-1.059-3.467-2.683-10.531-1.008-13.95,2.465,8.639,5.2,10.988,9.367,15.061-1.3-1.271-.96-6.349-1.6-8.052s.726-3.661,2.211-4.71C221.51,68,226.328,76.8,235.158,84.544l-1.179-9.079a98.6,98.6,0,0,0,24.516,20.358,23.967,23.967,0,0,1-5.874-16.931c-.038.7,3.664,4.086,4.242,4.871a65.542,65.542,0,0,1,4.219,6.72c2.6,4.6,4.518,9.3,4.575,14.7A12.159,12.159,0,0,1,262.484,114a10.646,10.646,0,0,0,4.8-8.74c.495,2.5,1.841,4.927,1.716,7.493a9.985,9.985,0,0,1-2.008,5.08c.475-.461.975-.906,1.429-1.38,2.6-2.721,3.549-6.582,4.393-10.252a14.454,14.454,0,0,1,2.032,10.6c-.48,3.115-.772,6.286-1.322,9.223.958-2.5,10.685-10.99,9.621-13.249.528,1.12,2.755,2.624,3.283,3.744,1.488-8.058,3.921-18.414,10.178-22.192,5.652-3.411,10.374-1.323,16.6-.453,1.875,2.164,2.694,8.3,4.223,10.672,3.938,6.114,2.276,13.474.5,20.525s-3.444,13.286-9.2,17.735c5.632-.408,12.141-6.2,16.415-9.886-2.356,12-5.729,15.522-9.955,17.722a36.205,36.205,0,0,0,12.122-10.153c.657,10.657-5.216,13.018-9.653,18.4a32.6,32.6,0,0,0,13.815-11.837,23.227,23.227,0,0,1-8.012,17.563,33.851,33.851,0,0,0,11.714-12.075,32.332,32.332,0,0,1-1.956,12.646c5.054-2.2,3.606-12.27,6.612-16.556,1.345,4.728,9.54,14.878,10.885,19.605,1.63-4.8-2.433-11.387-.214-18.042,1.513,5.72,4.109,9.553,6.606,14.916-1.987-7.071-2.678-12.717-.214-19.636.975-2.735,2.6-5.193,3.711-7.876,2.689-6.489,2.32-14.125,6.017-20.1a17.353,17.353,0,0,1,3.534,9c-.731-15.229-2.547-22.052-5.978-35.256,1.73-.882,5.326,4.267,6.314,7.289.188-4.573-2.566-18-3.315-22.538l2.272,5.685C369.717,63.8,360.986,46.212,349.663,29.77Z" fill="#fff" stroke="#000" stroke-miterlimit="10" stroke-width="0.5"/>
      </g>
      <g>
        <path d="M265.422,119.933c.535-.679,1.071-1.38,1.567-2.1A6.279,6.279,0,0,0,265.422,119.933Z" stroke="#000" stroke-miterlimit="10" stroke-width="0.5" fill="url(#_10_dpi_30_)"/>
        <path d="M349.663,29.77c-3.553-5.159-7.177-10.4-12.063-14.318-4.716-3.786-10.386-6.164-16.032-8.331a64.561,64.561,0,0,0-15.094-4.289c-4.8-.591-11.154-2.925-15.975-2.54-10.35.827-15.11.275-25.461,1.1-8.216.656-15.513,9.418-24.186,13.6-4.82,2.325-11.982,6.251-16.593,8.969-2.08,1.226-8.005,8.716-9.94,10.159-7.591,5.662-8.867,4.5-10.1,13.835-.527-2.749-2.944,2.277-4.665,1.214.32,14.942,2.056,11.554,6.781,20.5-1.059-3.467-2.683-10.531-1.008-13.95,2.465,8.639,5.2,10.988,9.367,15.061-1.3-1.271-.96-6.349-1.6-8.052s.726-3.661,2.211-4.71C221.51,68,226.328,76.8,235.158,84.544l-1.179-9.079a98.6,98.6,0,0,0,24.516,20.358,23.967,23.967,0,0,1-5.874-16.931c-.038.7,3.664,4.086,4.242,4.871a65.542,65.542,0,0,1,4.219,6.72c2.6,4.6,4.518,9.3,4.575,14.7A12.159,12.159,0,0,1,262.484,114a10.646,10.646,0,0,0,4.8-8.74c.495,2.5,1.841,4.927,1.716,7.493a9.985,9.985,0,0,1-2.008,5.08c.475-.461.975-.906,1.429-1.38,2.6-2.721,3.549-6.582,4.393-10.252a14.454,14.454,0,0,1,2.032,10.6c-.48,3.115-.772,6.286-1.322,9.223.958-2.5,10.685-10.99,9.621-13.249.528,1.12,2.755,2.624,3.283,3.744,1.488-8.058,3.921-18.414,10.178-22.192,5.652-3.411,10.374-1.323,16.6-.453,1.875,2.164,2.694,8.3,4.223,10.672,3.938,6.114,2.276,13.474.5,20.525s-3.444,13.286-9.2,17.735c5.632-.408,12.141-6.2,16.415-9.886-2.356,12-5.729,15.522-9.955,17.722a36.205,36.205,0,0,0,12.122-10.153c.657,10.657-5.216,13.018-9.653,18.4a32.6,32.6,0,0,0,13.815-11.837,23.227,23.227,0,0,1-8.012,17.563,33.851,33.851,0,0,0,11.714-12.075,32.332,32.332,0,0,1-1.956,12.646c5.054-2.2,3.606-12.27,6.612-16.556,1.345,4.728,9.54,14.878,10.885,19.605,1.63-4.8-2.433-11.387-.214-18.042,1.513,5.72,4.109,9.553,6.606,14.916-1.987-7.071-2.678-12.717-.214-19.636.975-2.735,2.6-5.193,3.711-7.876,2.689-6.489,2.32-14.125,6.017-20.1a17.353,17.353,0,0,1,3.534,9c-.731-15.229-2.547-22.052-5.978-35.256,1.73-.882,5.326,4.267,6.314,7.289.188-4.573-2.566-18-3.315-22.538l2.272,5.685C369.717,63.8,360.986,46.212,349.663,29.77Z" stroke="#000" stroke-miterlimit="10" stroke-width="0.5" fill="url(#_10_dpi_30_)"/>
        <path d="M349.663,29.77c-3.553-5.159-7.177-10.4-12.063-14.318-4.716-3.786-10.386-6.164-16.032-8.331a64.561,64.561,0,0,0-15.094-4.289c-4.8-.591-11.154-2.925-15.975-2.54-10.35.827-15.11.275-25.461,1.1-8.216.656-15.513,9.418-24.186,13.6-4.82,2.325-11.982,6.251-16.593,8.969-2.08,1.226-8.005,8.716-9.94,10.159-7.591,5.662-8.867,4.5-10.1,13.835-.527-2.749-2.944,2.277-4.665,1.214.32,14.942,2.056,11.554,6.781,20.5-1.059-3.467-2.683-10.531-1.008-13.95,2.465,8.639,5.2,10.988,9.367,15.061-1.3-1.271-.96-6.349-1.6-8.052s.726-3.661,2.211-4.71C221.51,68,226.328,76.8,235.158,84.544l-1.179-9.079a98.6,98.6,0,0,0,24.516,20.358,23.967,23.967,0,0,1-5.874-16.931c-.038.7,3.664,4.086,4.242,4.871a65.542,65.542,0,0,1,4.219,6.72c2.6,4.6,4.518,9.3,4.575,14.7A12.159,12.159,0,0,1,262.484,114a10.646,10.646,0,0,0,4.8-8.74c.495,2.5,1.841,4.927,1.716,7.493a9.985,9.985,0,0,1-2.008,5.08c.475-.461.975-.906,1.429-1.38,2.6-2.721,3.549-6.582,4.393-10.252a14.454,14.454,0,0,1,2.032,10.6c-.48,3.115-.772,6.286-1.322,9.223.958-2.5,10.685-10.99,9.621-13.249.528,1.12,2.755,2.624,3.283,3.744,1.488-8.058,3.921-18.414,10.178-22.192,5.652-3.411,10.374-1.323,16.6-.453,1.875,2.164,2.694,8.3,4.223,10.672,3.938,6.114,2.276,13.474.5,20.525s-3.444,13.286-9.2,17.735c5.632-.408,12.141-6.2,16.415-9.886-2.356,12-5.729,15.522-9.955,17.722a36.205,36.205,0,0,0,12.122-10.153c.657,10.657-5.216,13.018-9.653,18.4a32.6,32.6,0,0,0,13.815-11.837,23.227,23.227,0,0,1-8.012,17.563,33.851,33.851,0,0,0,11.714-12.075,32.332,32.332,0,0,1-1.956,12.646c5.054-2.2,3.606-12.27,6.612-16.556,1.345,4.728,9.54,14.878,10.885,19.605,1.63-4.8-2.433-11.387-.214-18.042,1.513,5.72,4.109,9.553,6.606,14.916-1.987-7.071-2.678-12.717-.214-19.636.975-2.735,2.6-5.193,3.711-7.876,2.689-6.489,2.32-14.125,6.017-20.1a17.353,17.353,0,0,1,3.534,9c-.731-15.229-2.547-22.052-5.978-35.256,1.73-.882,5.326,4.267,6.314,7.289.188-4.573-2.566-18-3.315-22.538l2.272,5.685C369.717,63.8,360.986,46.212,349.663,29.77Z" stroke="#000" stroke-miterlimit="10" stroke-width="0.5" fill="url(#_10_dpi_30_)"/>
      </g>
      <path d="M289.609,109.808c-6.259-5.294-.336-16.6,4.213-18.829,5.9-2.895,13.2,1.421,14.611,3.319s4.509,4.978,5.065,9.889-1.718,15.116-3.571,19.957-7.241,11.388-9.888,14.155c-1.319,1.379-5.014,4.369-8.291,4.026-1.294-.135-2.964-1.63-3.863-2.307-3.563-2.684.549-7.266,1.319-8.039" fill="#fff" stroke="#000" stroke-miterlimit="10" stroke-width="0.5"/>
      <path d="M296.391,95.49c4.288-1.515,10.01.487,11.458,7.278,1.613,7.567,2.336,10.026.18,13.7s-4.565,12.694-7.725,13.567" fill="none" stroke="#000" stroke-miterlimit="10" stroke-width="0.5"/>
      <path d="M295.329,116.02c1.636,2.044,4.39,3.619,3.387,7.163s.346.99-1.735,3.284-3.025,1.2-3.025,1.2" fill="none" stroke="#000" stroke-miterlimit="10" stroke-width="0.5"/>
      <path d="M274.3,231.34l-6.476-20.11s13.975-15.338,40.56-21.473a428.179,428.179,0,0,1,45.673-8.18l5.453,27.267s-3.408-9.544,11.589,25.9,19.087,77.03,19.087,109.751-15.679,87.256-21.814,94.073-11.589,44.65-11.589,44.65H189.774s-.647-17.489-.311-43.267c.508-39.038,3.27-93.178,13.945-118.633,5.253-12.526,25.538-39.1,40.9-53.853C261.351,251.108,274.3,231.34,274.3,231.34Z"/>
      <path d="M292.505,273.374c-14.649-8.511-35-4.928-55.441,5.688-14,7.268-32.922,19.129-43.722,31.24-5.846,6.557-21.283,27.646-28.606,34.864-5.263,5.187-12.689,11.444-18.189,15.861,4.622-13.961,7.571-23.68,8.955-27.289,3.5-9.115,7.663-19.32,8.336-24.658,0,0-3.2-5.813-12.646-11s-20.7-5.6-27.526-4.631C111.321,315.7,68.613,390.9,67.243,412.2c-2,31.095-2.4,37.639,5.389,46.984,7.746,9.291,10.484,14.368,11.98,15.321,5.658,3.6,7.67,1.537,16.959.083,20.567-3.219,42.693-2.594,68.738-20.077,14.038-9.423,25.44-19.856,38.433-29.4,16.093-11.823,36.3-20.291,47.484-26.882,31.281-18.44,50.425-59.365,52.252-71.108C311.462,307.937,311.513,284.418,292.505,273.374Z" stroke="gray" stroke-miterlimit="10" stroke-width="0.5"/>
      <path d="M146.547,361.027c-4.858,5.163-15.532,15.8-20.5,21.084-2.312,2.457-7.36,8.408-12.479,19.476" fill="none" stroke="gray" stroke-miterlimit="10" stroke-width="0.5"/>
    </g>
  </g>
</svg>
