<svg xmlns="http://www.w3.org/2000/svg" width="34.126" height="27.72" viewBox="0 0 34.126 27.72">
  <title>アセット 1</title>
  <g id="レイヤー_2" data-name="レイヤー 2">
    <g id="Layer_1" data-name="Layer 1">
      <path d="M34.126,3.28a13.98,13.98,0,0,1-4.02,1.1A7.03,7.03,0,0,0,33.183.512a14.113,14.113,0,0,1-4.448,1.7A7.006,7.006,0,0,0,16.806,8.594,19.875,19.875,0,0,1,2.378,1.279a7.009,7.009,0,0,0,2.167,9.344,7,7,0,0,1-3.171-.879v.087A7.008,7.008,0,0,0,6.988,16.7a7.091,7.091,0,0,1-1.845.245,6.719,6.719,0,0,1-1.318-.13,7,7,0,0,0,6.538,4.862A14.046,14.046,0,0,1,1.67,24.666,14.878,14.878,0,0,1,0,24.57a19.788,19.788,0,0,0,10.731,3.15c12.878,0,19.917-10.667,19.917-19.917L30.624,6.9A13.98,13.98,0,0,0,34.126,3.28Z" fill="#fff"/>
    </g>
  </g>
</svg>
