<svg xmlns="http://www.w3.org/2000/svg" width="153" height="153" viewBox="0 0 153 153">
  <title>アセット 4</title>
  <g id="レイヤー_2" data-name="レイヤー 2">
    <g id="Layer_1" data-name="Layer 1">
      <circle cx="76.5" cy="76.5" r="75" fill="none" stroke="#58798c" stroke-miterlimit="10" stroke-width="3"/>
      <path d="M58.381,74.808h-13.4a1.818,1.818,0,0,0-1.818,1.818v31.557A1.818,1.818,0,0,0,44.976,110h13.4a1.818,1.818,0,0,0,1.818-1.818V76.626A1.818,1.818,0,0,0,58.381,74.808Zm-.909,32.464H45.885V77.535H57.472Zm25.106-46.1h-13.4a1.818,1.818,0,0,0-1.818,1.818v45.189A1.818,1.818,0,0,0,69.173,110h13.4a1.818,1.818,0,0,0,1.818-1.818V62.994A1.818,1.818,0,0,0,82.578,61.176Zm-.909,46.1H70.082V63.9H81.669ZM108.024,43h-13.4A1.818,1.818,0,0,0,92.8,44.818v63.365A1.818,1.818,0,0,0,94.619,110h13.4a1.818,1.818,0,0,0,1.818-1.818V44.818A1.818,1.818,0,0,0,108.024,43Zm-.909,64.273H95.528V45.726h11.587Z" fill="#58798c"/>
    </g>
  </g>
</svg>
