<svg xmlns="http://www.w3.org/2000/svg" width="153" height="153" viewBox="0 0 153 153">
  <title>アセット 6</title>
  <g id="レイヤー_2" data-name="レイヤー 2">
    <g id="Layer_1" data-name="Layer 1">
      <circle cx="76.5" cy="76.5" r="75" fill="none" stroke="#58798c" stroke-miterlimit="10" stroke-width="3"/>
      <path d="M109.826,81.144V41s-1.713.958-3.7,2.064-12.633,4.723-24.492,1.546c-18.515-4.959-32.659-2.995-33.183-3.394v74.864l3.72.483V80.72c3.824-.334,14.431-.735,28.5,3.033a40.01,40.01,0,0,0,11,1.454,45.232,45.232,0,0,0,18.16-4.063m-28.2-.987c-14.337-3.839-25.084-3.547-29.462-3.182V45.169c3.824-.331,14.431-.734,28.5,3.032a42.22,42.22,0,0,0,11,1.456,41.458,41.458,0,0,0,14.441-2.567V78.621a38.428,38.428,0,0,1-24.478,1.537" fill="#58798c"/>
    </g>
  </g>
</svg>
