<svg xmlns="http://www.w3.org/2000/svg" width="28" height="28" viewBox="0 0 28 28">
  <title>アセット 1</title>
  <g id="レイヤー_2" data-name="レイヤー 2">
    <g id="Layer_1" data-name="Layer 1">
      <g opacity="0.4">
        <g>
          <path d="M20.273,0H7.727A7.736,7.736,0,0,0,0,7.727V20.273A7.736,7.736,0,0,0,7.727,28H20.273A7.736,7.736,0,0,0,28,20.273V7.727A7.736,7.736,0,0,0,20.273,0Zm5.243,20.273a5.249,5.249,0,0,1-5.243,5.243H7.727a5.248,5.248,0,0,1-5.243-5.243V7.727A5.249,5.249,0,0,1,7.727,2.484H20.273a5.249,5.249,0,0,1,5.243,5.243V20.273Z" fill="#0b223c"/>
          <path d="M14,6.785A7.215,7.215,0,1,0,21.215,14,7.223,7.223,0,0,0,14,6.785ZM14,18.73A4.73,4.73,0,1,1,18.731,14,4.736,4.736,0,0,1,14,18.73Z" fill="#0b223c"/>
          <path d="M21.517,4.679a1.821,1.821,0,1,0,1.289.533A1.829,1.829,0,0,0,21.517,4.679Z" fill="#0b223c"/>
        </g>
      </g>
    </g>
  </g>
</svg>
