<svg xmlns="http://www.w3.org/2000/svg" width="153" height="153" viewBox="0 0 153 153">
  <title>アセット 5</title>
  <g id="レイヤー_2" data-name="レイヤー 2">
    <g id="Layer_1" data-name="Layer 1">
      <circle cx="76.5" cy="76.5" r="75" fill="none" stroke="#ffffff" stroke-miterlimit="10" stroke-width="3"/>
      <path d="M117.194,53.324c-3.275-5.657-12.8-6.65-25.012-3.672C88.807,37.742,83.051,30,76.5,30S64.193,37.742,60.818,49.652c-12.109-2.978-21.736-1.985-25.012,3.672a10.223,10.223,0,0,0-.695,8.039c1.29,4.665,4.764,9.925,9.925,15.285-5.161,5.26-8.734,10.62-9.925,15.285a10.223,10.223,0,0,0,.695,7.841c2.084,3.573,6.749,5.36,13,5.36a50.718,50.718,0,0,0,12.01-1.687C64.292,115.358,69.949,123,76.5,123s12.307-7.642,15.682-19.553a50.718,50.718,0,0,0,12.01,1.687c6.253,0,10.918-1.687,13-5.36a10.223,10.223,0,0,0,.695-8.039c-1.29-4.665-4.764-9.925-9.925-15.285,5.161-5.26,8.734-10.62,9.925-15.285A10.223,10.223,0,0,0,117.194,53.324ZM76.5,31.985c5.558,0,10.521,7.245,13.7,18.064A94.39,94.39,0,0,0,76.5,55.21a94.389,94.389,0,0,0-13.7-5.062C65.979,39.231,70.942,31.985,76.5,31.985ZM93.671,76.55c0,3.275-.2,6.451-.4,9.528-2.581,1.787-5.36,3.474-8.139,5.161A79.181,79.181,0,0,1,76.5,95.705a89.389,89.389,0,0,1-8.635-4.466c-2.878-1.687-5.558-3.375-8.139-5.161-.3-3.077-.4-6.253-.4-9.528s.2-6.451.4-9.528c2.581-1.787,5.36-3.474,8.139-5.161A79.18,79.18,0,0,1,76.5,57.394a89.387,89.387,0,0,1,8.635,4.466c2.878,1.687,5.558,3.375,8.139,5.161C93.572,70.1,93.671,73.274,93.671,76.55Zm1.687-8.039a91.512,91.512,0,0,1,9.727,8.039,91.512,91.512,0,0,1-9.727,8.039q.3-3.871.3-8.039T95.358,68.51ZM92.976,88.658a89.427,89.427,0,0,1-2.184,12.307A92.107,92.107,0,0,1,78.882,96.7q3.573-1.687,7.146-3.772A68.238,68.238,0,0,0,92.976,88.658ZM74.118,96.8a92.107,92.107,0,0,1-11.91,4.268,89.427,89.427,0,0,1-2.184-12.307c2.184,1.489,4.566,2.878,6.948,4.268S71.736,95.606,74.118,96.8ZM57.642,84.589a91.512,91.512,0,0,1-9.727-8.039,91.512,91.512,0,0,1,9.727-8.039q-.3,3.871-.3,8.039T57.642,84.589Zm2.382-20.248a89.427,89.427,0,0,1,2.184-12.307A92.107,92.107,0,0,1,74.118,56.3q-3.573,1.687-7.146,3.772c-2.481,1.39-4.764,2.878-6.948,4.367Zm26.1-4.268q-3.573-2.084-7.146-3.772a92.107,92.107,0,0,1,11.91-4.268,89.427,89.427,0,0,1,2.184,12.307C90.792,62.952,88.51,61.463,86.128,60.074ZM37.494,54.218c2.779-4.764,11.613-5.459,22.729-2.68A91.71,91.71,0,0,0,57.84,65.83a93.993,93.993,0,0,0-11.315,9.231C41.563,70,38.188,65.036,37,60.768a8.337,8.337,0,0,1,.5-6.451Zm0,44.465a8.337,8.337,0,0,1-.5-6.451c1.191-4.268,4.566-9.33,9.528-14.292A93.993,93.993,0,0,0,57.84,87.17a91.71,91.71,0,0,0,2.382,14.292c-11.116,2.779-19.95,2.084-22.729-2.68ZM76.5,121.114c-5.558,0-10.521-7.245-13.7-18.064a94.291,94.291,0,0,0,13.7-5.161,94.29,94.29,0,0,0,13.7,5.062C87.021,113.869,82.058,121.114,76.5,121.114Zm39.006-22.332c-2.779,4.764-11.613,5.459-22.729,2.68A91.71,91.71,0,0,0,95.16,87.17a93.993,93.993,0,0,0,11.315-9.231C111.437,83,114.812,87.964,116,92.232A8.337,8.337,0,0,1,115.506,98.782Zm.5-38.014c-1.191,4.268-4.566,9.33-9.528,14.292A93.993,93.993,0,0,0,95.16,65.83a91.709,91.709,0,0,0-2.382-14.292c11.116-2.779,19.95-2.084,22.729,2.68A8.337,8.337,0,0,1,116,60.768Z" fill="#ffffff"/>
    </g>
  </g>
</svg>
