<svg xmlns="http://www.w3.org/2000/svg" width="612.061" height="435.983" viewBox="0 0 612.061 435.983">
  <title>アセット 2</title>
  <g style="isolation: isolate">
    <g id="レイヤー_2" data-name="レイヤー 2">
      <g id="Layer_1" data-name="Layer 1">
        <g>
          <g style="mix-blend-mode: luminosity">
            <g>
              <path d="M299.175,345.733c-.008,3.107.009,6.542.5,6.542.108,0,.15-.569.168-1.3a2.263,2.263,0,0,0,.385.443c-.059,1.081-.185,1.5-.611,1.5-1.022,0-1.014-2.966-1.039-6.618h-4.523v2.111a7.836,7.836,0,0,1-1.089,4.523,2.394,2.394,0,0,0-.494-.352,7.022,7.022,0,0,0,.988-4.172v-2.681Zm-1.533,4.934a6.134,6.134,0,0,1,1,1.835l-.511.185a3.56,3.56,0,0,0-.251-.646c-1.391.1-2.815.2-3.8.276l-.042-.569c.52-.025,1.2-.067,1.952-.109v-1.181h-1.449v-2.271h1.449v-.745c-.511.05-1.03.092-1.517.108a2.029,2.029,0,0,0-.167-.46,21.39,21.39,0,0,0,3.46-.47l.436.452a12.047,12.047,0,0,1-1.659.3v.813h1.483v2.271h-1.483V351.6l1.081-.066a7.352,7.352,0,0,0-.452-.713Zm-1.658-.7V348.69h-.946v1.273Zm.553-1.273v1.273h.955V348.69Z" fill="#bfc6cd"/>
              <path d="M305.1,346.512V348l.108-.126a20.69,20.69,0,0,1,2.975,1.734l-.436.561A19.242,19.242,0,0,0,305.1,348.5v4.406h-.662v-6.4h-3.2v-.62h7.4v.62Z" fill="#bfc6cd"/>
              <path d="M312.2,349.678a7.825,7.825,0,0,1,1.231-4.247l.478.218a8.107,8.107,0,0,0,0,8.059l-.478.227A7.855,7.855,0,0,1,312.2,349.678Z" fill="#bfc6cd"/>
              <path d="M315.209,351.647h1.365v-4.582h-1.089v-.486a3.889,3.889,0,0,0,1.273-.436h.586v5.5h1.231v.637h-3.367Z" fill="#bfc6cd"/>
              <path d="M319.711,350.759a1.966,1.966,0,0,1,1.131-1.692v-.042a1.707,1.707,0,0,1-.829-1.416,1.687,1.687,0,0,1,3.367.059,2.013,2.013,0,0,1-.821,1.483v.042A1.791,1.791,0,0,1,323.6,350.8a1.717,1.717,0,0,1-1.927,1.592A1.762,1.762,0,0,1,319.711,350.759Zm3.158.025c0-.821-.754-1.132-1.625-1.483a1.668,1.668,0,0,0-.838,1.391,1.177,1.177,0,0,0,1.281,1.131A1.064,1.064,0,0,0,322.869,350.784Zm-.143-3.075a1.024,1.024,0,0,0-1.047-1.1.943.943,0,0,0-.972,1c0,.737.661,1.056,1.382,1.341A1.648,1.648,0,0,0,322.727,347.709Z" fill="#bfc6cd"/>
              <path d="M324.607,349.192c0-2.137.745-3.167,1.918-3.167s1.91,1.039,1.91,3.167-.746,3.2-1.91,3.2S324.607,351.328,324.607,349.192Zm3.082,0c0-1.793-.469-2.547-1.164-2.547s-1.173.754-1.173,2.547c0,1.81.469,2.588,1.173,2.588S327.689,351,327.689,349.192Z" fill="#bfc6cd"/>
              <path d="M329.436,347.072a1.173,1.173,0,1,1,1.173,1.19A1.16,1.16,0,0,1,329.436,347.072Zm1.877,0a.706.706,0,1,0-.7.763A.706.706,0,0,0,331.312,347.072Z" fill="#bfc6cd"/>
              <path d="M332.73,353.707a8.107,8.107,0,0,0,0-8.059l.469-.218a7.907,7.907,0,0,1,0,8.5Z" fill="#bfc6cd"/>
            </g>
          </g>
          <circle cx="313.964" cy="216.088" r="98.494" fill="#32343a" style="mix-blend-mode: luminosity"/>
          <circle cx="314.19" cy="215.824" r="28.466" fill="none" stroke="#5c5f6b" stroke-miterlimit="10" stroke-width="0.5" style="mix-blend-mode: luminosity"/>
          <circle cx="314.19" cy="215.824" r="56.499" fill="none" stroke="#5c5f6b" stroke-miterlimit="10" stroke-width="0.5" style="mix-blend-mode: luminosity"/>
          <circle cx="314.19" cy="215.824" r="85.311" fill="none" stroke="#5c5f6b" stroke-miterlimit="10" stroke-width="0.5" style="mix-blend-mode: luminosity"/>
          <g style="mix-blend-mode: luminosity">
            <g>
              <path d="M304.123,81.869c-.008,3.107.009,6.542.5,6.542.108,0,.15-.569.168-1.3a2.263,2.263,0,0,0,.385.443c-.059,1.081-.185,1.5-.611,1.5-1.022,0-1.014-2.966-1.039-6.618H299V84.55a7.836,7.836,0,0,1-1.089,4.523,2.394,2.394,0,0,0-.494-.352,7.022,7.022,0,0,0,.988-4.172V81.869ZM302.59,86.8a6.134,6.134,0,0,1,1,1.835l-.511.185a3.56,3.56,0,0,0-.251-.646c-1.391.1-2.815.2-3.8.276l-.042-.569c.52-.025,1.2-.067,1.952-.109V86.594h-1.449V84.323h1.449v-.745c-.511.05-1.03.092-1.517.108a2.029,2.029,0,0,0-.167-.46,21.39,21.39,0,0,0,3.46-.47l.436.452a12.047,12.047,0,0,1-1.659.3v.813h1.483v2.271h-1.483v1.147l1.081-.066a7.352,7.352,0,0,0-.452-.713Zm-1.658-.7V84.826h-.946V86.1Zm.553-1.273V86.1h.955V84.826Z" fill="#bfc6cd"/>
              <path d="M313.612,88.043v.62h-7.464v-.62h3.125v-6.5h.653v2.563h3.116v.62h-3.116v3.317Z" fill="#bfc6cd"/>
              <path d="M317.147,85.815a7.825,7.825,0,0,1,1.231-4.247l.478.218a8.107,8.107,0,0,0,0,8.059l-.478.227A7.855,7.855,0,0,1,317.147,85.815Z" fill="#bfc6cd"/>
              <path d="M319.83,85.329c0-2.137.746-3.167,1.918-3.167s1.91,1.039,1.91,3.167-.745,3.2-1.91,3.2S319.83,87.465,319.83,85.329Zm3.083,0c0-1.793-.47-2.547-1.165-2.547s-1.172.754-1.172,2.547c0,1.81.469,2.588,1.172,2.588S322.913,87.139,322.913,85.329Z" fill="#bfc6cd"/>
              <path d="M324.659,83.209a1.173,1.173,0,1,1,1.173,1.19A1.16,1.16,0,0,1,324.659,83.209Zm1.876,0a.706.706,0,1,0-.7.763A.705.705,0,0,0,326.535,83.209Z" fill="#bfc6cd"/>
              <path d="M327.954,89.844a8.107,8.107,0,0,0,0-8.059l.469-.218a7.907,7.907,0,0,1,0,8.5Z" fill="#bfc6cd"/>
            </g>
          </g>
          <g style="mix-blend-mode: luminosity">
            <g>
              <path d="M159.243,213.368a2.435,2.435,0,0,0-.209.369,10.627,10.627,0,0,1-1.407,2.454,24.027,24.027,0,0,1,2.445,2.5l-.586.512a19.377,19.377,0,0,0-2.3-2.488,10.638,10.638,0,0,1-3.267,2.446l-.536-.562a9.573,9.573,0,0,0,3.451-2.488,7.477,7.477,0,0,0,1.391-2.328h-3.268c-.293,0-.754.033-.846.041v-.762c.117.017.595.059.846.059h3.233a2.233,2.233,0,0,0,.629-.075Z" fill="#bfc6cd"/>
              <path d="M168.439,213.6a3.567,3.567,0,0,0-.192.453,8.513,8.513,0,0,1-1.224,2.487c.318.2.6.395.813.545l-.461.6c-.2-.159-.478-.36-.795-.578a7.942,7.942,0,0,1-3.284,2.228l-.6-.519a7.353,7.353,0,0,0,3.31-2.086c-.662-.428-1.366-.847-1.835-1.106l.428-.494c.485.252,1.189.653,1.843,1.047a7,7,0,0,0,1.08-2.236H164.67a9.093,9.093,0,0,1-2.22,2.2l-.562-.436a7.474,7.474,0,0,0,2.688-2.906,3.606,3.606,0,0,0,.269-.671l.754.243c-.134.218-.285.5-.369.662-.05.1-.108.2-.176.31h2.287a1.476,1.476,0,0,0,.553-.084Z" fill="#bfc6cd"/>
              <path d="M172.425,215.9a12.487,12.487,0,0,1-1.608,2.3l-.578-.394a8.935,8.935,0,0,0,1.6-2.2Zm1.793-1.29v4.055c0,.443-.218.67-.721.67-.352,0-.854-.025-1.189-.059l-.067-.67a6.2,6.2,0,0,0,.972.1c.227,0,.327-.1.327-.317v-3.778H171.21c-.251,0-.485.008-.712.025v-.7a6.208,6.208,0,0,0,.712.042h2.329v-.863a3.07,3.07,0,0,0-.059-.595h.787a3.943,3.943,0,0,0-.05.6v.854h2.211a4.856,4.856,0,0,0,.688-.042v.7c-.227-.017-.478-.017-.679-.017Zm1.709,1.014a18.118,18.118,0,0,1,1.449,2.187l-.62.343a13.9,13.9,0,0,0-1.4-2.228Zm.318-1.943a9.21,9.21,0,0,0-.671-1.14l.452-.185a11.22,11.22,0,0,1,.671,1.123Zm1-.252a8.332,8.332,0,0,0-.679-1.122l.444-.192a11.44,11.44,0,0,1,.687,1.113Z" fill="#bfc6cd"/>
              <path d="M179.175,215.346c.252.017.7.042,1.165.042h4.59c.419,0,.721-.025.905-.042v.82c-.168-.008-.52-.042-.9-.042h-4.6c-.461,0-.905.018-1.165.042Z" fill="#bfc6cd"/>
              <path d="M158.506,227.545a7.825,7.825,0,0,1,1.231-4.247l.478.218a8.107,8.107,0,0,0,0,8.059l-.478.227A7.855,7.855,0,0,1,158.506,227.545Z" fill="#bfc6cd"/>
              <path d="M161.147,229.7c1.927-1.684,2.814-2.907,2.814-3.963a1.08,1.08,0,0,0-1.131-1.215,1.719,1.719,0,0,0-1.273.713l-.444-.436a2.348,2.348,0,0,1,1.81-.905,1.685,1.685,0,0,1,1.784,1.818c0,1.223-.963,2.471-2.4,3.836.318-.024.7-.059,1.006-.059h1.7v.662h-3.861Z" fill="#bfc6cd"/>
              <path d="M169.025,224.663h-2.974v-.653H169.9v.461c-1.441,1.852-1.709,3.275-1.8,5.68h-.8A9.093,9.093,0,0,1,169.025,224.663Z" fill="#bfc6cd"/>
              <path d="M170.914,227.06c0-2.137.746-3.167,1.918-3.167s1.91,1.039,1.91,3.167-.745,3.2-1.91,3.2S170.914,229.2,170.914,227.06Zm3.083,0c0-1.793-.47-2.547-1.165-2.547s-1.172.754-1.172,2.547c0,1.81.469,2.588,1.172,2.588S174,228.869,174,227.06Z" fill="#bfc6cd"/>
              <path d="M175.743,224.94a1.173,1.173,0,1,1,1.173,1.19A1.16,1.16,0,0,1,175.743,224.94Zm1.876,0a.706.706,0,1,0-.7.763A.705.705,0,0,0,177.619,224.94Z" fill="#bfc6cd"/>
              <path d="M179.038,231.574a8.107,8.107,0,0,0,0-8.059l.469-.218a7.907,7.907,0,0,1,0,8.5Z" fill="#bfc6cd"/>
            </g>
          </g>
          <path d="M313.713,114.07A102.139,102.139,0,1,1,211.573,216.21,102.255,102.255,0,0,1,313.713,114.07m0-7A109.139,109.139,0,1,0,422.852,216.21,109.139,109.139,0,0,0,313.713,107.07Z" fill="#32343a" style="mix-blend-mode: luminosity"/>
          <path d="M313.713,103.249a112.96,112.96,0,1,1-79.875,33.085,112.222,112.222,0,0,1,79.875-33.085m0-7a119.96,119.96,0,1,0,119.96,119.96,119.96,119.96,0,0,0-119.96-119.96Z" fill="#32343a" style="mix-blend-mode: luminosity"/>
          <path d="M222.06,163.226a108.692,108.692,0,0,1,7.277-10.92" fill="#e4522f" stroke="#e4522f" stroke-miterlimit="10" stroke-width="7" style="mix-blend-mode: color-dodge"/>
          <path d="M405.583,163.382a108.684,108.684,0,0,1,5.95,12.16" fill="#e4522f" stroke="#e4522f" stroke-miterlimit="10" stroke-width="7" style="mix-blend-mode: color-dodge"/>
          <path d="M221.669,268.791a108.687,108.687,0,0,1-5.855-12.019" fill="#e4522f" stroke="#e4522f" stroke-miterlimit="10" stroke-width="7" style="mix-blend-mode: color-dodge"/>
          <path d="M377.933,300.51a108.3,108.3,0,0,1-11.593,7.737" fill="#e4522f" stroke="#e4522f" stroke-miterlimit="10" stroke-width="7" style="mix-blend-mode: color-dodge"/>
          <g style="mix-blend-mode: luminosity">
            <g>
              <path d="M442.789,215.9a12.487,12.487,0,0,1-1.608,2.3l-.578-.394a8.935,8.935,0,0,0,1.6-2.2Zm1.793-1.29v4.055c0,.443-.218.67-.721.67-.352,0-.854-.025-1.189-.059l-.067-.67a6.2,6.2,0,0,0,.972.1c.227,0,.327-.1.327-.317v-3.778h-2.329c-.251,0-.485.008-.712.025v-.7a6.208,6.208,0,0,0,.712.042H443.9v-.863a3.07,3.07,0,0,0-.059-.595h.787a3.943,3.943,0,0,0-.05.6v.854h2.211a4.856,4.856,0,0,0,.688-.042v.7c-.227-.017-.478-.017-.679-.017Zm1.709,1.014a18.118,18.118,0,0,1,1.449,2.187l-.62.343a13.9,13.9,0,0,0-1.4-2.228Zm-.26-2.84a.917.917,0,1,1,1.834,0,.917.917,0,0,1-1.834,0Zm.385,0a.532.532,0,1,0,1.064,0,.532.532,0,1,0-1.064,0Z" fill="#bfc6cd"/>
              <path d="M449.539,215.346c.251.017.7.042,1.164.042h4.591c.419,0,.721-.025.9-.042v.82c-.167-.008-.52-.042-.9-.042h-4.6c-.461,0-.9.018-1.164.042Z" fill="#bfc6cd"/>
              <path d="M464.088,216.819a22.057,22.057,0,0,0-3.292-1.349l.008,2.765a9.682,9.682,0,0,0,.051.988h-.8a9.228,9.228,0,0,0,.051-.988V213.36a5.324,5.324,0,0,0-.067-.871h.821c-.025.259-.059.619-.059.871v1.365a27.285,27.285,0,0,1,3.576,1.382Z" fill="#bfc6cd"/>
              <path d="M444.19,227.545a7.825,7.825,0,0,1,1.231-4.247l.478.218a8.107,8.107,0,0,0,0,8.059l-.478.227A7.855,7.855,0,0,1,444.19,227.545Z" fill="#bfc6cd"/>
              <path d="M447.367,229.153a1.387,1.387,0,0,0,1.03.47c.8,0,1.483-.654,1.542-2.563a1.9,1.9,0,0,1-1.416.762c-1.022,0-1.692-.661-1.692-1.935a1.845,1.845,0,0,1,1.76-1.994c1.181,0,2.061.972,2.061,2.924,0,2.488-1.072,3.443-2.229,3.443a1.954,1.954,0,0,1-1.475-.629Zm2.563-2.723c-.084-1.265-.553-1.935-1.34-1.935-.587,0-1.039.553-1.039,1.391s.368,1.365,1.1,1.365A1.621,1.621,0,0,0,449.931,226.431Z" fill="#bfc6cd"/>
              <path d="M451.735,227.06c0-2.137.746-3.167,1.918-3.167s1.91,1.039,1.91,3.167-.745,3.2-1.91,3.2S451.735,229.2,451.735,227.06Zm3.083,0c0-1.793-.47-2.547-1.165-2.547s-1.172.754-1.172,2.547c0,1.81.469,2.588,1.172,2.588S454.818,228.869,454.818,227.06Z" fill="#bfc6cd"/>
              <path d="M456.564,224.94a1.173,1.173,0,1,1,1.173,1.19A1.16,1.16,0,0,1,456.564,224.94Zm1.877,0a.706.706,0,1,0-.7.763A.706.706,0,0,0,458.441,224.94Z" fill="#bfc6cd"/>
              <path d="M459.859,231.574a8.107,8.107,0,0,0,0-8.059l.469-.218a7.907,7.907,0,0,1,0,8.5Z" fill="#bfc6cd"/>
            </g>
          </g>
          <line x1="311.038" y1="130.678" x2="316.671" y2="130.678" fill="none" stroke="#d6d6d6" stroke-miterlimit="10" style="mix-blend-mode: luminosity"/>
          <line x1="311.038" y1="159.135" x2="316.671" y2="159.135" fill="none" stroke="#d6d6d6" stroke-miterlimit="10" style="mix-blend-mode: luminosity"/>
          <line x1="311.038" y1="187.592" x2="316.671" y2="187.592" fill="none" stroke="#d6d6d6" stroke-miterlimit="10" style="mix-blend-mode: luminosity"/>
          <g style="mix-blend-mode: luminosity">
            <path d="M323.427,160.741h-.787V162.4h-.9v-1.658h-2.664V160.1l2.454-3.862h1.114V160h.787ZM321.735,160v-1.617c0-.335.033-.854.05-1.189h-.033c-.151.311-.318.629-.494.947L320.043,160Z" fill="#fff"/>
            <path d="M324.285,159.292c0-2.137.779-3.176,1.994-3.176s1.993,1.048,1.993,3.176c0,2.145-.787,3.217-1.993,3.217S324.285,161.437,324.285,159.292Zm3.066,0c0-1.768-.444-2.413-1.072-2.413s-1.072.646-1.072,2.413c0,1.784.443,2.454,1.072,2.454S327.352,161.076,327.352,159.292Z" fill="#fff"/>
            <path d="M329.608,155.723h.938v4.306h.025l1.81-2.236h1.063l-1.566,1.868,1.742,2.739h-1.047l-1.248-2.086-.779.9V162.4h-.937Z" fill="#fff"/>
            <path d="M334.639,157.792h.787l.075.646h.025a2.007,2.007,0,0,1,1.424-.763,1.23,1.23,0,0,1,1.273.846,2.124,2.124,0,0,1,1.5-.846c.964,0,1.416.653,1.416,1.826v2.9h-.963v-2.781c0-.8-.252-1.114-.771-1.114a1.539,1.539,0,0,0-1.038.629V162.4H337.4v-2.781c0-.8-.242-1.114-.771-1.114a1.558,1.558,0,0,0-1.039.629V162.4h-.954Z" fill="#fff"/>
            <path d="M344.445,155.715h.67l-2.329,8.192h-.67Z" fill="#fff"/>
            <path d="M346.224,155.723h.955v1.768l-.033.913a2.144,2.144,0,0,1,1.491-.729c.979,0,1.415.653,1.415,1.826v2.9h-.963v-2.781c0-.8-.234-1.114-.779-1.114a1.572,1.572,0,0,0-1.131.629V162.4h-.955Z" fill="#fff"/>
          </g>
          <g style="mix-blend-mode: luminosity">
            <path d="M322.69,128.814a1.325,1.325,0,0,0-.964-.461c-.787,0-1.44.595-1.482,2.354a1.856,1.856,0,0,1,1.34-.712c1.039,0,1.734.637,1.734,1.943a1.879,1.879,0,0,1-1.843,2.02c-1.173,0-2.128-.98-2.128-3.075,0-2.37,1.114-3.317,2.329-3.317a2.072,2.072,0,0,1,1.541.662Zm-.269,3.124c0-.8-.352-1.239-1.014-1.239a1.434,1.434,0,0,0-1.147.72c.1,1.224.544,1.8,1.206,1.8C322,133.22,322.422,132.733,322.422,131.938Z" fill="#fff"/>
            <path d="M324.285,130.74c0-2.137.779-3.176,1.994-3.176s1.993,1.048,1.993,3.176c0,2.145-.787,3.217-1.993,3.217S324.285,132.885,324.285,130.74Zm3.066,0c0-1.768-.444-2.413-1.072-2.413s-1.072.646-1.072,2.413c0,1.784.443,2.454,1.072,2.454S327.352,132.525,327.352,130.74Z" fill="#fff"/>
            <path d="M329.608,127.171h.938v4.306h.025l1.81-2.236h1.063l-1.566,1.868,1.742,2.739h-1.047l-1.248-2.086-.779.9v1.189h-.937Z" fill="#fff"/>
            <path d="M334.639,129.24h.787l.075.646h.025a2.007,2.007,0,0,1,1.424-.763,1.23,1.23,0,0,1,1.273.846,2.124,2.124,0,0,1,1.5-.846c.964,0,1.416.653,1.416,1.826v2.9h-.963v-2.781c0-.8-.252-1.114-.771-1.114a1.539,1.539,0,0,0-1.038.629v3.267H337.4v-2.781c0-.8-.242-1.114-.771-1.114a1.558,1.558,0,0,0-1.039.629v3.267h-.954Z" fill="#fff"/>
            <path d="M344.445,127.163h.67l-2.329,8.192h-.67Z" fill="#fff"/>
            <path d="M346.224,127.171h.955v1.768l-.033.913a2.144,2.144,0,0,1,1.491-.729c.979,0,1.415.653,1.415,1.826v2.9h-.963v-2.781c0-.8-.234-1.114-.779-1.114a1.572,1.572,0,0,0-1.131.629v3.267h-.955Z" fill="#fff"/>
          </g>
          <g style="mix-blend-mode: luminosity">
            <path d="M319.272,189.872c1.817-1.608,2.756-2.806,2.756-3.819a1,1,0,0,0-1.047-1.131,1.67,1.67,0,0,0-1.215.687l-.545-.536a2.422,2.422,0,0,1,1.877-.922A1.743,1.743,0,0,1,322.958,186c0,1.189-.946,2.421-2.253,3.669.318-.033.7-.059,1-.059h1.541v.821h-3.979Z" fill="#fff"/>
            <path d="M324.285,187.326c0-2.137.779-3.176,1.994-3.176s1.993,1.048,1.993,3.176c0,2.145-.787,3.217-1.993,3.217S324.285,189.471,324.285,187.326Zm3.066,0c0-1.768-.444-2.413-1.072-2.413s-1.072.646-1.072,2.413c0,1.784.443,2.454,1.072,2.454S327.352,189.11,327.352,187.326Z" fill="#fff"/>
            <path d="M329.608,183.757h.938v4.306h.025l1.81-2.236h1.063l-1.566,1.868,1.742,2.739h-1.047l-1.248-2.086-.779.9v1.189h-.937Z" fill="#fff"/>
            <path d="M334.639,185.826h.787l.075.646h.025a2.007,2.007,0,0,1,1.424-.763,1.23,1.23,0,0,1,1.273.846,2.124,2.124,0,0,1,1.5-.846c.964,0,1.416.653,1.416,1.826v2.9h-.963v-2.781c0-.8-.252-1.114-.771-1.114a1.539,1.539,0,0,0-1.038.629v3.267H337.4v-2.781c0-.8-.242-1.114-.771-1.114a1.558,1.558,0,0,0-1.039.629v3.267h-.954Z" fill="#fff"/>
            <path d="M344.445,183.749h.67l-2.329,8.192h-.67Z" fill="#fff"/>
            <path d="M346.224,183.757h.955v1.768l-.033.913a2.144,2.144,0,0,1,1.491-.729c.979,0,1.415.653,1.415,1.826v2.9h-.963v-2.781c0-.8-.234-1.114-.779-1.114a1.572,1.572,0,0,0-1.131.629v3.267h-.955Z" fill="#fff"/>
          </g>
          <line x1="313.964" y1="96.249" x2="313.964" y2="336.17" fill="none" stroke="#d6d6d6" stroke-miterlimit="10" style="mix-blend-mode: luminosity"/>
          <line x1="193.752" y1="216.049" x2="433.673" y2="216.049" fill="none" stroke="#d6d6d6" stroke-miterlimit="10" style="mix-blend-mode: luminosity"/>
          <path d="M317.1,243.913l-1.219,28.059.243-13.019-1.941,10.593,1.051-18.113-.889,5.013.566-9.218-3.72,25.067.162-16.01L302.778,276.1l10.916-32.587s-5.579,15.93-5.66,16.415.485-6.065.485-6.065-5.579,11.806-5.66,11.983a14.454,14.454,0,0,1-.081-1.956l7.843-20.62-12.533,24.663,2.668-6.307-4.852,5.984,12.129-24.582s-20.458,34.2-20.862,34.608,16.334-29.2,16.334-29.2-17.142,24.186-17.628,24.186,8.329-11.806,8.329-11.806l-3.315,3.558,1.089-5.418L280.218,273.67l11.321-17.709s-2.588,3.477-2.83,3.639.809-2.823.809-2.823l-20.458,18.187,9.542-10.188L273.83,266.8l14.636-13.827s-5.5,5.013-6.307,5.66,3.34-4.286,3.34-4.286l-13.448,9.7,10.916-10.027L271.4,260.652l.566-2.588,7.52-5.9s-12.533,7.52-13.5,7.924,5.9-4.852,5.9-4.852L258.3,260.086l16.1-8.086s-14.16,5.822-14.565,5.822,2.183-3.154,2.183-3.154h-.889l1.375-2.992-9.542,2.426L266.8,246.93l-13.328,3.678,4.834-2.175-2.394-1.691,2.394-1.877-11.4,3.568,9.01-5.07-9.573,1.5,7.509-4.317H240.327l15.2-2.628h-7.884l6.758-1.809-3.379-.338,3-2.05H241.454l3.567-1.955-4.317-.793-3.191-2.023,6.382-1.732-2.253-1.013s2.816-2.178,3.379-2.178-5.256-1.2-5.256-1.2l8.072-1.055-6.382-1.689,3.191-.751-2.065-2.253,7.133,1.126-2.065-2.44-1.314-1.971h3.942l2.44-1.408-4.13-.939.939-1.251,5.48.382-6.767-5.038-.6-1.88,14.21,4.286-7.819-4.511,10.3,2.256s-9.4-7.218-9.7-7.218,10.677,3.91,10.677,3.91l-2.632-3.459,5.639,2.256L265.08,197.5l3.083,1.128L267.11,197.5l8.041,4.286-5.919-5,24.589,16.005-.626-1.073,9.3,6.438L272.184,194.2,299.276,214.4,284.07,200.366l9.573,7.332-1.073-1.788,2.146,1.609-1.52-2.861,6.348,6.617-1.341-2.593,4.292,4.739-2.951-5.275,7.243,9.746-11.534-18.956,13.054,19.135-6.17-11.892s7.511,12.607,7.511,12.965a9.131,9.131,0,0,1-.778-1.4c-1.731-3.361-5.749-11.561-5.749-11.561l8.047,14.217-2.772-7.243s4.65,9.031,4.65,9.679-2.414-9.679-2.414-9.679l4.471,13.054-1.252-10.014,1.431,6.08v-7.6l.984,7.6.832-5.1v6.259l1.406-6.9.292,3.21,1.167-7.587s.584,3.21.584,2.918.584-2.334.584-2.334,0,4.085.292,3.21,4.669-13.131,4.669-13.131l-5.252,17.508,5.544-15.174s-.875,4.085-.584,3.793,4.085-6.42,4.085-6.42l-5.836,14.007,6.711-12.256-3.5,7.587,7.587-10.8-10.5,17.508,3.469-4.584,4.7-6.213s-1.751,4.669-1.459,4.085,9.629-11.38,9.629-11.38l-13.131,16.925,8.462-8.754-6.711,8.754L344.473,203.4l-9.921,10.5,17.508-13.423h3.793v.584l-20.718,15.757,27.138-18.675V199.9l-2.334,2.626.875,1.459,4.961.292h3.21l-6.42,3.793,9.046-3.5s-3.5,3.5-2.918,3.5,5.252-1.167,5.252-1.167l.584,2.043.584,1.167,8.17-1.459s-3.21,2.626-2.918,2.626a14.226,14.226,0,0,1,2.043.875l-1.167.875,2.334.875-.292,1.459,1.459.584a20.574,20.574,0,0,0-2.626,2.043c.292,0,7.879-.584,7.879-.584l.875,1.459-1.167.875-.584,2.626-4.085.584,3.21.875-2.918,1.459,5.836.875-.584,2.043-4.085,1.167,1.459,1.459.875,3.5-.292,2.626,2.334,1.459,2.043,1.167-3.21.875,6.128,2.626-9.338.584,4.377,2.334-7.587-.584-1.459.875,2.918,1.459s-1.459.584-1.167.875,5.544,3.5,5.544,3.5l-4.085,1.459,1.167,2.043h-2.918l-.292,1.459-4.961-1.167,4.085,3.5-7.587-2.918,6.128,4.961-24.511-12.256-3.5-.292,17.508,9.629h-3.793l1.167,2.043a27.545,27.545,0,0,1-2.626-.875c.292,0,7.3,6.128,7.3,6.128l-21.01-12.256,11.672,9.629-6.711-3.793.292,2.043,4.377,3.793-6.711-2.626-11.088-10.213L361.4,270.809l-7.3-6.42-3.21.292,3.793,5.252,7.3,8.17-12.256-13.715.292,3.5-11.088-10.213-10.8-12.548,14.59,21.3-2.043-1.751,1.751,4.085-5.252-6.42.292,3.21-9.046-16.633s11.38,25.387,11.38,25.1S322,239.294,322,239.294l14.007,38.226-9.921-23.928,4.085,14.59L322.3,244.254l1.459,10.5-3.793-12.839,4.961,22.469-4.377-13.131s0,13.423.292,12.548-1.167-16.633-1.167-16.633,1.167,20.134,1.459,19.843-2.334-25.97-2.334-25.97l.584,22.177-1.167-9.629-1.167,6.42Z" fill="none" stroke="#797c80" stroke-miterlimit="10" stroke-width="0.5" style="mix-blend-mode: luminosity"/>
          <path d="M313.539,234.723l.794,18.27-.158-8.477,1.264,6.9-.684-11.794.579,3.264-.369-6,2.422,16.322-.105-10.425,5.581,12.9-7.108-21.218s3.633,10.372,3.686,10.688-.316-3.949-.316-3.949,3.633,7.687,3.686,7.8a9.412,9.412,0,0,0,.053-1.274L317.755,234.3l8.161,16.059-1.737-4.107,3.159,3.9-7.9-16.006s13.321,22.271,13.584,22.535-10.636-19.013-10.636-19.013,11.162,15.748,11.478,15.748-5.423-7.687-5.423-7.687l2.159,2.317-.709-3.528,7.659,9.583-7.371-11.531s1.685,2.264,1.843,2.369a9.911,9.911,0,0,0-.527-1.838l13.321,11.842-6.213-6.634,3.106,1.316-9.53-9s3.58,3.264,4.107,3.686-2.175-2.791-2.175-2.791l8.756,6.318-7.108-6.529,7.529,4.317-.369-1.685-4.9-3.844s8.161,4.9,8.793,5.16-3.844-3.159-3.844-3.159l8.847,3.159-10.486-5.265s9.22,3.791,9.484,3.791-1.422-2.053-1.422-2.053h.579l-.9-1.948,6.213,1.58-9-4.67,8.678,2.395-3.148-1.416,1.559-1.1-1.559-1.222,7.426,2.323-5.867-3.3,6.234.978-4.889-2.811h8.8l-9.9-1.711h5.134l-4.4-1.178,2.2-.22-1.956-1.335h8.189l-2.322-1.273,2.811-.517,2.078-1.317-4.156-1.128,1.467-.66a11.444,11.444,0,0,0-2.2-1.418c-.367,0,3.422-.78,3.422-.78l-5.256-.687,4.156-1.1-2.078-.489,1.345-1.467-4.645.733,1.345-1.589.856-1.283h-2.567l-1.589-.917,2.689-.611-.611-.814-3.568.249,4.406-3.28.392-1.224-9.253,2.791,5.092-2.937-6.707,1.469s6.12-4.7,6.315-4.7-6.952,2.546-6.952,2.546l1.713-2.252L345.3,206.9l2.105-2.4-2.007.734.685-.734-5.236,2.791,3.854-3.254L328.694,214.46l.408-.7-6.055,4.192,19.737-15.6-17.641,13.158,9.9-9.141-6.233,4.774.7-1.164-1.4,1.048.99-1.863-4.134,4.308.873-1.688-2.795,3.086,1.921-3.435-4.716,6.346,7.51-12.343-8.5,12.459,4.017-7.743s-4.891,8.209-4.891,8.442a5.946,5.946,0,0,0,.507-.914c1.127-2.188,3.743-7.528,3.743-7.528l-5.24,9.257,1.8-4.716s-3.027,5.88-3.027,6.3,1.572-6.3,1.572-6.3l-2.911,8.5.815-6.521-.932,3.959v-4.949l-.64,4.949-.542-3.319v4.075l-.916-4.494-.19,2.09-.76-4.94s-.38,2.09-.38,1.9-.38-1.52-.38-1.52,0,2.66-.19,2.09-3.04-8.55-3.04-8.55l3.42,11.4-3.61-9.88a13.076,13.076,0,0,1,.38,2.47c-.19-.19-2.66-4.18-2.66-4.18l3.8,9.12-4.37-7.98,2.28,4.94-4.94-7.03,6.84,11.4-2.259-2.985-3.062-4.046s1.14,3.04.95,2.66-6.27-7.41-6.27-7.41l8.55,11.02-5.51-5.7,4.37,5.7-9.88-9.12,6.46,6.84-11.4-8.74H288.3v.38l13.49,10.26-17.67-12.16v1.14l1.52,1.71-.57.95-3.23.19h-2.09l4.18,2.47-5.89-2.28s2.28,2.28,1.9,2.28-3.42-.76-3.42-.76l-.38,1.33-.38.76-5.32-.95a17.131,17.131,0,0,1,1.9,1.71,9.263,9.263,0,0,0-1.33.57l.76.57-1.52.57.19.95-.95.38a13.4,13.4,0,0,1,1.71,1.33c-.19,0-5.13-.38-5.13-.38l-.57.95.76.57.38,1.71,2.66.38-2.09.57,1.9.95-3.8.57.38,1.33,2.66.76-.95.95-.57,2.28.19,1.71-1.52.95-1.33.76,2.09.57-3.99,1.71,6.08.38-2.85,1.52,4.94-.38.95.57-1.9.95s.95.38.76.57-3.61,2.28-3.61,2.28l2.66.95-.76,1.33h1.9l.19.95,3.23-.76-2.66,2.28,4.94-1.9-3.99,3.23,15.96-7.98,2.28-.19-11.4,6.27h2.47l-.76,1.33a17.935,17.935,0,0,0,1.71-.57c-.19,0-4.75,3.99-4.75,3.99l13.68-7.98-7.6,6.27,4.37-2.47-.19,1.33-2.85,2.47,4.37-1.71,7.22-6.65-11.97,11.97,4.75-4.18,2.09.19-2.47,3.42-4.75,5.32,7.98-8.93-.19,2.28,7.22-6.65,7.03-8.17-9.5,13.87,1.33-1.14-1.14,2.66,3.42-4.18-.19,2.09,5.89-10.83s-7.41,16.53-7.41,16.34,11.59-22.61,11.59-22.61l-9.12,24.89,6.46-15.58-2.66,9.5,5.13-15.58-.95,6.84,2.47-8.36-3.23,14.63,2.85-8.55s0,8.74-.19,8.17.76-10.83.76-10.83-.76,13.11-.95,12.92,1.52-16.91,1.52-16.91l-.38,14.44.76-6.27.76,4.18Z" fill="none" stroke="#e4522f" stroke-linecap="round" stroke-linejoin="bevel"/>
          <path d="M221.1,145.755a115.714,115.714,0,0,1,10.392-11.906" fill="#797c80" stroke="#797c80" stroke-miterlimit="10" stroke-width="7" opacity="0.8" style="mix-blend-mode: luminosity"/>
          <path d="M396.346,134.325a116.15,116.15,0,0,1,9.982,11.309" fill="#797c80" stroke="#797c80" stroke-miterlimit="10" stroke-width="7" opacity="0.8" style="mix-blend-mode: luminosity"/>
          <path d="M283.692,329.413a116.153,116.153,0,0,1-13.9-4.769" fill="#797c80" stroke="#797c80" stroke-miterlimit="10" stroke-width="7" opacity="0.8" style="mix-blend-mode: luminosity"/>
          <path d="M358.608,324.544a115.7,115.7,0,0,1-14.294,4.969" fill="#797c80" stroke="#797c80" stroke-miterlimit="10" stroke-width="7" opacity="0.8" style="mix-blend-mode: luminosity"/>
          <g style="mix-blend-mode: luminosity">
            <circle cx="440.403" cy="102.113" r="27.945" fill="#32343a"/>
            <polygon points="435.813 107.862 440.403 104.967 444.992 107.862 440.403 96.364 435.813 107.862" fill="#fff"/>
            <g>
              <path d="M428.278,85.146h1l.578,3.209.327,1.977h.033c.134-.661.276-1.323.419-1.977l.8-3.209h.854l.8,3.209c.143.645.276,1.307.419,1.977h.042c.1-.67.21-1.332.311-1.977l.586-3.209h.93l-1.215,6.166h-1.2l-.83-3.426c-.108-.486-.2-.947-.284-1.416h-.042c-.084.469-.185.93-.285,1.416l-.812,3.426h-1.173Z" fill="#bfc6cd"/>
              <path d="M437.03,85.146H438v6.166h-.972Z" fill="#bfc6cd"/>
              <path d="M440.249,85.146h1l2.044,3.619.645,1.307h.042c-.05-.637-.126-1.382-.126-2.052V85.146h.922v6.166h-1l-2.044-3.636-.645-1.29h-.042c.05.637.125,1.349.125,2.019v2.907h-.921Z" fill="#bfc6cd"/>
              <path d="M447.031,85.146h1.6A2.715,2.715,0,0,1,451.6,88.2c0,2-1.08,3.107-2.923,3.107h-1.65Zm1.533,5.37c1.323,0,2.035-.779,2.035-2.312s-.712-2.271-2.035-2.271H448v4.582Z" fill="#bfc6cd"/>
            </g>
            <g>
              <path d="M426.286,119.172h1.349v-4.289h-1.105v-.611a3.772,3.772,0,0,0,1.34-.47h.729v5.37H429.8v.8h-3.519Z" fill="#bfc6cd"/>
              <path d="M431.366,116.86c0-2.137.779-3.176,1.994-3.176s1.994,1.048,1.994,3.176c0,2.145-.788,3.217-1.994,3.217S431.366,119,431.366,116.86Zm3.066,0c0-1.768-.444-2.413-1.072-2.413s-1.072.646-1.072,2.413c0,1.784.444,2.454,1.072,2.454S434.433,118.645,434.433,116.86Z" fill="#bfc6cd"/>
              <path d="M437.192,113.8h.972v2.916h.025l2.345-2.916h1.081l-1.91,2.38,2.229,3.786h-1.081l-1.742-3.016-.946,1.156v1.859h-.972Z" fill="#bfc6cd"/>
              <path d="M443.3,115.36h.787l.075.637h.025a2.2,2.2,0,0,1,1.524-.754c.98,0,1.416.653,1.416,1.826v2.9h-.964v-2.781c0-.8-.234-1.114-.779-1.114a1.574,1.574,0,0,0-1.131.629v3.267H443.3Z" fill="#bfc6cd"/>
              <path d="M448.829,117.673a2.181,2.181,0,1,1,2.17,2.4A2.226,2.226,0,0,1,448.829,117.673Zm3.351,0c0-.98-.452-1.634-1.181-1.634s-1.173.653-1.173,1.634.452,1.616,1.173,1.616S452.18,118.645,452.18,117.673Z" fill="#bfc6cd"/>
              <path d="M455.083,118.46v-2.329h-.67v-.72l.712-.051.108-1.273h.813v1.273h1.2v.771h-1.2v2.338c0,.553.193.837.671.837a1.372,1.372,0,0,0,.494-.108l.176.712a2.94,2.94,0,0,1-.905.168C455.443,120.077,455.083,119.432,455.083,118.46Z" fill="#bfc6cd"/>
            </g>
          </g>
        </g>
        <g>
          <g>
            <line x1="499.734" y1="133.643" x2="355.854" y2="201.068" fill="#0b223c"/>
            <g>
              <line x1="499.734" y1="133.643" x2="357.147" y2="200.461" fill="none" stroke="#80a5ee" stroke-miterlimit="10" stroke-width="0.5"/>
              <circle cx="357.215" cy="200.43" r="1.504" transform="translate(-51.294 170.52) rotate(-25.109)" fill="#80a5ee"/>
            </g>
          </g>
          <rect x="499.734" y="97.835" width="112.077" height="35.807" fill="#0b223c" stroke="#80a5ee" stroke-miterlimit="10" stroke-width="0.5"/>
          <text transform="translate(528.699 125.046)" font-size="10.745" fill="#fff" font-family="NotoSansCJKjp-Bold, NotoSansCJKjp Bold-83pv-RKSJ-H" font-weight="700" style="mix-blend-mode: luminosity">32.2</text>
          <g style="mix-blend-mode: luminosity">
            <text transform="translate(529.571 112.741)" font-size="6.566" fill="#bfc6cd" font-family="NotoSansCJKjp-Regular, NotoSansCJKjp Regular-83pv-RKSJ-H" letter-spacing="0.075em">AVG SPEED</text>
          </g>
          <text transform="translate(554.301 125.043)" font-size="6.565" fill="#fff" font-family="NotoSansCJKjp-Regular, NotoSansCJKjp Regular-83pv-RKSJ-H" style="mix-blend-mode: luminosity">km/h</text>
          <polygon points="519.669 119.923 519.763 120.017 519.763 116.154 519.669 116.059 513.73 111.582 507.792 116.059 507.792 119.923 513.73 115.493 519.669 119.923" fill="#9a8f8f" opacity="0.8" style="mix-blend-mode: luminosity"/>
        </g>
        <g>
          <rect x="415.247" y="0.25" width="112.087" height="35.807" fill="#0b223c" stroke="#80a5ee" stroke-miterlimit="10" stroke-width="0.5"/>
          <path d="M420.883,5.4a8.52,8.52,0,0,1,8.52,8.52h-8.622Z" fill="#9a8f8f" opacity="0.8" style="mix-blend-mode: luminosity"/>
          <g style="mix-blend-mode: luminosity">
            <text transform="translate(444.223 14.165)" font-size="6.566" fill="#bfc6cd" font-family="NotoSansCJKjp-Regular, NotoSansCJKjp Regular-83pv-RKSJ-H" letter-spacing="0.075em">風<tspan x="7.059" y="0" letter-spacing="0.325em">上</tspan><tspan x="15.759" y="0">VM</tspan><tspan x="26.344" y="0" letter-spacing="0.325em">G</tspan><tspan x="33.009" y="0" letter-spacing="0.075em">ポート</tspan></text>
          </g>
          <text transform="translate(441.746 27.156)" font-size="10.745" fill="#fff" font-family="NotoSansCJKjp-Bold, NotoSansCJKjp Bold-83pv-RKSJ-H" font-weight="700" style="mix-blend-mode: luminosity">15°</text>
          <text transform="translate(472.238 27.156)" font-size="10.745" fill="#fff" font-family="NotoSansCJKjp-Bold, NotoSansCJKjp Bold-83pv-RKSJ-H" font-weight="700" style="mix-blend-mode: luminosity">26.0</text>
          <line x1="465.728" y1="17.674" x2="465.728" y2="27.99" fill="#bfc6cd" stroke="#bfc6cd" stroke-miterlimit="10" style="mix-blend-mode: luminosity"/>
          <text transform="translate(495.983 27.156)" font-size="6.565" fill="#fff" font-family="NotoSansCJKjp-Regular, NotoSansCJKjp Regular-83pv-RKSJ-H" style="mix-blend-mode: luminosity">km/h</text>
          <g>
            <line x1="415.247" y1="36.057" x2="358.736" y2="174.978" fill="none" stroke="#80a5ee" stroke-miterlimit="10" stroke-width="0.5"/>
            <circle cx="358.764" cy="174.909" r="1.504" transform="translate(61.565 441.324) rotate(-67.864)" fill="#80a5ee"/>
          </g>
        </g>
        <g>
          <rect x="61.415" y="51.015" width="111.679" height="35.807" fill="#0b223c" stroke="#80a5ee" stroke-miterlimit="10" stroke-width="0.5"/>
          <path d="M65.781,64.684a8.52,8.52,0,0,1,8.52-8.52v8.622Z" fill="#9a8f8f" opacity="0.8" style="mix-blend-mode: luminosity"/>
          <g style="mix-blend-mode: luminosity">
            <text transform="translate(90.307 64.93)" font-size="6.566" fill="#bfc6cd" font-family="NotoSansCJKjp-Regular, NotoSansCJKjp Regular-83pv-RKSJ-H" letter-spacing="0.075em">風<tspan x="7.059" y="0" letter-spacing="0.325em">上</tspan><tspan x="15.759" y="0">VM</tspan><tspan x="26.344" y="0" letter-spacing="0.325em">G</tspan><tspan x="33.009" y="0" letter-spacing="0.075em">スタボー</tspan></text>
          </g>
          <text transform="translate(87.776 77.921)" font-size="10.745" fill="#fff" font-family="NotoSansCJKjp-Bold, NotoSansCJKjp Bold-83pv-RKSJ-H" font-weight="700" style="mix-blend-mode: luminosity">345°</text>
          <text transform="translate(124.715 77.921)" font-size="10.745" fill="#fff" font-family="NotoSansCJKjp-Bold, NotoSansCJKjp Bold-83pv-RKSJ-H" font-weight="700" style="mix-blend-mode: luminosity">26.0</text>
          <line x1="118.205" y1="68.438" x2="118.205" y2="78.755" fill="#bfc6cd" stroke="#bfc6cd" stroke-miterlimit="10" style="mix-blend-mode: luminosity"/>
          <text transform="translate(148.459 77.921)" font-size="6.565" fill="#fff" font-family="NotoSansCJKjp-Regular, NotoSansCJKjp Regular-83pv-RKSJ-H" style="mix-blend-mode: luminosity">km/h</text>
          <g>
            <line x1="173.094" y1="86.822" x2="290.049" y2="195.848" fill="none" stroke="#80a5ee" stroke-miterlimit="10" stroke-width="0.5"/>
            <circle cx="289.994" cy="195.797" r="1.504" transform="translate(-50.964 274.411) rotate(-47.01)" fill="#80a5ee"/>
          </g>
        </g>
        <g>
          <rect x="461.398" y="308.569" width="112.087" height="35.807" fill="#0b223c" stroke="#80a5ee" stroke-miterlimit="10" stroke-width="0.5"/>
          <path d="M475.452,314.143a8.52,8.52,0,0,1-8.52,8.52v-8.622Z" fill="#9a8f8f" opacity="0.8" style="mix-blend-mode: luminosity"/>
          <g style="mix-blend-mode: luminosity">
            <text transform="translate(490.373 322.928)" font-size="6.566" fill="#bfc6cd" font-family="NotoSansCJKjp-Regular, NotoSansCJKjp Regular-83pv-RKSJ-H" letter-spacing="0.075em">風<tspan x="7.059" y="0" letter-spacing="0.325em">上</tspan><tspan x="15.759" y="0">VM</tspan><tspan x="26.344" y="0" letter-spacing="0.325em">G</tspan><tspan x="33.009" y="0" letter-spacing="0.075em">ポート</tspan></text>
          </g>
          <text transform="translate(487.256 335.921)" font-size="10.745" fill="#fff" font-family="NotoSansCJKjp-Bold, NotoSansCJKjp Bold-83pv-RKSJ-H" font-weight="700" style="mix-blend-mode: luminosity">160°</text>
          <text transform="translate(523.868 335.921)" font-size="10.745" fill="#fff" font-family="NotoSansCJKjp-Bold, NotoSansCJKjp Bold-83pv-RKSJ-H" font-weight="700" style="mix-blend-mode: luminosity">26.0</text>
          <line x1="517.357" y1="326.438" x2="517.357" y2="336.754" fill="#bfc6cd" stroke="#bfc6cd" stroke-miterlimit="10" style="mix-blend-mode: luminosity"/>
          <text transform="translate(547.611 335.921)" font-size="6.565" fill="#fff" font-family="NotoSansCJKjp-Regular, NotoSansCJKjp Regular-83pv-RKSJ-H" style="mix-blend-mode: luminosity">km/h</text>
          <g>
            <line x1="461.398" y1="308.569" x2="364" y2="247.273" fill="none" stroke="#80a5ee" stroke-miterlimit="10" stroke-width="0.5"/>
            <circle cx="364.064" cy="247.313" r="1.504" transform="translate(-39.162 423.708) rotate(-57.816)" fill="#80a5ee"/>
          </g>
        </g>
        <g>
          <rect x="0.25" y="321.763" width="111.679" height="35.807" fill="#0b223c" stroke="#80a5ee" stroke-miterlimit="10" stroke-width="0.5"/>
          <g style="mix-blend-mode: luminosity">
            <text transform="translate(29.142 336.464)" font-size="6.566" fill="#bfc6cd" font-family="NotoSansCJKjp-Regular, NotoSansCJKjp Regular-83pv-RKSJ-H" letter-spacing="0.075em">TOP SPEED</text>
          </g>
          <text transform="translate(29.142 348.857)" font-size="10.745" fill="#fff" font-family="NotoSansCJKjp-Bold, NotoSansCJKjp Bold-83pv-RKSJ-H" font-weight="700" style="mix-blend-mode: luminosity">49.2</text>
          <text transform="translate(55.248 348.857)" font-size="6.565" fill="#fff" font-family="NotoSansCJKjp-Regular, NotoSansCJKjp Regular-83pv-RKSJ-H" style="mix-blend-mode: luminosity">km/h</text>
          <g opacity="0.8" style="mix-blend-mode: luminosity">
            <polygon points="20.496 339.751 20.591 339.798 20.591 336.687 20.496 336.593 15.689 333.011 10.882 336.593 10.882 339.751 15.689 336.122 20.496 339.751" fill="#9a8f8f"/>
            <polygon points="21.628 346.348 21.722 346.443 21.722 342.579 21.628 342.484 15.689 338.007 9.751 342.484 9.751 346.348 15.689 341.918 21.628 346.348" fill="#9a8f8f"/>
          </g>
          <g>
            <line x1="111.929" y1="321.763" x2="279.773" y2="248.35" fill="none" stroke="#80a5ee" stroke-miterlimit="10" stroke-width="0.5"/>
            <circle cx="279.704" cy="248.38" r="1.504" transform="translate(-76.093 132.901) rotate(-23.624)" fill="#80a5ee"/>
          </g>
        </g>
        <g>
          <rect x="113.394" y="399.926" width="111.679" height="35.807" fill="#0b223c" stroke="#80a5ee" stroke-miterlimit="10" stroke-width="0.5"/>
          <path d="M126.508,413.917a8.52,8.52,0,0,1-8.52-8.52h8.622Z" fill="#9a8f8f" opacity="0.8" style="mix-blend-mode: luminosity"/>
          <g style="mix-blend-mode: luminosity">
            <text transform="translate(142.286 414.285)" font-size="6.566" fill="#bfc6cd" font-family="NotoSansCJKjp-Regular, NotoSansCJKjp Regular-83pv-RKSJ-H" letter-spacing="0.075em">風<tspan x="7.059" y="0" letter-spacing="0.325em">下</tspan><tspan x="15.759" y="0">VM</tspan><tspan x="26.344" y="0" letter-spacing="0.325em">G</tspan><tspan x="33.009" y="0" letter-spacing="0.075em">スタボー</tspan></text>
          </g>
          <text transform="translate(139.755 427.277)" font-size="10.745" fill="#fff" font-family="NotoSansCJKjp-Bold, NotoSansCJKjp Bold-83pv-RKSJ-H" font-weight="700" style="mix-blend-mode: luminosity">206°</text>
          <text transform="translate(176.694 427.277)" font-size="10.745" fill="#fff" font-family="NotoSansCJKjp-Bold, NotoSansCJKjp Bold-83pv-RKSJ-H" font-weight="700" style="mix-blend-mode: luminosity">26.0</text>
          <line x1="170.184" y1="417.794" x2="170.184" y2="428.11" fill="#bfc6cd" stroke="#bfc6cd" stroke-miterlimit="10" style="mix-blend-mode: luminosity"/>
          <text transform="translate(200.439 427.277)" font-size="6.565" fill="#fff" font-family="NotoSansCJKjp-Regular, NotoSansCJKjp Regular-83pv-RKSJ-H" style="mix-blend-mode: luminosity">km/h</text>
          <g>
            <line x1="225.073" y1="399.926" x2="293.699" y2="261.079" fill="none" stroke="#80a5ee" stroke-miterlimit="10" stroke-width="0.5"/>
            <circle cx="293.666" cy="261.147" r="1.504" transform="translate(-70.567 408.7) rotate(-63.699)" fill="#80a5ee"/>
          </g>
        </g>
      </g>
    </g>
  </g>
</svg>
