<svg xmlns="http://www.w3.org/2000/svg" width="73.637" height="112.888" viewBox="0 0 73.637 112.888">
  <title>アセット 2</title>
  <g id="レイヤー_2" data-name="レイヤー 2">
    <g id="Layer_1" data-name="Layer 1">
      <g>
        <path d="M4.222,47.178A9.64,9.64,0,0,0,.187,57.039l1.668,8.353L4.684,79.558a21.79,21.79,0,0,1,10.19-16.721L70.281,32.16A6.436,6.436,0,0,0,73.637,26.7V0Z" fill="#fff"/>
        <path d="M35.325,71.38A6.391,6.391,0,0,1,32.093,77L13.164,88A9.64,9.64,0,0,0,8.544,98.178l.83,4.258.031-.016,2.073,10.468,1.015-4.294A19.875,19.875,0,0,1,21.687,96.1L52.168,80.423A9.641,9.641,0,0,0,57.4,71.85V50.51l-22.458,12.3Z" fill="#fff"/>
      </g>
    </g>
  </g>
</svg>
