<svg xmlns="http://www.w3.org/2000/svg" width="574.555" height="355.159" viewBox="0 0 574.555 355.159">
  <title>アセット 5</title>
  <g style="isolation: isolate">
    <g id="レイヤー_2" data-name="レイヤー 2">
      <g id="Layer_1" data-name="Layer 1">
        <path d="M145.405,353.3s13.359-11.864,63.838-28.794a846.561,846.561,0,0,1,94.61-25.614c16.648-3.587,43.105-7.448,47.771-7.84a14.872,14.872,0,0,1,6.155.674c1.65.651,10.686,4.6,11.06,6.049.221.854-.1,2.788-2.039,4.673a104.383,104.383,0,0,1-31.424,21.178c-18.236,7.665-53.382,19.665-74.814,22.784-24.05,3.5-72.683,7.587-83.659,8.06A184.147,184.147,0,0,1,145.405,353.3Z" fill="#797c80" stroke="#0b223c" stroke-miterlimit="10" style="mix-blend-mode: luminosity"/>
        <path d="M137.649,351.21s13.227-11.344,64.573-27.719a904.83,904.83,0,0,1,96.489-24.86c17-3.492,44.033-7.278,48.8-7.668a16.3,16.3,0,0,1,6.313.625c1.7.618,11.009,4.365,11.415,5.746.24.815-.059,2.662-2,4.468a104.686,104.686,0,0,1-31.674,20.284c-18.443,7.358-54.032,18.9-75.858,21.965-24.514,3.442-74.281,7.581-85.55,8.091A207.284,207.284,0,0,1,137.649,351.21Z" fill="#213852"/>
        <path d="M210.8,194.608c3.633-1.83,8.667-2.695,11.225-1.481-.124-.059,2.68-6.919,2.066-7.21-3.562-1.69-12.093-1.758-14.333,2.175A9.744,9.744,0,0,0,210.8,194.608Z" fill="#42464d" style="mix-blend-mode: luminosity"/>
        <path d="M312.348,237.073a5.8,5.8,0,0,1,.062,1.959c.506-2.056.638-4.184-.234-5.631-3.78-2.774-10.152-4.262-10.322-4.44.7.738-3.094,6.13-2.066,7.21,0,0,2.958-.59,8.974,3.336C310.5,239.329,311.826,238.619,312.348,237.073Z" fill="#42464d" style="mix-blend-mode: luminosity"/>
        <path d="M310.368,202.441c1.667-17.387,3.424-35.991,3.811-44.881.376-8.637,2.46-46.015,2.46-46.015L318.556,64.7s-7.587-12.294-13.077-18.257L287.6,27.03s-8.024,2.9-21.335,23.357c-1.584,2.434-3.245,5.112-4.987,8.085a208.166,208.166,0,0,0-12.876,25.92,277.027,277.027,0,0,0-12.577,39.623c-2.275,9.066-4.318,17.934-6.8,26.989-1.489,5.422-2.94,12.73-4.329,21.171-7.126,43.306-12.559,116.244-12.559,116.244s48.083-14.2,67.793-25.361c21.236-12.031,24.768-21.9,24.768-21.9S308.674,220.121,310.368,202.441Z" fill="#797c80" stroke="#0b223c" stroke-miterlimit="10" style="mix-blend-mode: luminosity"/>
        <path d="M125.03,119.272c11.578-19.456,74.96-3.1,141.567,36.542s111.216,87.543,99.638,107" fill="none" stroke="#8098e1" stroke-miterlimit="10" stroke-width="0.75" opacity="0.5"/>
        <path d="M121.677,172.062c0-8.01,64.493-14.5,144.049-14.5s144.049,6.493,144.049,14.5" fill="none" stroke="#fff" stroke-miterlimit="10" stroke-width="0.5" opacity="0.5"/>
        <path d="M307.831,201.244c1.685-17.076,3.463-35.346,3.876-44.075.4-8.481,2.578-45.182,2.578-45.182L316.344,66S309.085,53.96,303.82,48.132l-17.146-18.98S278.926,32.03,266,52.176c-1.538,2.4-3.151,5.033-4.844,7.959a208.153,208.153,0,0,0-12.529,25.5,277.75,277.75,0,0,0-12.3,38.953c-2.234,8.91-4.243,17.625-6.681,26.525-1.46,5.329-2.891,12.51-4.268,20.8-7.064,42.544-12.63,114.168-12.63,114.168s46.416-14.151,65.466-25.2c20.525-11.905,23.975-21.61,23.975-21.61S306.118,218.607,307.831,201.244Z" fill="#213852"/>
        <path d="M228.453,298.572c-39.135-11.164-53.429-81.323-31.924-156.7s70.662-127.44,109.8-116.276" fill="none" stroke="#e4522f" stroke-miterlimit="10" stroke-width="0.5"/>
        <path d="M306.327,25.591c39.135,11.164,53.429,81.323,31.924,156.7s-70.662,127.44-109.8,116.276" fill="none" stroke="#e4522f" stroke-miterlimit="10" stroke-width="0.5"/>
        <circle cx="265.727" cy="157.407" r="145.78" fill="none" stroke="#8098e1" stroke-miterlimit="10" stroke-width="0.5"/>
        <circle cx="265.727" cy="157.407" r="150.78" fill="none" stroke="#8098e1" stroke-miterlimit="10" stroke-width="0.5"/>
        <path d="M412.306,172.315c0,8.15-65.626,14.757-146.579,14.757s-146.579-6.607-146.579-14.757" fill="none" stroke="#fff" stroke-miterlimit="10" stroke-width="0.75"/>
        <g>
          <path d="M363.834,101.841c1.164,15.176-18.723,22.011-42.36,18.893C288.606,116.4,233.12,95.687,218.8,69.2" fill="none" stroke="#e4522f" stroke-linecap="round" stroke-linejoin="bevel" stroke-width="3"/>
          <polygon points="215.355 56.96 227.684 71.869 219.432 69.997 213.718 76.236 215.355 56.96" fill="#e4522f"/>
        </g>
        <line x1="219.07" y1="159.9" x2="300.781" y2="214.417" fill="#0b223c" opacity="0.8"/>
        <path d="M366.235,262.814c-11.578,19.456-74.96,3.1-141.567-36.542s-111.216-87.543-99.638-107" fill="none" stroke="#8098e1" stroke-miterlimit="10" stroke-width="0.75"/>
        <g>
          <path d="M190.108,203.607c-8.125-5.879-15.679-11.786-22.566-17.619" fill="none" stroke="#fff" stroke-linecap="round" stroke-linejoin="bevel" stroke-width="3"/>
          <polygon points="200.513 210.904 190.087 194.608 189.347 203.038 181.659 206.571 200.513 210.904" fill="#fff"/>
          <polygon points="158.016 177.577 176.313 183.862 168.296 186.571 166.677 194.876 158.016 177.577" fill="#fff"/>
        </g>
        <g>
          <path d="M208.407,191.366c.459-1.145,1.074-2.272,1.348-3.275A16.314,16.314,0,0,0,208.407,191.366Z" fill="#797c80" style="mix-blend-mode: luminosity"/>
          <path d="M310.528,243.971a15.626,15.626,0,0,0,1.882-4.94A23.182,23.182,0,0,1,310.528,243.971Z" fill="#797c80" style="mix-blend-mode: luminosity"/>
          <path d="M312.348,237.073c-.523,1.546-1.845,2.256-3.586,2.434.358.233.723.478,1.1.745.675.819.721,2.6.663,3.72a23.182,23.182,0,0,0,1.882-4.94A5.8,5.8,0,0,0,312.348,237.073Z" fill="#797c80" style="mix-blend-mode: luminosity"/>
          <path d="M309.865,240.251c-.38-.267-.745-.511-1.1-.745-5.21.531-14.177-3.706-16.734-4.586-14.226-4.895-28.155-10.7-41.9-16.8-11.995-5.325-25.627-10.389-35.665-19.134a16.011,16.011,0,0,1-3.666-4.38,9.744,9.744,0,0,1-1.042-6.516c-.273,1-1.348,3.275-1.9,5.478a22.73,22.73,0,0,0-.461,3.577c-.235,5.88,5.569,9.831,9.926,12.708,14.308,9.447,31.051,15.85,46.831,22.377,12.383,5.123,25.082,10.522,38.151,13.67,3.487.84,6.276,1.791,8.231-1.931C310.586,242.846,310.541,241.07,309.865,240.251Z" fill="#797c80" style="mix-blend-mode: luminosity"/>
        </g>
        <g>
          <line x1="462.228" y1="20.057" x2="343.511" y2="93.861" fill="#0b223c"/>
          <g>
            <line x1="462.228" y1="20.057" x2="344.724" y2="93.106" fill="none" stroke="#8098e1" stroke-miterlimit="10" stroke-width="0.5"/>
            <circle cx="344.788" cy="93.067" r="1.504" transform="translate(2.835 196.064) rotate(-31.868)" fill="#8098e1"/>
          </g>
        </g>
        <rect x="462.228" y="0.25" width="112.077" height="19.807" fill="#0b223c" stroke="#8098e1" stroke-miterlimit="10" stroke-width="0.5"/>
        <g style="mix-blend-mode: luminosity">
          <text transform="translate(467.705 14.21)" font-size="12" fill="#b3bac1" font-family="NotoSansCJKjp-Regular, NotoSansCJKjp Regular-90ms-RKSJ-H" letter-spacing="0.075em">BEST POSITION</text>
        </g>
        <g>
          <line x1="462.228" y1="112.057" x2="343.511" y2="185.861" fill="#0b223c"/>
          <g>
            <line x1="462.228" y1="112.057" x2="344.724" y2="185.106" fill="none" stroke="#8098e1" stroke-miterlimit="10" stroke-width="0.5"/>
            <circle cx="344.788" cy="185.067" r="1.504" transform="translate(-45.738 209.931) rotate(-31.868)" fill="#8098e1"/>
          </g>
        </g>
        <rect x="462.228" y="92.25" width="112.077" height="19.807" fill="#0b223c" stroke="#8098e1" stroke-miterlimit="10" stroke-width="0.5"/>
        <g style="mix-blend-mode: luminosity">
          <text transform="translate(469.605 106.21)" font-size="12" fill="#b3bac1" font-family="NotoSansCJKjp-Regular, NotoSansCJKjp Regular-90ms-RKSJ-H" letter-spacing="0.075em">FLAT POSITION</text>
        </g>
        <g>
          <line x1="112.327" y1="291.235" x2="216.089" y2="224.148" fill="#0b223c"/>
          <g>
            <line x1="112.327" y1="291.235" x2="214.889" y2="224.924" fill="none" stroke="#8098e1" stroke-miterlimit="10" stroke-width="0.5"/>
            <circle cx="214.826" cy="224.965" r="1.504" transform="translate(-87.721 152.684) rotate(-32.884)" fill="#8098e1"/>
          </g>
        </g>
        <rect x="0.25" y="291.235" width="112.077" height="19.807" fill="#0b223c" stroke="#8098e1" stroke-miterlimit="10" stroke-width="0.5"/>
        <g style="mix-blend-mode: luminosity">
          <text transform="translate(5.727 305.195)" font-size="12" fill="#b3bac1" font-family="NotoSansCJKjp-Regular, NotoSansCJKjp Regular-90ms-RKSJ-H" letter-spacing="0.075em">YOUR POSITION</text>
        </g>
      </g>
    </g>
  </g>
</svg>
