<svg xmlns="http://www.w3.org/2000/svg" xmlns:xlink="http://www.w3.org/1999/xlink" width="912.657" height="539" viewBox="0 0 912.657 539">
  <defs>
    <clipPath id="clip-path" transform="translate(-11.806 -4.96)">
      <rect width="942.511" height="544.008" fill="none"/>
    </clipPath>
    <pattern id="_10_dpi_30_" data-name="10 dpi 30%" width="28.8" height="28.801" patternTransform="translate(88.33 11.717) scale(0.275)" patternUnits="userSpaceOnUse" viewBox="0 0 28.8 28.801">
      <rect width="28.8" height="28.801" fill="none"/>
      <g>
        <circle cx="28.8" cy="28.801" r="2.16" fill="#231815"/>
        <circle cx="14.4" cy="28.801" r="2.16" fill="#231815"/>
        <circle cx="28.8" cy="14.4" r="2.16" fill="#231815"/>
        <circle cx="14.4" cy="14.4" r="2.16" fill="#231815"/>
        <circle cx="7.2" cy="21.6" r="2.16" fill="#231815"/>
        <circle cx="21.6" cy="21.6" r="2.16" fill="#231815"/>
        <circle cx="7.2" cy="7.201" r="2.16" fill="#231815"/>
        <circle cx="21.6" cy="7.201" r="2.16" fill="#231815"/>
      </g>
      <g>
        <circle cy="28.801" r="2.16" fill="#231815"/>
        <circle cy="14.4" r="2.16" fill="#231815"/>
      </g>
      <g>
        <circle cx="28.8" cy="0.001" r="2.16" fill="#231815"/>
        <circle cx="14.4" cy="0.001" r="2.16" fill="#231815"/>
      </g>
      <circle cy="0.001" r="2.16" fill="#231815"/>
    </pattern>
    <pattern id="_10_dpi_30_3" data-name="10 dpi 30%" width="28.8" height="28.801" patternTransform="matrix(0.264, 0.018, -0.017, 0.26, 117.281, -30.679)" patternUnits="userSpaceOnUse" viewBox="0 0 28.8 28.801">
      <rect width="28.8" height="28.801" fill="none"/>
      <g>
        <circle cx="28.8" cy="28.801" r="2.16" fill="#231815"/>
        <circle cx="14.4" cy="28.801" r="2.16" fill="#231815"/>
        <circle cx="28.8" cy="14.4" r="2.16" fill="#231815"/>
        <circle cx="14.4" cy="14.4" r="2.16" fill="#231815"/>
        <circle cx="7.2" cy="21.6" r="2.16" fill="#231815"/>
        <circle cx="21.6" cy="21.6" r="2.16" fill="#231815"/>
        <circle cx="7.2" cy="7.201" r="2.16" fill="#231815"/>
        <circle cx="21.6" cy="7.201" r="2.16" fill="#231815"/>
      </g>
      <g>
        <circle cy="28.801" r="2.16" fill="#231815"/>
        <circle cy="14.4" r="2.16" fill="#231815"/>
      </g>
      <g>
        <circle cx="28.8" cy="0.001" r="2.16" fill="#231815"/>
        <circle cx="14.4" cy="0.001" r="2.16" fill="#231815"/>
      </g>
      <circle cy="0.001" r="2.16" fill="#231815"/>
    </pattern>
    <pattern id="_10_dpi_30_7" data-name="10 dpi 30%" width="28.8" height="28.801" patternTransform="translate(95.084 -6.32) scale(0.275)" patternUnits="userSpaceOnUse" viewBox="0 0 28.8 28.801">
      <rect width="28.8" height="28.801" fill="none"/>
      <g>
        <circle cx="28.8" cy="28.801" r="2.16" fill="#231815"/>
        <circle cx="14.4" cy="28.801" r="2.16" fill="#231815"/>
        <circle cx="28.8" cy="14.4" r="2.16" fill="#231815"/>
        <circle cx="14.4" cy="14.4" r="2.16" fill="#231815"/>
        <circle cx="7.2" cy="21.6" r="2.16" fill="#231815"/>
        <circle cx="21.6" cy="21.6" r="2.16" fill="#231815"/>
        <circle cx="7.2" cy="7.201" r="2.16" fill="#231815"/>
        <circle cx="21.6" cy="7.201" r="2.16" fill="#231815"/>
      </g>
      <g>
        <circle cy="28.801" r="2.16" fill="#231815"/>
        <circle cy="14.4" r="2.16" fill="#231815"/>
      </g>
      <g>
        <circle cx="28.8" cy="0.001" r="2.16" fill="#231815"/>
        <circle cx="14.4" cy="0.001" r="2.16" fill="#231815"/>
      </g>
      <circle cy="0.001" r="2.16" fill="#231815"/>
    </pattern>
  </defs>
  <title>アセット 1</title>
  <g id="レイヤー_2" data-name="レイヤー 2">
    <g id="Layer_1" data-name="Layer 1">
      <g clip-path="url(#clip-path)">
        <g>
          <path d="M671.387,153.485l-.169-1.491c-.023.324-.03.648-.044.972C671.248,153.137,671.309,153.314,671.387,153.485Z" transform="translate(-11.806 -4.96)" fill="#213852"/>
          <path d="M674.059,147.343l-2.2-7.12c.043.642.1,1.282.156,1.923Q672.968,144.767,674.059,147.343Z" transform="translate(-11.806 -4.96)" fill="#213852"/>
        </g>
        <g>
          <path d="M268.791,103.473c-1.332-1.583-1.986-5.811-1.863-13.63.044-2.806-3.73-9.5-4.654-13.188-.848-3.382-2.26-5.222-5.009-5.6a7.6,7.6,0,0,0-4.015.262,2.909,2.909,0,0,0-2.788-.5c-.9.476-1.526,1.693-2.679,3.075a2.974,2.974,0,0,0-3.628,1.889,12.557,12.557,0,0,1-.788,2.359c-.476.674-1.314.724-1.884,1.293a4.584,4.584,0,0,0-.837,3.193,2.21,2.21,0,0,0,.527,1.708c.436.659-1.306,1.371-1.063,2.935.157,1.013,5.708,9.415,8.31,11.16,2.235,1.5,7.34,6.945,7.457,7.477s2.246,4.1,2.676,5.033c2.738,5.964,11.133,32.947,16.264,40.279,3.646,5.209,9.638,18.328,13.186,21.968,1.885,2.829.916,2.134,5.012,6.119,8.242,8.02,23.436,19.524,45.587,40.084-3.991,9.211,1.36,16.843,6.217,28.288,3.272,7.713,3.585,15.17,4.739,23.385.831,5.914.24,11.931-.351,17.891-.98,9.879-14.483,54.785-18.326,68.119-9.353,32.457-25.151,205.9-21.031,206.433,14.651,1.9,105.145,3.747,120.111,2.591,3.191-.247,74.082-10.424,76.748-12.09,6.528-4.08-40.862-211.819-76.719-250.964-7.666-8.369-8.2-20.651-8.993-25.2s-.138-18.584,1.225-29.88c.525-4.351,1.648-9.439,2.358-12.866s2.366-11.628,3.562-13.424c5.12-7.689,48.17-51.464,54.676-61.3.816-1.233.954-5.041.266-5.836a176.96,176.96,0,0,0-4.128-24.066c-1.749-6.119-12.121-43.837-12.819-45.377-.873-1.927-.942-5.45-1.556-6.62-.791-1.507-7.152-17.464-9.59-18.775-1.933-1.04-14.693-.511-15.322,2.447-1.7.548-1.548,4.463-1.97,5.9-.364,1.24.586,5.191.634,6.48.088,2.352,7.974,6.882,9.5,8.085,1.406,1.107,3.581,3.127,5.365,3.322.772,1.347,4.391,37.211,4.7,42.062.3,4.671,1.31,11.142,4.446,24.829-5.219,5.26-22.789,27.228-36.448,36.085-.141.092.321,1.868.191,1.941a32.685,32.685,0,0,1-1.816-4.64,26,26,0,0,1-.732-2.844,9.8,9.8,0,0,0,.239-3.982q-.2-2.561-.406-5.123,1.2,2.013,2.227,4.121a31.651,31.651,0,0,0-8.055-19.048c-1.709-3.949-3.665-7.813-5.61-11.642-2.347-4.618-2.532-9.549-4.117-14.481-2.211-6.88-2.907-13.377-6.9-16.985-2-1.8-6.959-6.222-9.543-6.942-1.7-2.124-5.251-2.631-8.192-2.616-8.189.044-11.168,3.779-14.574,4.837-3.205.222-6.961,6.514-9.2,8.275-1.9,1.5-4.839,3.089-4.828,5.861a3.809,3.809,0,0,1,3.56-2.672c-.626,2.728-4.3,4.022-4.663,6.8l2.538-1.326c-.262.578-.51,1.174-.725,1.781a17.991,17.991,0,0,0-1.313,2.591c-.369.98-.5,4.878.091,3.843.5-.875.357,1.468.008,3.57-.64,3.851.095,3.117-1.046,6.848a44.326,44.326,0,0,0-1.079,5.415c-1.595,5.353-5.021,8.614-9.333,11.64a24.128,24.128,0,0,0-3.176,2.419c-1.983,1.955-3.617,5.4-2.818,7.316.459-1.427,1.185-1.446,2.2-2.608a12.617,12.617,0,0,0-1.4,3.846c1.145-1.465,2.26-2.1,4.081-1.721a9.4,9.4,0,0,0-5.474,9.462A8.177,8.177,0,0,1,340,177.845a15.548,15.548,0,0,0-3.169,9.351,8.179,8.179,0,0,1,4.309-4.766,10.9,10.9,0,0,1-.7,3.438c-2.392,3.084,1.3,1.864-.76,4.75-.406.568.238-.914,0,0-12.941-10.8-23.2-20.45-28-25.652-5.569-4.5-9.75-10.6-15.93-19.984C288.692,134.258,270.122,105.056,268.791,103.473Z" transform="translate(-11.806 -4.96)" fill="#162d49" stroke="#7e94db" stroke-miterlimit="10" stroke-width="0.3"/>
          <g>
            <path d="M228.034,142.167l.557,1.321C228.43,143.036,228.239,142.6,228.034,142.167Z" transform="translate(-11.806 -4.96)" fill="#162d49" stroke="#7e94db" stroke-miterlimit="10" stroke-width="0.3"/>
            <g>
              <path d="M924.215,378.217c-.85-8.179-7.649-43.86-8.11-50.359,1.219-4.423,3.828-16.492,2.04-18.146-1.071-.991-6.528-8.4-8.288-5.94-.534-.15-1.772.658-3-.058-.634-.368-1.524.153-2.317.282a4.345,4.345,0,0,0-1.915,1.187c-1.294,1.4-3.362-.366-4.515,1.5-1.461,2.367-1.959,5.845-2.745,8.627-.537,1.9.191,1.484.926,3.312.32.8,1.081-.106,1.543,1.033.68,1.677.261,4.714.711,5.74,1.129,2.574,5.492,6.48,5.808,8.623,1.107,7.531.61,22.487,2.032,28.409-3.966-5.821-11.738-22.423-14.048-28.018-1.784-4.319-1.848-13.31-4.741-17.1-4.152-5.434-10.225-7.02-11.113-8.052-.743-.863.053-.5-1.82-2.027.429-1.412,1.182-2.167,1.56-3.46.248-.848-7.637-6.091-7.866-5.474a11.859,11.859,0,0,1-1.158,2.216c-2.815-2.5-9.488-6.17-9.116-12.005a59.365,59.365,0,0,0,.32-6.323,3.933,3.933,0,0,1-.085-2.337c.092-.477.219-.943.345-1.409a6.975,6.975,0,0,0,4.427-1.078,17.228,17.228,0,0,0,4.925-4.032c.666-.938,1.386-1.845,2.108-2.75a27.312,27.312,0,0,0,4.431-6.84c1.04-2.65,1.234-5.594,2.431-8.177a18.582,18.582,0,0,0,1.43-3.182,28.863,28.863,0,0,0,.322-3.416,13.922,13.922,0,0,1,.617-2.5A6.243,6.243,0,0,0,882.895,245c1.278-1.249,1.523-3.189,1.635-4.973a47.1,47.1,0,0,0-.309-7.853c-.053-.815-1.258-1.367-1.565-2.124-.428-1.055.152-4.558-.738-5.268-3.639-2.906-6.459-4.451-10.243-3.51-.588-.364-.291-1.41-.911-1.746l-1.355.984c-.349-4.109,1.9-10.727-7.677-14.045-1.088-.377-20.456,2.691-21.6,2.828-1.553.187-4.131,4.768-5.352,5.756-4.754,3.846-9.409,2.165-9.3,8.3a49.958,49.958,0,0,1,.3,5.218c-.151,1.738-1.077,3.593-2.744,4.072-1.094.314-2.35-.006-3.341.559-2.649,1.512.041,6.5-2.331,8.425-1.284,1.041-3.363.479-4.633,1.537-1.074.9-1.36,2.786-2.729,3.049a2.759,2.759,0,0,1-1.585-.322c-2.153-.938-4.876-2.1-6.6-.5-1.264,1.172-1.138,3.319-.19,4.759a11,11,0,0,0,3.991,3.191c.106-.747.915.859-.428,1.6a5.8,5.8,0,0,1-4.466.016,12.408,12.408,0,0,0-4.458-.957,5.07,5.07,0,0,0-4.348,5.952c.217.93.608,2.138-.187,2.662a1.83,1.83,0,0,1-1.138.181,26.372,26.372,0,0,0-5.59-.127,5.782,5.782,0,0,0-4.511,2.953,5.474,5.474,0,0,0-.449,2.041c-1.7-2.011-4.706-3.746-6.208-5.886-.524-.746,2.764-6.6,5.19-13.225,4.466-13.065,7.446-28.318,9.527-36.615,1.224-4.882,4.4-12.617,5.533-13.759a9,9,0,0,0,5.355-.652c1.754-.873,2.734-1.009,3.916-2.517s2.624-4.436,3.806-5.944c.854-1.09,3.686-1.695,3.691-3.072.005-1.6,1.358-9.169-.069-10.156.234-3.226-16.759-2.968-18.815-3.663-5.473-1.85-10.942,14.15-12.1,15.519-.895,1.064-1.173,7.119-2.558,8.814-.217.266-.643,3.247-1.368,5.151a1.392,1.392,0,0,0-.482.451c-2.507,4.188-29.2,56.667-27.96,67.062,1.483,12.441,44.739,39.937,45.983,45.9.627,3,1.566,14.942,4.082,19.2.587,5.165,1.24,9.1,1.69,12.492-1.33,7.166-1.974,14.479-2.653,21.793-1.463,3.864-3.507,8.48-6.33,14.34-39.338,24.042-49.2,84.04-50.472,91.392-.164.947-11.189.148,19.727,15.755,1.655.836-3.83,35.6-4.159,37.965-1.268,9.1.124,7.4-4.418,17.04-2.874,6.1-7.046,19.093-9.287,25.62-1.62,4.721-3.159,9.476-4.875,14.159l32.307-6.255c.008-.008,8.547-22.384,8.552-22.394C787.721,537.995,794,524.006,799,505.746c0,0,3.074.857,3.122,1.54.394,5.51-3.575,23.2-4.362,28.665-3.031,21.057-5.968,34.361-10.318,55.141l31.958-4.943c1.731-6.287,15.754-73.727,16.118-73.716,5.813.169-.973-.067,4.544-.171,3.943-.075,23.813-84.638,16.136-100.044.478-10.24,2.815-10.882,3.294-21.122.289-6.177,4.6-21.578,6.216-27.545,2.246-8.288,2.993-10.453,3.64-9.934,2.521,2.025,6.221,2.854,7.79,5.542,6.139,10.519,14.38,17.907,21.668,26.225a54.185,54.185,0,0,0,8.785,7.323c2.391,1.5,4.044,3.914,8.049,2.668,2.605-.811,4.712-.137,5.2-3.147C921.205,389.984,924.965,385.433,924.215,378.217Z" transform="translate(-11.806 -4.96)" fill="#162d49" stroke="#7e94db" stroke-miterlimit="10" stroke-width="0.3"/>
              <path d="M744.6,168.007a76.727,76.727,0,0,0,3.422-7.069c3.5-9.525,9.391-16.323,15.32-24.488,5.953-8.2,10.531-17.149,15.055-26.047q6.5-12.779,12.927-25.587c1.824-3.634,4.687-7.658,5.557-11.581.752-3.388.312-9.771.638-13.176.056-.588-.225-1.939-.717-2.062-3.834-.952-2.219-4.763-6.2-4.359a6.772,6.772,0,0,1-2.506-1.292c-.983-1.592-1.824-2.388-3.808-1.773a2.242,2.242,0,0,1-2.32-.621,4.09,4.09,0,0,0-5.768-.128c-2.68,2.4-6.1,3.088-6.885,6.87-.647,3.114,1.06,9.261,1.486,12.076.522,3.447,1.134,6.884,1.784,10.313a5.2,5.2,0,0,1-.462,3.692c-1.9,3.382-3.684,6.817-5.689,10.144a148.817,148.817,0,0,1-36.932,40.973c-4.435,3.408-5.945,10.2-13.842,9.6-4.012-.307-6.9,4.169-10.45,6.1-7.091,3.861-17.385,6.491-20.42,14.207-.468,1.19-.846,2.54-2,3.244a5.891,5.891,0,0,1-2.678.615c-7.119.491-14.249,1.128-21.382,1.609a29.382,29.382,0,0,0-4.664.566c-3.677.853-3.576.962-4.6-2.706a4.2,4.2,0,0,1,1.189-4.412,30.341,30.341,0,0,0,6.789-9.517,6.313,6.313,0,0,0,5.665-3.765c.594-1.145,1.234-2.271,1.775-3.436,1.026-2.207,1.154-4.313-1.218-5.925.5-2.326,1-4.488,1.423-6.662a19.04,19.04,0,0,0,.357-3.155,1.03,1.03,0,0,1,.743-.135,1.571,1.571,0,0,1,.748.449,5.466,5.466,0,0,1,1.763,3.744,31.667,31.667,0,0,1,.211-6.11,22.107,22.107,0,0,1-1.378-7.114,28.817,28.817,0,0,1,3.717,6.449,97.351,97.351,0,0,1-.577-9.883q-.736-2.46-1.344-4.945l.812,1.3a21.621,21.621,0,0,0-3.245-4.694l-2-4.591a4.9,4.9,0,0,1,2,1.577,15.859,15.859,0,0,0-9.6-7.359,6.3,6.3,0,0,0,2.214,2.632c-.47-.326-1.748-.423-2.378-.726a21.605,21.605,0,0,1-2.42-1.566,26.582,26.582,0,0,0-3.951-2.451c-4.1-1.746-10.1-1.669-14.528-1.206a13.489,13.489,0,0,1,4.745.618c-3.365.241-11.785,1.876-11.37,2.436a10.223,10.223,0,0,1,4.471.369q-6.345,1.457-12.583,3.224a4.527,4.527,0,0,0,2.583.764,30.569,30.569,0,0,1-7.443,3.707,2.769,2.769,0,0,0,3.467.832c-1.083,1.262-3.155,1.741-4.135,3.061a5.084,5.084,0,0,0-.725,3.032q-.092,3.989-.184,7.978a8.163,8.163,0,0,1,3.33-6.613c.506,2.01-1.071,3.911-2.179,5.742-1.01,1.67-1.478,4-.028,5.273-.131,1-.242,2.017-.382,3.149-3.087.214-4.2,2.078-4.649,4.408-.748,3.908-.823,7.665,3.514,10.1a3.605,3.605,0,0,1,1.88,4.088c-.427,2.935-.211,6.058-3.816,7.8-.964.466-1.566,1.67-2.166,2.623-1.186,1.883-2.031,3.789-3.715,5.319-3.662-2.7-5.321-7.061-9.153-9.623s-8.184-3.551-10.563-7.687c-1.543-2.682-1.7-5.83-2.7-8.718-1.967-5.684-7.049-10.039-9.652-15.506-3.383-7.106-.536-14.99-3.764-21.873-2.455-5.232-2.9-.422-4.343-6.2-1.269-5.092-2.685-10.155-3.949-15.248-1.109-4.471-2.505-8.928-3.035-13.463-.863-7.393-1.032-14.851-1.687-22.267a9.2,9.2,0,0,1,2.534-7.444c3.868-4.3,8.849-11.228,9.932-16.8.318-1.633-1.23-10.522-3.549-10.453-3.06,1.031-4.741-.083-7.839.83-.86.254-1.832-1.39-2.885-1.437-1.1-.05-3.492,1.024-4.148,1.269-.146.431-1.781-.475-2.185-.529s-1.557,1.26-2.527,1.009c-1.269-.328-3.317,1.4-3.527,2.012-1.459,4.206-3.529,8.26-3.724,12.79-.176,4.1-1.059,8.191-.058,12.306a9.041,9.041,0,0,1-.009,2.369c-.192,6.176-.353,12.353-.593,18.527-.363,9.334-.731,18.669-1.2,28-.38,7.587-.469,6.417-1.256,13.725-.208,1.933-.926,3.787-1.316,5.7-.9,4.415-.027,8.954.942,13.356a318.815,318.815,0,0,0,10.068,35.682c3.525,10.19,9.378,20.364,11.373,30.906,1.771,9.362-.037,19.311-.812,28.706q-1.246,15.115-3.28,30.165c-3.056,22.614-8.6,45.07-11.551,67.6-.514,3.922.87,6.737,4.85,8.568,2.305,1.061,4.39,2.518,6.783,3.919.038,1.4,1.739,2.505,1.767,3.316.057,1.656-1.683,4.064-2.316,5.609-5.761,14.055-6.748,21.578-12.7,35.376a87.728,87.728,0,0,0-4.684,15.94c-2.924,13.255-13.6,55.552-14.075,57.567-1.8,7.61-3,18.067-4.829,25.658-1.563,6.5-13.171,46.835-19.925,86.992l87.43.826s8.635-90.455,12.032-100.4c5.611-16.42,8.332-24.394,10.314-32.963.8-3.46,2.112-3.087,2.112-3.087s10.858,50.573,11.282,60.029c.1,2.21,1.444,8.242,1.393,15.694-.168,24.431-2.275,67.273-2.275,67.273l74.2.066a196.648,196.648,0,0,0-4.329-88.138c-1.275-4.9-3.092-23.785-4.875-37.049-2.318-17.245-7.755-35.623-7.922-47.429q-.064-4.534-.129-9.069c-.2-13.98-.2-28.305-3.443-42.047-.062-.263.165-.582.3-1.006l3.325-1.176c2.528-7.572,1.473-13.6,1.049-21.214-.411-7.38,1.106-14.715,1.9-22.032,1.6-14.792.335-29.716,2.168-44.493,1.432-11.552,5.105-22.376,9.318-33.306a7.5,7.5,0,0,1,.8-1.225c2.946-4.575,1.059-.126,5.753-3.069,5.875-3.683,1.387-10.415,7.262-14.1,7.034-4.41,14.138-8.875,19.872-14.639,2.364-2.376,4.6-3.388,7.554-5.135C736.541,174.016,742.343,172.531,744.6,168.007Z" transform="translate(-11.806 -4.96)" fill="#162d49" stroke="#7e94db" stroke-miterlimit="10" stroke-width="0.3"/>
              <path d="M266.075,365.861c1.139-5.941,3.559-11.622,6.228-17.241,1.822-3.835,3.749-7.658,5.934-11.36,5.07-8.591,8.01-21.32,8.49-30.709a61.9,61.9,0,0,0-.5-10.678c-1.422-11.645-3.831-22.824-5.382-34.409q-.34-2.536-.679-5.072c-.621-4.635-1.242-9.272-1.746-13.933-.467-4.317-.841-8.693-2.16-12.745-1.829-5.62-5.4-10.379-9.429-14.572-5.837-6.081-10.521-7.205-17.609-10.293-5.075-2.211-10.857-3-15.869-5.342a18.536,18.536,0,0,0-4.09-1.043c-1.69-.342-3.407-.613-5.121-.883a4.609,4.609,0,0,1-4.178-4.145c-.608-4.286-1.64-8.451.129-13.167,1.1-2.942.739-6.855,1.172-9.965.162-.237,2.162-.34,2.417-.512,1.678-1.126,1.665-1.634,2.385-3.113.49-.852.406-2.121.71-3.025a13.921,13.921,0,0,0,.394-8.813,3.215,3.215,0,0,0-1.778-2.164,2.473,2.473,0,0,0-2.316.49,2.61,2.61,0,0,0-.893,1.6c-.013,0-.026,0-.038-.01-.145-1.654-.232-4.819-.215-6.489a12.353,12.353,0,0,0-.784-4.492c.235.361.449.736.65,1.119l-2.149-4.561c-.432-.916,4.785-.4,4.119-1.184-3.7.255-7.214-2.492-8.756-3.364a7.835,7.835,0,0,0-1.226-.518,26.459,26.459,0,0,0-6.343-3.644c-.937-.327,4.491-.158,3.484-.636-2.824-1.34-7.324-.8-8-.789-.817.017-3.278,1.289-4.022,1.09-2.307-.617-4.536-1.529-7.12-1.091-.877.149-6.051,1.274-7.005,1.607-1.02.357-8.487,4.925-9.933,5.314,1.973.483,3.339.1,3.709,1.139-2.079.823-4.374,3.814-6.072,6.2-1.362,1.916-2.359,2.68-3,5.4.763-1.4,4.6-1.924,6.677-2.511l-.717,1.136c-3.793,3.613-7.479,7.751-8.37,12.42,1.022-1.512,1.733-3.07,3.321-3.716l-1.623,5.623a27.721,27.721,0,0,1,1.206,5.791,13.446,13.446,0,0,1,1.26-6.06,33.636,33.636,0,0,0,2.214,4.28c-.015,0-.029,0-.043,0a2.567,2.567,0,0,0-1.921.93,3.1,3.1,0,0,0-.325,2.476c.756,3.963,2.287,7.568,5.558,9.754a8.7,8.7,0,0,0,3.392,1.316,4.379,4.379,0,0,0,1.186,1.087c1.564,4.161,1.825,6.326,3.263,9.535a33.028,33.028,0,0,1,2.356,5.88l-4.39,2.724a11.485,11.485,0,0,0-2.428-2.188c-1.05-.536-2.457-.522-3.606-.941a6.745,6.745,0,0,1-2.252-1.423,25.038,25.038,0,0,0-8.611-5,23.353,23.353,0,0,1-3.165-1.7c-.261-.146-.458-.517-.716-.511-3.239.079-5.483-1.817-8.213-2.737-11.131-3.748-18.209-15.989-25.907-24.181a37.1,37.1,0,0,1-4.155-4.975c-1.337-2.044-2.268-4.344-3.431-6.5l-.5.689c-5.441-7.753-18.591-22.023-24.026-24.633-6.347-3.048-16.742-16.869-21.213-19.532s-4.7-3.951-4.7-3.951S61.519,77.74,58.642,76.788c-1.5-.5-7.857.545-10.892,1.31s-8.149,5.448-9.1,6.619,1.009,3.245.868,4.142-1.1,1.662-1.536,2.733,1.5,1.563.173,3.153-1.247,1.749-.562,3.992,3.893,3.29,6.343,3.682,1.192,2.144,6.708,5.562c3.43,2.125,4.552.345,9.93,5.2s7.129,6.3,10.475,10.729,5.892,12.825,8.717,19.463,9.547,17.805,14.724,23.283c0,0,5.529,8.4,8.422,10.947a3.871,3.871,0,0,0,1.693.79c2.756,4.057,4.984,8.508,7.626,12.659,9.184,14.426,23.7,24.822,33.772,38.725a12.2,12.2,0,0,1,1.924,3.954c4.713,17.746,5.146,37.892,7.432,56.355l2.435,19.668c-3.19,1.464-6.9,3.189-11.014,4.641a56.462,56.462,0,0,1-10.194,2.248c-3.347.5-6.824.539-9.3,2.209-2.254,1.52-5.523,1.471-7.424,1.986-.014-.107-.033-.217-.044-.322-.209-2.031-.334-4.069-.5-6.1a13.292,13.292,0,0,0,4.569-8.738c.035-.25.069-.489.1-.736a2.365,2.365,0,0,0,2.112.231,3.569,3.569,0,0,0,1.536-1.387,15.034,15.034,0,0,0,1.4-2.919c.464-1.174.927-2.348,1.331-3.544a11.648,11.648,0,0,0,.714-6.276,1.948,1.948,0,0,0-.824-1.346,1.649,1.649,0,0,0-.754-.161,6.636,6.636,0,0,0-.262-1.5c.744,1.364,2.854,2.3,5.592,2.1a8.237,8.237,0,0,1-4.252-4.1c-.628-1.222-.83-.833-1.053-1.893-.107-.509,4.2.709,3.731.5a9.133,9.133,0,0,1-4.459-5.313c-.051-1.454-1.627-5.136-2.316-6.387a28.876,28.876,0,0,0-9.69-9.582c-4.74-2.67-5.386-2.465-10.84-2.394-8.268.107-18.315,4.2-22.735,11.572.5-1.094-4.474,7.98-7.893,8.149.529.892,5.537.092,6.186-1.019-1.706,3.744-3.7,9.133-5.568,13.85.409-1,5.433-6.283,5.416-7.767.039,1.457-.52,6.432.089,8.136,1.371-2.134,1.932-3.256,2-1.082.015.489.688,1.327,2.7,4.039a29.068,29.068,0,0,1,.715,3.1,33.141,33.141,0,0,0,1.948,7.5,18.519,18.519,0,0,0,2.123,3.905c.617.853,4.094,2.8,6.7,6.52.214,2.42.245,4.861.286,7.3a2.1,2.1,0,0,0-1.312,1.782c-3.521,1.356-8.453,3.447-11.805,2.92-3.581-.564-24.57-5.791-27.773-7.5a11.849,11.849,0,0,0-2.325,2.753c-5.71-2.429-10.431-4.451-10.81-4.658-2.292-1.252-3.317-7.007-5.875-12.726C35.453,302,28.482,282.05,27.51,279.617c2.094-2.618,3.719-1.713,4.945-7.8.7-3.5,1.486-5.672.5-8.72s.43-5.929-1.824-6.739c-2.775-.338-3.37,3.08-3.089,3.889A2.619,2.619,0,0,0,25.7,258.3c-1.359.278-2.1.417-2.1.417a10.16,10.16,0,0,0-2.126.012,2.876,2.876,0,0,0-2.489,2.3c-.127.741-.7-.536-2.268.419a10.656,10.656,0,0,0-1.825,2.688,4.2,4.2,0,0,0-1.913.9c-1.1.855-.852,1.643-1,3.134a6.181,6.181,0,0,0,.763,3.173c1.257,3.042,3.225,9.452,4.477,10.232.711.443,2.031,13.317,2.726,18.074s2.455,15.217,3.807,20.566c1.142,4.515,1.733,9.669,4.935,12.654,2.063,1.923,3.073,3.626,12.592,8.2,1.9.915,4.047,1.991,6.188,3.078-1,4.048-1.544,7.181-1.388,7.437,3.492,5.724,28.483,11.246,28.392,11.818-.933,5.831,4.886,16.052,5.063,19.737.1,2.023-.478,21.475,1.969,32.5,4.327,19.5-4.667,43.549-2.494,47.738a42.167,42.167,0,0,0,10.978,1.007,66.669,66.669,0,0,1-1.015,11.793c-.591,3.023-4.162,24.037-4.641,27.08-.676,4.289,1.115,47.069.454,51.361-2.44,15.852,14.558,12.455,38.725,5.519,5.06-7.673-.061-42.364,7.113-62.508.743,1.668,15.815,55.7,15.792,57.532,4.236-1.145,12.612-1.768,21.786-2.4.265.368.491.669.668.888l59.848-2.615-17.094-83.986,6.349-39.038c7.032,23.412,8.438,23.72,11.247,42.326s21.639,85.59,21.639,85.59l80.7-6.681c.437-.786-39.092-126.069-47.537-145.754C276.047,384.913,265.945,366.54,266.075,365.861ZM173.593,166.826c.089-.407.192-.813.288-1.219.076.4.154.815.232,1.247A4.514,4.514,0,0,0,173.593,166.826ZM153.239,352.177c1.664-.479,2.337-5.723,5.3-8.965a13.249,13.249,0,0,1,1.936-1.656c.086,15.454-.709,35.719-.709,44.832a20.758,20.758,0,0,1-.328,3.039C156.109,374.985,151.86,352.574,153.239,352.177Zm100.472-13.154a41.977,41.977,0,0,1-.489-5.4c-.019-8.337-6.637-17.591-8.118-25.64-.346-1.882,5-25.154,5.167-31.543.105-4.116,2.491,9.159,3.333,12.719,1.162,4.914,3.3,12.38,4.711,17.65C260.574,315.265,255.729,326.858,253.711,339.023Z" transform="translate(-11.806 -4.96)" fill="#162d49" stroke="#7e94db" stroke-miterlimit="10" stroke-width="0.3"/>
            </g>
          </g>
        </g>
        <g>
          <path d="M227.952,421.153c-3.671,19.449-20.564,77.911-27.3,96.522-6.577,18.174-11.008,19.1-11.7,41.924-.487,16.087,4.136,33.308,0,44.849,22.172,1.222,31.647,7.215,52.649,0,1.488-.511,16.465,1.139,17.55,0,1.261-1.325,1.526-10.9,1.95-12.675,1.742-7.316,1.95-15.87,1.95-26.324,0-13.65,1.36-23.948,5.362-35.1a160.513,160.513,0,0,1,12.675-26.812c4.387,23.4,9.8,42,16.087,67.761.343,1.406,2.733,11.331,3.9,12.187,1.062.779,3.557,19.5,4.875,19.5,20.279,0,61.509,13.062,68.248-5.362-1.023-8.016.122-11.647-.975-19.012-1.463-9.819-8.244-30.86-9.75-39.974-1.219-7.375-5.231-17.143-6.418-24.361-4.42-26.881-8.431-53.621-10.644-87.273" transform="translate(-11.806 -4.96)" fill="#fff" stroke="#000" stroke-miterlimit="10" stroke-width="0.5"/>
          <path d="M349.8,317.563s.139.177.4.5c2.494,3.139,20.944,28.384,29.928,34.93,9.921,7.228,17.955.654,18.641-2.62s8.229-12.9,1.3-24.2-23.523-25.679-31.4-35.117-20.847-14.213-21.658-14.182-17.62,21.994-17.62,21.994" transform="translate(-11.806 -4.96)" fill="#fff" stroke="#000" stroke-miterlimit="10" stroke-width="0.5"/>
          <path d="M210.453,313.783s-.132.183-.379.52c-2.37,3.233-19.831,29.173-28.556,36.061-9.634,7.606-17.917,1.347-18.728-1.9s-8.721-12.575-2.231-24.136,22.513-26.57,30.018-36.305,20.282-15.009,21.094-15.009,18.457,21.3,18.457,21.3" transform="translate(-11.806 -4.96)" fill="#fff" stroke="#000" stroke-miterlimit="10" stroke-width="0.5"/>
          <path d="M356.649,460.152c.61-9.155-3.015-36.744-3.069-37.156-1.354-10.326-7.323-56.615-7.676-64.92-.251-5.894-2.273-11.573-2.916-17.437-.877-7.992-1.828-12.524,1.959-19.043.279-.48,3.659,3.023,3.9,3.522,2.29,4.7,4.607,6.874,7.772,11a.683.683,0,0,0,1.1-.012c1.527-2.178,5.324-4.858,7.457-5.271,2.415-.468,14.863-5.238,19-8.164,3.054-2.161,5.533-7.173,8.523-9.651a.7.7,0,0,0,.1-1c-1.844-2.231-5.2-3.265-6.178-6-.435-1.213-11.5-12.858-14.456-19.322-1.053-2.3-4.8-11-6.448-12.589-5.509-5.3-11.853-11.99-18.495-15.775-9.022-5.141-18.933-4.411-28.355-8.775-4.557-2.11-8.531-1.219-12.268-2.275-4.077-1.152-8.511-.783-12.675,0-9.645,1.814-14.664-2.221-24.02.4-4.83,1.355-3.927-1.628-14.411.9-2.3.555-29.83,6.446-32.093,7.15-4.461,1.387-7.63.412-10.987,3.662-10.8,10.453-26.912,28.542-40.191,35.577-.637.338.707,10.389.713,11.11,0,.457,4.289,6.055,4.578,6.409,6.731,8.236,24.818,17.645,25.864,17.4,1.462-.349,13.262-6.114,15.8-7.693,8.66-5.391,7.744-1.314,7.993,1.663.663,7.937-3.073,16.653-3.022,24.617a160.57,160.57,0,0,1-2.713,30.271c-8.5,41.574-12.506,73.454-10.058,72.632,0,0,30.08,12.78,55.574,9.75C293,458.031,340.876,455.129,356.649,460.152Z" transform="translate(-11.806 -4.96)" stroke="#000" stroke-miterlimit="10" stroke-width="0.5"/>
          <path d="M302.888,233.2c.386-.014,2.928,10.122,2.992,10.5,1.831,10.987,1.847,11.336,2.747,18.311.115.889,3.662,12.36,1.373,15.107-5.977,7.173-9.155,5.951-14.649,8.24-.43.179-17.4,2.289-22.431-3.2-3.288-3.587-7.431-12.61-7.172-15.717.037-.44-1.509-27.755-1.068-27.772Z" transform="translate(-11.806 -4.96)" fill="#fff" stroke="#000" stroke-miterlimit="10" stroke-width="0.5"/>
          <path d="M311.313,262.72c.064.895,1.057,11.9-1.231,14.643-5.977,7.173-9.155,5.951-14.649,8.24-.43.179-16.292,1.6-22.469-2.571-3.25-2.194-6.662-3.575-8.66-8.416-.881-2.136-3.771-21.4,2.729-24S310.338,249.071,311.313,262.72Z" transform="translate(-11.806 -4.96)" fill="#fff"/>
          <path d="M302.888,233.2c.386-.014,2.928,10.122,2.992,10.5,1.831,10.987,1.847,11.336,2.747,18.311" transform="translate(-11.806 -4.96)" fill="#fff" stroke="#000" stroke-miterlimit="10" stroke-width="0.5"/>
          <path d="M264.68,238.666c1.174,9.28-.592,19.055,2.027,28.035" transform="translate(-11.806 -4.96)" fill="none" stroke="#000" stroke-miterlimit="10" stroke-width="0.5"/>
          <path d="M307.388,211.649a4.864,4.864,0,0,1,5.014-3.265,2.168,2.168,0,0,1,1.516.712,2.622,2.622,0,0,1,.4,1,23.377,23.377,0,0,1-1.142,14.482c-.654,1.56-1.7,3.212-3.362,3.508a2.971,2.971,0,0,1-3.329-2.436" transform="translate(-11.806 -4.96)" fill="#fff" stroke="#000" stroke-miterlimit="10" stroke-width="0.5"/>
          <path d="M258.481,208.277a8.087,8.087,0,0,0-2.263-1.476,3.123,3.123,0,0,0-2.176-.266c-1.233.4-1.711,1.876-1.917,3.157a26.554,26.554,0,0,0,.307,10.025,7.819,7.819,0,0,0,2.434,4.642,3.733,3.733,0,0,0,1.731.79c2.613.413,4.233-2.013,5.34-4.164" transform="translate(-11.806 -4.96)" fill="#fff" stroke="#000" stroke-miterlimit="10" stroke-width="0.5"/>
          <g>
            <path d="M385.488,259.6l-22.4-.962a2.239,2.239,0,0,1-2.035-2.811l9.322-50.635a3.132,3.132,0,0,1,3.03-2.594l22.4.962c1.4.06,4.341,1.862,4.066,3.354l-9.322,50.635C390.274,259.045,386.886,259.663,385.488,259.6Z" transform="translate(-11.806 -4.96)" fill="#fff" stroke="#000" stroke-miterlimit="10" stroke-width="0.5"/>
            <path d="M387.588,261.406l-22.4-.962a2.239,2.239,0,0,1-2.035-2.811L372.478,207a3.132,3.132,0,0,1,3.03-2.594l22.4.962a2.239,2.239,0,0,1,2.035,2.811l-9.322,50.635A3.132,3.132,0,0,1,387.588,261.406Z" transform="translate(-11.806 -4.96)" fill="#fff" stroke="#000" stroke-miterlimit="10" stroke-width="0.5"/>
            <path d="M378.9,210.054a2.306,2.306,0,0,1-2.231,1.909,1.648,1.648,0,0,1-1.5-2.069,2.306,2.306,0,0,1,2.231-1.909A1.648,1.648,0,0,1,378.9,210.054Z" transform="translate(-11.806 -4.96)"/>
            <path d="M382.627,210.214a1.258,1.258,0,0,1-1.217,1.041.9.9,0,0,1-.817-1.129,1.258,1.258,0,0,1,1.217-1.041A.9.9,0,0,1,382.627,210.214Z" transform="translate(-11.806 -4.96)"/>
          </g>
          <path d="M401.823,348.03c2.588-6.838,4.19-6.766,1.58-20.569s-5.776-19.741-8.078-27.958-7.894-26.79-8.451-29.146,5.037-8.2,5.2-14.625c.159-6.278,3.5-11.2,5.525-16.412.93-2.387.544-5.461,1.3-7.637,2.178-6.273,1.158-8.722-.935-8.13-2.314.655-3.6,2.19-4.427,5.2-1.4,5.109.484,4.855-1.137,8.775-1.007,2.435-8.291-10.056-15.275-10.522a29.333,29.333,0,0,0-10.017,1.789c-1.985.721-4.47,4.032-2.335,5.454a.237.237,0,0,1-.05.42,4.046,4.046,0,0,0-2.1,5.255c.7,1.944,1.011,1.8,1.011,1.8s-4.18,1.515-3.4,4.453c.345,1.291-.36,4.7-.76,4.93-.61.353-1.349,2.981-.634,6.125,1.429,6.289,2.519-.853,7.394,11.822,2,5.208.778,9.653,2.02,11.75s-.4,24.812,1.1,37.18c1.293,10.68,2.124,22.462,6.865,30.268s6.166,8.2,9.024,8.55,6.7,2.45,10.4.325S401.823,348.03,401.823,348.03Z" transform="translate(-11.806 -4.96)" fill="#fff" stroke="#000" stroke-miterlimit="10" stroke-width="0.5"/>
          <path d="M192.83,343.4c4.791-7.715,7.341-24.863,9.11-33.111s2.8-18.355,5.694-24.323,4.606-8.129,9.777-15.219,8.317-9.287,10.054-13.636c.866-2.169,1.174-3.3,1.578-4.109a5.482,5.482,0,0,1,2.16-2.147c2.509-1.721,4.469-8.774,4.175-11.425s-.286-2.854-2.481-3.759-.3-2.449-1.282-3.3-2.389-1.116-2.963-1.952.516-2.617-1.079-3.294-9.37-.968-12.945-.968c-3.789,0-10.318,3.844-11.4,5.423s-1.036,29.392-1.036,29.392.345,1.436-3.322,6.559S186.3,291.16,179.579,296.56,160.739,319.72,158.8,327.15s-1.549,27.783,4.251,29.854,16.927,2.3,19.723-1.438S192.83,343.4,192.83,343.4Z" transform="translate(-11.806 -4.96)" fill="#fff" stroke="#000" stroke-miterlimit="10" stroke-width="0.5"/>
          <path d="M274.293,247.021c4.933,4.933,11.78,2.536,18.118.16s12.826-7.405,13.354-10.574,1.934-10.225,2.227-14.514c.291-4.255,7.589-22.32,5.212-27.6s-6.8-12.539-14.455-14.916-15.053-7.394-25.88-3.433-19.915,11.783-17.8,28.42,3.258,28.743,8.011,33.761S272.709,245.436,274.293,247.021Z" transform="translate(-11.806 -4.96)" fill="#fff" stroke="#000" stroke-miterlimit="10" stroke-width="0.5"/>
          <path d="M293.763,234.933c-2.09,4.061-5.942,5.828-8.937,5.525-1.834-.186-5.415-.508-6.987-1.3-3.283-1.652-6.835-6.789-5.525-8.612.812,1.95,12.814,4.144,15.112,4.875S293.763,234.933,293.763,234.933Z" transform="translate(-11.806 -4.96)" fill="#fff" stroke="#000" stroke-miterlimit="10" stroke-width="0.5"/>
          <path d="M291.935,203.978a5.7,5.7,0,0,0-4.266-.609c-1.523.381-2.429,1-2.194,1.706.417,1.247,2.041,17.344,2.681,18.4" transform="translate(-11.806 -4.96)" fill="#b4b4b4"/>
          <path d="M257.814,193.347a13.763,13.763,0,0,0,1.635,7.682c.314.664.2-2.875.54-4.706a5.4,5.4,0,0,1,1.84-3.468c-.639,1.333-.535,4.394,1.021,5.414.446-1.558.129-4.758.938-6.163.319-.555.206,2.043,1.465,2.844.343-2.518,2.174-4.349,3.247-4.295.5.025,1.1,4.295,2.667,4.391-.161-1.282-.993-2.728.1-3.86.283,2.276,2.5,2.585,2.686,3.077.235.625,2.861-4.12,3.229-8.063.061-.653,2.15,3.256,1.005,6.69a72.571,72.571,0,0,0,5.264-5.722c.458.916-.058,5.3,0,7.553.018.691,1.9-1.075,2.325-1S287.34,189,287.34,189a5.727,5.727,0,0,1,1.065,2.653l.008.095c.056.686-.069,2.171.529,1.83.8-.458,1.573-2.937,2.1-3.536a.7.7,0,0,1,1.2.316c.546,2.177.5,7.372,1.169,9.514,2.518-1.488,5.289-2.136,3.079-11.163-.066-.269,6.555,10.107,5.019,15.509.58-2.685,4.23-7.981,4.341-7.348a41.037,41.037,0,0,1,.6,8.11c-.016.638,2.753-1.217,2.4,1.085-.238,1.554-.563,4.221-1.936,5.479-.533.488,2.289-1.259,4.234-3.777.2-.261-1.283,6.483-.992,6.638.191.1,2.223-3.441,2.823-5.951.13-.545,1.7,3.538,1.144,6.714.638-3.573,1.932-5.139,2.174-8.774.049-.73.572-3.09.572-3.09s.871,4.152,1.03,4.463c.317.619,2.976-15.564-4.463-23.346-.343-.359,10.018,2.131,8.7,1.831-5.036-1.144-15.177-11.486-16.1-12.284-2.026-1.754-5.89-2.85-7.553-3.51-4.315-1.712-14.038-6.1-20.066-3.662-3.688,1.494-15.564,4.921-18.807,7.477s-5.913,10.948-6.714,12.894a78.331,78.331,0,0,0-2.4,16.709c-.01.77,1.626-5.025,1.6-4.12-.1,3.839,1.65,1.38,1.373,5.264-.235,3.31.746,7.654,3.891,9.155-1.259-1.717-1.993-2.349-1.259-5.15.4,1.767.644,3.114,3.2,4.006a10.021,10.021,0,0,1-2.4-5.951,36.84,36.84,0,0,1,.114-4.006C255.3,199.412,257.814,193.347,257.814,193.347Z" transform="translate(-11.806 -4.96)" fill="#fff" stroke="#000" stroke-miterlimit="10" stroke-width="0.5"/>
          <path d="M257.814,193.347a13.763,13.763,0,0,0,1.635,7.682c.314.664.2-2.875.54-4.706a5.4,5.4,0,0,1,1.84-3.468c-.639,1.333-.535,4.394,1.021,5.414.446-1.558.129-4.758.938-6.163.319-.555.206,2.043,1.465,2.844.343-2.518,2.174-4.349,3.247-4.295.5.025,1.1,4.295,2.667,4.391-.161-1.282-.993-2.728.1-3.86.283,2.276,2.5,2.585,2.686,3.077.235.625,2.861-4.12,3.229-8.063.061-.653,2.15,3.256,1.005,6.69a72.571,72.571,0,0,0,5.264-5.722c.458.916-.058,5.3,0,7.553.018.691,1.9-1.075,2.325-1S287.34,189,287.34,189a5.727,5.727,0,0,1,1.065,2.653l.008.095c.056.686-.069,2.171.529,1.83.8-.458,1.573-2.937,2.1-3.536a.7.7,0,0,1,1.2.316c.546,2.177.5,7.372,1.169,9.514,2.518-1.488,5.289-2.136,3.079-11.163-.066-.269,6.555,10.107,5.019,15.509.58-2.685,4.23-7.981,4.341-7.348a41.037,41.037,0,0,1,.6,8.11c-.016.638,2.753-1.217,2.4,1.085-.238,1.554-.563,4.221-1.936,5.479-.533.488,2.289-1.259,4.234-3.777.2-.261-1.283,6.483-.992,6.638.191.1,2.223-3.441,2.823-5.951.13-.545,1.7,3.538,1.144,6.714.638-3.573,1.932-5.139,2.174-8.774.049-.73.572-3.09.572-3.09s.871,4.152,1.03,4.463c.317.619,2.976-15.564-4.463-23.346-.343-.359,10.018,2.131,8.7,1.831-5.036-1.144-15.177-11.486-16.1-12.284-2.026-1.754-5.89-2.85-7.553-3.51-4.315-1.712-14.038-6.1-20.066-3.662-3.688,1.494-15.564,4.921-18.807,7.477s-5.913,10.948-6.714,12.894a78.331,78.331,0,0,0-2.4,16.709c-.01.77,1.626-5.025,1.6-4.12-.1,3.839,1.65,1.38,1.373,5.264-.235,3.31.746,7.654,3.891,9.155-1.259-1.717-1.993-2.349-1.259-5.15.4,1.767.644,3.114,3.2,4.006a10.021,10.021,0,0,1-2.4-5.951,36.84,36.84,0,0,1,.114-4.006C255.3,199.412,257.814,193.347,257.814,193.347Z" transform="translate(-11.806 -4.96)" stroke="#000" stroke-miterlimit="10" stroke-width="0.5" fill="url(#_10_dpi_30_)"/>
          <path d="M297.19,279.15c.067-.419.5-.783.4-1.195-.256-1.1,4.7-1.016,6.406-2.235" transform="translate(-11.806 -4.96)" fill="none" stroke="#000" stroke-miterlimit="10" stroke-width="0.5"/>
        </g>
        <path d="M359.477,251.111s2.788-2.455,4.322-2.853" transform="translate(-11.806 -4.96)" fill="#fff" stroke="#000" stroke-miterlimit="10" stroke-width="0.5"/>
        <path d="M231.608,242.733s-1.8,2.012-1.707,3.188a15.052,15.052,0,0,1-.859,7.083" transform="translate(-11.806 -4.96)" fill="#fff" stroke="#000" stroke-miterlimit="10" stroke-width="0.5"/>
        <path d="M363.632,241.728s3.5-1.066,3.985-1.676" transform="translate(-11.806 -4.96)" fill="#fff" stroke="#000" stroke-miterlimit="10" stroke-width="0.5"/>
        <path d="M285.826,204.832c-.028-.7.727-1.144,1.38-1.4A17.775,17.775,0,0,1,295.172,202a9.651,9.651,0,0,1,7.013,3.673" transform="translate(-11.806 -4.96)" fill="#b4b4b4"/>
        <path d="M616.317,227.784c1.381.934,2.478,1.666,3.331,1.544" transform="translate(-11.806 -4.96)" fill="none" stroke="#000" stroke-miterlimit="10" stroke-width="0.5"/>
        <g>
          <g>
            <path d="M653.119,422.9c-8.522,12.191-12.156,25.809-18.6,39.207-20.874,43.389-18.2,72.8-40.3,112.447-8.73,16.973-17.8,25.711,14.288,30.558,12.239,1.849,11.059,7.613,23.411,8.441,26.065,1.747,48.749,11.05,74.748,3.25,3.449-1.035,33.261,1.472,36.494-.08,5.441-2.613,12.147-1.69,13.318-7.533s9.735-20.038,7.386-25.536c-9.954-23.3-14.9-50.874-16.25-75.4-1.517-27.5-9.39-75.248-9.893-102.785" transform="translate(-11.806 -4.96)" fill="#fff" stroke="#000" stroke-miterlimit="10" stroke-width="0.5"/>
            <path d="M760.755,324.072l1.073,26.4c.378,9.3.754,18.641-.506,27.776a74.12,74.12,0,0,1-2.121,10.143c-.558,1.964-1.259,3.992-2.846,5.347-1.028.877-3,2.176-4.43,2.263-3.444.21-6.149-2.949-7.858-5.848s-2.141-6.221-2.483-9.444a275.532,275.532,0,0,1-1.367-39.036c.133-3.676.283-7.584-1.714-10.885a15.607,15.607,0,0,1-1.494-2.553,6.561,6.561,0,0,1-.277-2.663c.294-4.991,2.571-9.759,1.927-14.776-.286-2.231-9.124-22.917-8.28-24.957,1.217-2.941,9.4-.468,12.86-.04,2.585.319,8,3.318,9.913,5.107,2.5,2.343,5.077,14.643,5.621,16.6C760.29,312.951,760.53,318.549,760.755,324.072Z" transform="translate(-11.806 -4.96)" fill="#fff" stroke="#000" stroke-miterlimit="10" stroke-width="0.5"/>
            <path d="M653.327,284.7c-8.526,6.977-11.6,29.191-13.778,36.482-5.494,18.369-14.988,30.489-17.874,47.7-.578,3.446.021,9.07.719,12.577.841,4.229.542,7.495,4.148,10.655,2.024,1.774,8.12,1.644,10.907,1.186,3.134-.516,5.331-2.814,7.343-3.862,2.6-1.354,12.429-11.5,11.622-14.893-.321-1.349-11.8-10.663-8.038-18.39,4.509-9.267,6.762-16.319,11.192-23.755.708-1.189,3.215,4.891,8.47.257,2.036-1.8,5.954-7.874,9.709-13.566,4.784-7.253-5.713-33.29-8.289-34.646C665.917,282.576,657.15,281.568,653.327,284.7Z" transform="translate(-11.806 -4.96)" fill="#fff" stroke="#000" stroke-miterlimit="10" stroke-width="0.5"/>
            <path d="M748.287,230.467c.569-11.618-1.534-23.957-9.08-32.912l-41.545-5.967L674.176,215.2l-4.425,16.123a14.348,14.348,0,0,0-.744,4.747c.147,2.1,1.2,4.016,2.063,5.943a35.569,35.569,0,0,1,3.076,13.073l1.425-9.529c.752,4.59,1.639,9.464,4.831,12.89a62.815,62.815,0,0,1-.084-8.662,28.48,28.48,0,0,1,4.98,13.635q.587-3.826,1.175-7.652l4.36,6.274c1.394-3.05,2.67-5.594,4.065-8.645a1.422,1.422,0,0,1,.7-.84c.833-.293,1.322.905,1.405,1.774a24.644,24.644,0,0,0,4.6,12.1c.377-2.588-.369-5.214-.272-7.827s1.509-5.567,4.13-5.964a48.782,48.782,0,0,0,3.432,12.751,14.648,14.648,0,0,1,.677-4.889,1.755,1.755,0,0,1,.506-.888,1.322,1.322,0,0,1,1.777.421,3.712,3.712,0,0,1,.508,1.929l6.039-4.27a17.829,17.829,0,0,1-.1,6.948q1.749-6.1,4.032-12.042a8.36,8.36,0,0,1-.893,8.226l3.73-5.7,0-.006a20.5,20.5,0,0,0,1.591-1.469,11.754,11.754,0,0,0-1.667,2.946,18.953,18.953,0,0,0,14.252-11.046,5.909,5.909,0,0,1-2.457,7.948,18.866,18.866,0,0,0,8.835-9.869A38.68,38.68,0,0,0,748.287,230.467Z" transform="translate(-11.806 -4.96)" fill="#fff" stroke="#000" stroke-miterlimit="10" stroke-width="0.5"/>
            <path d="M748.287,230.467c.569-11.618-1.534-23.957-9.08-32.912l-41.545-5.967L674.176,215.2l-4.425,16.123a14.348,14.348,0,0,0-.744,4.747c.147,2.1,1.2,4.016,2.063,5.943a35.569,35.569,0,0,1,3.076,13.073l1.425-9.529c.752,4.59,1.639,9.464,4.831,12.89a62.815,62.815,0,0,1-.084-8.662,28.48,28.48,0,0,1,4.98,13.635q.587-3.826,1.175-7.652l4.36,6.274c1.394-3.05,2.67-5.594,4.065-8.645a1.422,1.422,0,0,1,.7-.84c.833-.293,1.322.905,1.405,1.774a24.644,24.644,0,0,0,4.6,12.1c.377-2.588-.369-5.214-.272-7.827s1.509-5.567,4.13-5.964a48.782,48.782,0,0,0,3.432,12.751,14.648,14.648,0,0,1,.677-4.889,1.755,1.755,0,0,1,.506-.888,1.322,1.322,0,0,1,1.777.421,3.712,3.712,0,0,1,.508,1.929l6.039-4.27a17.829,17.829,0,0,1-.1,6.948q1.749-6.1,4.032-12.042a8.36,8.36,0,0,1-.893,8.226l3.73-5.7,0-.006a20.5,20.5,0,0,0,1.591-1.469,11.754,11.754,0,0,0-1.667,2.946,18.953,18.953,0,0,0,14.252-11.046,5.909,5.909,0,0,1-2.457,7.948,18.866,18.866,0,0,0,8.835-9.869A38.68,38.68,0,0,0,748.287,230.467Z" transform="translate(-11.806 -4.96)" stroke="#000" stroke-miterlimit="10" stroke-width="0.5" fill="url(#_10_dpi_30_3)"/>
            <path d="M706.409,246.04c4.395,2.706,9.524,4.045,14.1,6.456a1.405,1.405,0,0,1,.516.386,1.127,1.127,0,0,1-.1,1.14,22.558,22.558,0,0,0-2.2,9.051,4.55,4.55,0,0,0,.547,2.71c.32.488.767,6.842.824,7.434.876,9.005,10.8,9.605,10.288,12.62-.553,3.233,2.442,5.571,1.347,8.644-2.651,7.44-9.418,13.508-17.454,16.022-8.312,2.6-18.9-1.715-27.014-6.017a10.868,10.868,0,0,1-3-2.083c-2.314-2.525-14.226-14.378-11.805-16.459,3.288-2.827,10.542-6.135,12.551-8.135,1.289-1.283,5.571-9.792,4.587-26.941-.237-4.139-.044-6.4-.061-10.617-.011-2.632,1.5-7.058,1.49-9.69,3.172,1.466,4.81,5.256,6.957,7.84A35.025,35.025,0,0,0,706.409,246.04Z" transform="translate(-11.806 -4.96)" fill="#fff" stroke="#000" stroke-miterlimit="10" stroke-width="0.5"/>
            <path d="M740.92,396.6c-.834-7.258-1.668-14.585-.876-21.844,1.1-10.081,1.01-19.924,4.259-26.2,4.721-9.115,5.778-18.71,1.666-24.919a52.328,52.328,0,0,1-6.861-14.76c-.922-7.252.089-14.586,1.03-21.831a4.447,4.447,0,0,0-.332-3.045,4.264,4.264,0,0,0-1.831-1.348c-2.669-1.263-2.862-2.272-5.785-2.734a2.717,2.717,0,0,0-1.753.131,2.768,2.768,0,0,0-1.054,2c-.914,4.489-1.483,12.173-3.763,16.162s-8.8,6.18-13.3,7.364a22.251,22.251,0,0,1-10.637.159c-12.247-2.9-24.44-14.182-25.662-26.506-6.258-.311-12.158.2-16.424,4.493l8.339,22.233c1.226,5.558-.344,17.644-3.991,22.085a27.1,27.1,0,0,0-3.146,4.734c3.844,27.141-.536,47.234-11.863,84.2-4.588,4.382,4.159,7.42,11.731,12.148,3.091,1.931,13,4.662,16.652,4.838,21.961,1.058,44.113,9.427,65.038-1.455C740.974,420.485,742.3,408.635,740.92,396.6Z" transform="translate(-11.806 -4.96)" stroke="#000" stroke-miterlimit="10" stroke-width="0.5"/>
            <path d="M690.331,246.684c6.06,7.665,13.253,10.745,22.641,13.741,4.086,1.3,7.713,1.608,10.972-1.133,1.821-1.531,4.046-3.5,5.113-5.611,2.078-4.108,4.975-7.909,5.98-12.391.736-3.283.406-6.752,1.343-9.985a21.512,21.512,0,0,0,1.1-3.975,33.267,33.267,0,0,0-.268-4.043,38.094,38.094,0,0,1,.6-5.322c.594-5.483-.979-13.278-5.058-17.074-2.531-2.356-6.63-6-9.841-7.332-5.874-2.431-12.856-3.879-19.051-2.443a22.989,22.989,0,0,0-8.53,4.371c-8.067,6.123-13.153,18.037-13.694,28.053C681.469,226.6,682.291,236.583,690.331,246.684Z" transform="translate(-11.806 -4.96)" fill="#fff" stroke="#000" stroke-miterlimit="10" stroke-width="0.5"/>
            <path d="M684.454,223.741c-1.746-1.26-3.94-2.416-5.983-1.719a4.821,4.821,0,0,0-2.946,3.9,11.846,11.846,0,0,0,.6,5.039,16.649,16.649,0,0,0,2.9,6.17A7.4,7.4,0,0,0,685.055,240a2.805,2.805,0,0,0,2.513-1.515" transform="translate(-11.806 -4.96)" fill="#fff" stroke="#000" stroke-miterlimit="10" stroke-width="0.5"/>
            <path d="M684.559,237.321a6.888,6.888,0,0,1-5.643-3.416c-1.349-2.349-1.233-5.284-.777-7.981a1.824,1.824,0,0,1,.747-1.421,1.5,1.5,0,0,1,.736-.112,5.214,5.214,0,0,1,2.07.526" transform="translate(-11.806 -4.96)" fill="none" stroke="#000" stroke-miterlimit="10" stroke-width="0.5"/>
            <path d="M709.4,245.633c1.941-1.01,6.682-2.681,10.752-2.192a3.956,3.956,0,0,1,2.427,1.015,2.537,2.537,0,0,1,.581.914,3.569,3.569,0,0,1,.015,2.214c-.419,1.166-1.936,4.274-3.567,5.093-1.343.674-5.3,1.452-7.834.014-2.46-1.4-6.071-4.832-5.488-6.991A5.116,5.116,0,0,0,709.4,245.633Z" transform="translate(-11.806 -4.96)" fill="#fff" stroke="#000" stroke-miterlimit="10" stroke-width="0.5"/>
            <path d="M751.951,395.942c2.307.441,2.866-.735,5.171-1.178,3.364-.646,11.407-7.672,12.652-13.736.54-2.63,2.314-11.07,2.373-13.753.163-7.4,1.211-16.917.857-24.313a41.214,41.214,0,0,1,.132-8.605c.172-1.056.434-2.12.679-3.184,2.164-.487,4.725-1.2,6.737-1.739a11.454,11.454,0,0,0,6-3.925c1.473-1.893,2.486-3.25,3.959-5.143a9.459,9.459,0,0,0,1.622-5.239c.047-2-1.322-3.612-3.028-4.842a9.142,9.142,0,0,0,3.285-3.367c1.252-1.873-2.838-10.705-6.682-8.978-2.42,1.087-5.095,1.482-7.64,2.246a26.946,26.946,0,0,0-8.855,4.583,8.406,8.406,0,0,0-3.529,5.529c-.372,2.479-1.276,5.714-2.71,7.434-1.113,1.335-.445,3.563-1.619,6.17-1.209,2.487-2.371,7.258-4.193,11-1.017,2.089-4.805,14.562-5.881,17.964-2,6.323-4.266,12.616-5.137,19.185" transform="translate(-11.806 -4.96)" fill="#fff" stroke="#000" stroke-miterlimit="10" stroke-width="0.5"/>
            <path d="M796.326,311.158c.026-.294.04-.557.039-.771l-.03-.005a9.561,9.561,0,0,0-.063-.96,7.73,7.73,0,0,0-.607-2.056,18.723,18.723,0,0,0-8.278-9.081,7.4,7.4,0,0,0-3.251-1.04,1.429,1.429,0,0,0-.977.252,1.178,1.178,0,0,0-.353.656,3.271,3.271,0,0,0,1.363,3,13.259,13.259,0,0,0,1.277.915c-.289-.144-.6-.283-.945-.419a4.008,4.008,0,0,0-1.931-.284,1.471,1.471,0,0,0-.934,1.594,6.2,6.2,0,0,0,1.558,3.583.621.621,0,0,1-.2-.113,4.289,4.289,0,0,0-2.071-1.192,2.109,2.109,0,0,0-2.147.775,2.375,2.375,0,0,0,0,2.592c2.106,2.832,3.269,3.12,4.489,7.328a46.778,46.778,0,0,1,.891,6.974c-2.38-5.541-5.361-10.672-7-6.584-1.434,3.575,3.217,4.883,1.653,9.238l-6.437,5.322c3.4,1.02,7.923-1.1,8.4-1.281a16.167,16.167,0,0,0,9.1-6.885c1.961-1.722,5.169-4.521,5.436-6.539A15.52,15.52,0,0,0,796.326,311.158Z" transform="translate(-11.806 -4.96)" fill="#fff"/>
            <path d="M790.3,306.936c-2.209-2.9-2.993-4.17-5.8-5.284a4.006,4.006,0,0,0-1.931-.284,1.471,1.471,0,0,0-.934,1.594,6.9,6.9,0,0,0,2.106,4.225" transform="translate(-11.806 -4.96)" fill="#fff" stroke="#000" stroke-miterlimit="10" stroke-width="0.5"/>
            <path d="M785.063,309.065A12.877,12.877,0,0,0,783,306.432a4.288,4.288,0,0,0-2.071-1.192,2.109,2.109,0,0,0-2.147.775,2.375,2.375,0,0,0,0,2.593c2.106,2.832,3.269,3.12,4.489,7.328a46.77,46.77,0,0,1,.891,6.974" transform="translate(-11.806 -4.96)" fill="#fff" stroke="#000" stroke-miterlimit="10" stroke-width="0.5"/>
            <path d="M644.792,389.43c11.1-2.946,12.4-15.647,20.8-29.861s7.12-14.617,9.678-20.842c2.292-5.578,5.171-11.286,5.669-12.9a13.443,13.443,0,0,0,2.426-3.317,27.5,27.5,0,0,0,1.655-8.2,22.856,22.856,0,0,0-.992-4.039c-.411-1.434-.7-2.9-1-4.36s-1.1-6.168-.93-7.574c.152-1.252-.058-7.4-.488-8.166-.742-1.316-3.3-1.162-4.183,1.053-1.73,4.346-.168,7.26-.281,9.176-.03.509-1.049,1.881-1.775,3.518-.117-.138-.233-.278-.346-.428a75.56,75.56,0,0,1-4.784-7.476c-1.79-3.068-3.594-6.258-4-9.77a13.045,13.045,0,0,1,.668-5.851c.874-2.454,2.49-4.674,2.851-7.251a1.226,1.226,0,0,0-.287-1.173,3.243,3.243,0,0,0-1.755-.274c-2.7.762-3.38,2.7-4.672,5.149-.4.749-1.275-.317-2.511.527-1.22.614-.865,2.488-1.046,3.273-.876-.042-1.38.107-1.513.342-.846,1.489-.514,3-.859,3.87-.09.227-.168.457-.245.686a1.1,1.1,0,0,0-.634.044,1.344,1.344,0,0,0-.653.875,8.527,8.527,0,0,0-.316,1.911c-.506,5.89-.623,12.059,1.875,17.443a38.928,38.928,0,0,0,2.98,5.029l6.573,9.924c.347.524.7,1.054,1.077,1.57-.04,1.223-.556,5.093-3.988,10.034-3.832,5.518-10.686,14.677-20.174,22.1s-10.153,11.575-16.333,18.8" transform="translate(-11.806 -4.96)" fill="#fff" stroke="#000" stroke-miterlimit="10" stroke-width="0.5"/>
            <path d="M656.871,285.546c1.149.413,1.888,1.923,1.945,3.4.044,1.126-.244,3.316-.3,4.442a11.131,11.131,0,0,0,3.242,8.742,23.184,23.184,0,0,1,6.754,4.005c3.263,2.985,3.558,4.348,3.687,4.454" transform="translate(-11.806 -4.96)" fill="none" stroke="#000" stroke-miterlimit="10" stroke-width="0.5"/>
            <g>
              <path d="M672.4,234.374a16.185,16.185,0,0,0,.649,4.518A8.045,8.045,0,0,0,672.4,234.374Z" transform="translate(-11.806 -4.96)" fill="none" stroke="#000" stroke-miterlimit="10" stroke-width="0.5"/>
              <path d="M721.866,221.066l-4.373,1.566c-.442.8.843,5.477,1.007,6.093.628,2.36,1.4,4.883,3.177,6.547" transform="translate(-11.806 -4.96)" fill="#b4b4b4"/>
              <path d="M740.123,208.1c.091-2.863-.5-3.189-1.22-5.968-.262-1.014-1.15-1.293-1.659-2.221l6.356,4.9c-.057-2.153-2.672-7.538-4.515-8.717-1.719-1.1-7.646-11.538-17.607-13.365-14.617-2.68-24.274-2.085-36.744,5.668-4.155,2.583-10.755,13.485-15.249,22.485-2.827,5.664-2.349,19.377.035,28.077.042.152,1.138-4.538,2.01-4.654.982-.13,2.859,6.991,2.92,7.16-.021-4.725.347-14.928,3.877-18.158.328-.3.774-.608,1.19-.438.469.192,4.012.423,3.975.919-.179,2.359-.16,5.888-.339,8.247,4.485-1.738,5.608-7.351,7.934-11.488l.572,1.641a13.213,13.213,0,0,0,8.14-4.287,8.705,8.705,0,0,0,5.585,3.832c2.052.364,5.244-1.013,7.263-1.516a37.258,37.258,0,0,0,7.97-4.025c2.152-1.633-3.433,3.412-2.858,3.239a43.31,43.31,0,0,0,6.58-2.5c4.026-1.968,7.7-4.9,9.727-8.835a17.055,17.055,0,0,1-2.633,9.691,7.158,7.158,0,0,0,5.1-4.6C737.409,210.981,740.048,210.468,740.123,208.1Z" transform="translate(-11.806 -4.96)" fill="#fff" stroke="#000" stroke-miterlimit="10" stroke-width="0.5"/>
              <path d="M740.123,208.1c.091-2.863-.5-3.189-1.22-5.968-.262-1.014-1.15-1.293-1.659-2.221l6.356,4.9c-.057-2.153-2.672-7.538-4.515-8.717-1.719-1.1-7.646-11.538-17.607-13.365-14.617-2.68-24.274-2.085-36.744,5.668-4.155,2.583-10.755,13.485-15.249,22.485-2.827,5.664-2.349,19.377.035,28.077.042.152,1.138-4.538,2.01-4.654.982-.13,2.859,6.991,2.92,7.16-.021-4.725.347-14.928,3.877-18.158.328-.3.774-.608,1.19-.438.469.192,4.012.423,3.975.919-.179,2.359-.16,5.888-.339,8.247,4.485-1.738,5.608-7.351,7.934-11.488l.572,1.641a13.213,13.213,0,0,0,8.14-4.287,8.705,8.705,0,0,0,5.585,3.832c2.052.364,5.244-1.013,7.263-1.516a37.258,37.258,0,0,0,7.97-4.025c2.152-1.633-3.433,3.412-2.858,3.239a43.31,43.31,0,0,0,6.58-2.5c4.026-1.968,7.7-4.9,9.727-8.835a17.055,17.055,0,0,1-2.633,9.691,7.158,7.158,0,0,0,5.1-4.6C737.409,210.981,740.048,210.468,740.123,208.1Z" transform="translate(-11.806 -4.96)" stroke="#000" stroke-miterlimit="10" stroke-width="0.5" fill="url(#_10_dpi_30_3)"/>
            </g>
            <path d="M794.331,318.458c1.821-1.67,2.237-6.6,1.941-9.038a7.734,7.734,0,0,0-.607-2.055,18.723,18.723,0,0,0-8.277-9.081,7.4,7.4,0,0,0-3.251-1.04,1.43,1.43,0,0,0-.977.252,1.175,1.175,0,0,0-.353.656,3.271,3.271,0,0,0,1.363,3c.889.75,1.966,1.268,2.825,2.052a10.7,10.7,0,0,1,2.145,3.109" transform="translate(-11.806 -4.96)" fill="#fff" stroke="#000" stroke-miterlimit="10" stroke-width="0.5"/>
            <path d="M784.159,322.909c-2.38-5.542-5.361-10.671-7-6.584-1.434,3.575,3.217,4.883,1.653,9.238" transform="translate(-11.806 -4.96)" fill="#fff" stroke="#000" stroke-miterlimit="10" stroke-width="0.5"/>
            <path d="M794.487,312.6a37.243,37.243,0,0,1-2.07-4.519c-2.209-2.9-4.988-4.483-8.292-6.3a2.315,2.315,0,0,0-1.555-.406,1.471,1.471,0,0,0-.934,1.594,6.9,6.9,0,0,0,2.106,4.225c1.123,1.221,3.413,2.535,4.242,3.959,1.55,2.666,2.037,4.784,1.118,6.728a28.292,28.292,0,0,0-1.4-3.55,44.63,44.63,0,0,0-2.641-5.259A12.872,12.872,0,0,0,783,306.432a4.286,4.286,0,0,0-2.071-1.192,2.109,2.109,0,0,0-2.147.775,3.07,3.07,0,0,0,0,2.593c1.02,3.153,2.7,2.988,4,8.168.277,1.106,1.151,5.018,1.385,6.134l.66,1.48" transform="translate(-11.806 -4.96)" fill="#fff" stroke="#000" stroke-miterlimit="10" stroke-width="0.5"/>
          </g>
          <g>
            <path d="M758.156,315.714,770,326.252c.5.474,2.379,2.083,4.158.43l28.311-40.211a2.308,2.308,0,0,0-.613-3.005l-13.423-7.958c-.479-.287-.975-.477-1.222-.123L758.371,314C757.585,314.755,757.484,315.113,758.156,315.714Z" transform="translate(-11.806 -4.96)" fill="#fff" stroke="#000" stroke-miterlimit="10" stroke-width="0.5"/>
            <path d="M756.707,314.705,770,326.252a1.584,1.584,0,0,0,2.259-.077l29.82-41.029a1.009,1.009,0,0,0-.223-1.68l-15.124-8.878a1.375,1.375,0,0,0-1.558.319l-28.662,37.814A1.317,1.317,0,0,0,756.707,314.705Z" transform="translate(-11.806 -4.96)" fill="#fff" stroke="#000" stroke-miterlimit="10" stroke-width="0.5"/>
            <polygon points="748.784 305.583 761.733 316.197 785.99 282.644 772.248 274.063 748.784 305.583"/>
            <path d="M790.976,280.848l1.548.95c.1.06.291-.037.43-.215h0c.139-.178.173-.372.075-.432l-1.549-.945c-.1-.059-.288.037-.427.214h0C790.915,280.6,790.88,280.789,790.976,280.848Z" transform="translate(-11.806 -4.96)"/>
          </g>
          <path d="M659.568,332.393c.779-1.9,1.644-5.1,2.9-9.252" transform="translate(-11.806 -4.96)" fill="#fff" stroke="#000" stroke-miterlimit="10" stroke-width="0.5"/>
          <path d="M693.287,261.3c.152,12.5,3.3,26.212-1.983,26.012" transform="translate(-11.806 -4.96)" fill="none" stroke="#000" stroke-miterlimit="10" stroke-width="0.5"/>
          <path d="M794.331,318.458c1.821-1.67,2.237-6.6,1.941-9.038a7.734,7.734,0,0,0-.607-2.055,18.723,18.723,0,0,0-8.277-9.081,7.4,7.4,0,0,0-3.251-1.04,1.43,1.43,0,0,0-.977.252,1.175,1.175,0,0,0-.353.656,3.271,3.271,0,0,0,1.363,3c.889.75,1.966,1.268,2.825,2.052a10.7,10.7,0,0,1,2.145,3.109" transform="translate(-11.806 -4.96)" fill="#fff" stroke="#000" stroke-miterlimit="10" stroke-width="0.5"/>
          <path d="M784.159,322.909c-2.38-5.542-5.361-10.671-7-6.584-1.434,3.575,3.217,4.883,1.653,9.238" transform="translate(-11.806 -4.96)" fill="#fff" stroke="#000" stroke-miterlimit="10" stroke-width="0.5"/>
          <path d="M794.487,312.6a37.243,37.243,0,0,1-2.07-4.519c-2.209-2.9-4.988-4.483-8.292-6.3a2.315,2.315,0,0,0-1.555-.406,1.471,1.471,0,0,0-.934,1.594,6.9,6.9,0,0,0,2.106,4.225c1.123,1.221,3.413,2.535,4.242,3.959,1.55,2.666,2.037,4.784,1.118,6.728a28.292,28.292,0,0,0-1.4-3.55,44.63,44.63,0,0,0-2.641-5.259A12.872,12.872,0,0,0,783,306.432a4.286,4.286,0,0,0-2.071-1.192,2.109,2.109,0,0,0-2.147.775,3.07,3.07,0,0,0,0,2.593c1.02,3.153,2.7,2.988,4,8.168.277,1.106,1.151,5.018,1.385,6.134l.66,1.48" transform="translate(-11.806 -4.96)" fill="#fff" stroke="#000" stroke-miterlimit="10" stroke-width="0.5"/>
        </g>
        <g>
          <g>
            <path d="M507.985,406.392c16.108,27.6,30.731,65.57,39.443,83.2,1.338,2.707-35.846,55.821-33.734,57.979,1.214,1.24,28.54.748,32.606,1.362a.659.659,0,0,0,.679-.334c11.055-19.462,44.834-53.579,39.89-68.747-4.982-15.282-20.607-51.654-33.729-80.153" transform="translate(-11.806 -4.96)" fill="#fff" stroke="#000" stroke-miterlimit="10" stroke-width="0.5"/>
            <path d="M512.693,390.076c-12.547,21.952-25.5,55.452-38.17,79.827-6.97,13.4-14.625,30.224-24.741,46.422-2.818,4.513-41.841,82.8-46.616,85.15-11.855,5.823-25.737-5.471-38.816-3.851-.6.074,23.987-44.383,24.374-44.849,4.6-5.536,26.005-43.99,28.274-49.724,12.725-32.154,35.4-96.676,43.874-130.647" transform="translate(-11.806 -4.96)" fill="#fff" stroke="#000" stroke-miterlimit="10" stroke-width="0.5"/>
            <path d="M499.717,150.309a.692.692,0,0,1,1.027-.546c3.753,2.1,7.6,4.127,11.792,5.043a36.46,36.46,0,0,0,7.706.694,78.3,78.3,0,0,0,13.238-1.1.677.677,0,0,1,.782.791,13.626,13.626,0,0,0-.146,1.414c-.5,7.886.84,15.878-.493,23.666q-3.356.612-6.75.984a20.18,20.18,0,0,1-6.023-.008,22.527,22.527,0,0,1-4.551-1.58,114.789,114.789,0,0,1-14.736-7.18,7.171,7.171,0,0,1-1.893-1.5c-2.027-2.492-.7-6-.51-8.834C499.43,158.212,499.416,154.259,499.717,150.309Z" transform="translate(-11.806 -4.96)" fill="#fff" stroke="#000" stroke-miterlimit="10" stroke-width="0.5"/>
            <path d="M548.875,125.037A5.709,5.709,0,0,1,550,122.22a2.354,2.354,0,0,1,2.759-.694,3.094,3.094,0,0,1,1.253,1.719,8.531,8.531,0,0,1,.6,2.856,10.845,10.845,0,0,1-.36,2.685,29.077,29.077,0,0,1-4.854,10.491,5.733,5.733,0,0,1-2.027,1.911,2.251,2.251,0,0,1-2.6-.349" transform="translate(-11.806 -4.96)" fill="#fff" stroke="#000" stroke-miterlimit="10" stroke-width="0.5"/>
            <path d="M492.673,117.893a1.574,1.574,0,0,0-1.036-1.386,4.62,4.62,0,0,0-1.812-.237l-2.531.008a3.148,3.148,0,0,0-1.6.29,2.728,2.728,0,0,0-1.081,1.938c-.552,2.944.308,5.965,1.4,8.756.644,1.652,1.372,3.27,2.1,4.887a21.057,21.057,0,0,0,2.161,4.007,5.038,5.038,0,0,0,2.255,1.851,3.279,3.279,0,0,0,2.688-5.955" transform="translate(-11.806 -4.96)" fill="#fff" stroke="#000" stroke-miterlimit="10" stroke-width="0.5"/>
            <path d="M490.465,120.594a2.063,2.063,0,0,0-1.54-.869,1.377,1.377,0,0,0-1.108,1.2,25.2,25.2,0,0,0,.189,4.536c1.128,3.493,2.465,7.57,4.849,7.074a3.506,3.506,0,0,0-.3-2.13" transform="translate(-11.806 -4.96)" fill="#fff" stroke="#000" stroke-miterlimit="10" stroke-width="0.5"/>
            <path d="M471.6,193.01c-.089.444-20.068-5.65-20.474-5.85-3.32-1.628-11.983-9.444-24.7-14.3-20.283-7.745-45.044-22.965-46.8-24.049s-4.712-1.95-6.662-4.875c-.541-.811-.077-3.794-.2-4.55-.609-3.656.754-6.082,2.641-12.35,3.778-12.553,23.03-56.238,24.537-61.017.563-1.784.291-3.722.975-5.85s1.471-4.082,1.341-5a51.526,51.526,0,0,1,.772-13.284,9.826,9.826,0,0,0-.894-6.581c-1.815-3.581-8.716-5.781-5.3-8.746.7-.607,1.833-.461,4.08,1.677,2.381,2.266,5.889,4.663,6.337,4.631.362-.025,1.7-.35,0-3.047-2.52-4-9.384-7.678-8.044-9.872,1.948-3.188,4.092-.728,7.678,2.194a51.526,51.526,0,0,1,7.312,8.044c1.4,1.8-.657-2.742-2.072-4.509-3.466-4.327-10.513-9.149-8.086-11.033,2.115-1.642,4.53.042,8.086,3.6,2.681,2.681,6.236,8.9,6.459,9.019.3.151.338.661.537.394.344-.462-3.344-9.844-5.039-15.762-.626-2.185-1.188-6.105,1.808-6.657,2.28-.42,2.894,3.649,4.1,7a138.543,138.543,0,0,1,4.078,13.806,47.394,47.394,0,0,0,5.606,11.7c1.95,2.681,5.671-.2,5.722.762.127,2.407-3.772,6.144-10.76,11.994-3.71,3.106-4.342,5.664-6.662,11.862s-8.125,37.7-9.75,48.424c-1.187,7.833-5.85,19.5-5.85,19.5s34.677,13.847,42.249,15.925c11.57,3.175,20.474,7.15,22.749,9.1Z" transform="translate(-11.806 -4.96)" fill="#fff" stroke="#000" stroke-miterlimit="10" stroke-width="0.5"/>
            <path d="M577.871,203.734c.168-.357,29.214,15.764,30.549,16.25,3.575,1.3,4.863-5.481,8.287-13.975,4.062-10.075,11.212-22.749,10.887-25.349a39.551,39.551,0,0,0,0-4.062c-.94-1.276-1.787-3.331-1.869-7.069-.094-4.306,2.437-9.425,3.9-13.812,1.422-4.266,1.381-10.075,3.671-10.393,3.891.687,2.689,6.638,2.136,7.706.324-1.469,3.17-3.732,4.714-3.407,1.091.23,2.241,2.313,2.576,2.03a5.08,5.08,0,0,1,2.177-.567c1-.051,2.3,3.173,2.559,3.412.447.406,1.828.162,3.291.731.847.329,1.157,3.411,1.357,3.452,1.4.286,2.447.171,2.7.773.487,1.137.624,3.138-.284,6.5-.275,1.018-2.458,1.353-2.559,1.869a42.391,42.391,0,0,1-3.412,8.287c-2.7,4.39-7.312,4.582-7.312,6.662,0,.853-3.9,14.462-5.2,21.612-3.112,17.114-7.475,27.3-10.075,31.849-4.4,7.7-4.125,11.708-10.075,13.325s-17.225-7.15-22.1-8.775c-2.663-.888-22.373-11.426-26.324-13.975C563.921,224.519,576.119,207.451,577.871,203.734Z" transform="translate(-11.806 -4.96)" fill="#fff" stroke="#000" stroke-miterlimit="10" stroke-width="0.5"/>
            <path d="M496.033,103.282c2.113-5.986,5.986-18.31,16.2-20.07s17.3-1.426,27.993,4.577c10.035,5.634,11.8,14.437,11.091,22.887s-2.993,13.556-3.7,19.542-3.521,13.556-2.289,11.091-1.937,6.69-3.169,8.627-8.275,9.859-16.373,10.563-11.62,1.584-17.253-2.641-11.091-7.042-12.852-16.9-3.388-18.106-2.684-24.091A93.715,93.715,0,0,1,496.033,103.282Z" transform="translate(-11.806 -4.96)" fill="#fff" stroke="#000" stroke-miterlimit="10" stroke-width="0.5"/>
            <path d="M513.279,107.922a20.254,20.254,0,0,0,4.511-8.654.685.685,0,0,0-1.19-.6,29.409,29.409,0,0,1-7.139,6.259.688.688,0,0,1-.958-.938,20.368,20.368,0,0,0,1.559-2.908.687.687,0,0,0-1.19-.657c-2.01,2.715-4.112,4.088-5.8,5.989-1.87,2.1-2.11,9.253-3.891,11.444-1.072,1.319-1.93-6.347-3.378-5.556-.886.484-1.127,6.35-1.68,7.244-.618,1-1.146-3.267-1.216-2.053s-1.092,2.6-2.084,2.013c-.1-1.623-2.489,3.736-1.742,2.35-1.416.358,1.1-6.445-.052-5.495s-2.675,3-2.2,4.52a20.316,20.316,0,0,1-.231-4.307.677.677,0,0,0-1.038-.638,7.833,7.833,0,0,1-3.352,1.113.687.687,0,0,1-.451-1.251,12.162,12.162,0,0,0,3.618-4.272c.916-1.679,1.163-1.117,1.526-2.594.174-.709-5.681.727-5.036.458,3.662-1.526,6.22-6.125,6.3-7.183.155-2.041,2.49-7.117,3.49-8.832,3.232-5.549,9.7-10.8,13.575-12.85a33.243,33.243,0,0,1,19.232-4.251c11.089.683,19.782,8.674,25.273,19.319-.528-1.357,3.977,8.211,8.164,11.143a.683.683,0,0,1-.448,1.24A14.662,14.662,0,0,1,553.2,106.9a.683.683,0,0,0-.913.843c1.438,4.79,1.462,9.938-1.324,16.405-.519-1.523.474-8.587.485-10.2.038,2.768-3.692,14.014-3.232,10.127.081-.685-1.007,1.833-3.879,5.532,1.946-5.278,5.211-12.219,2.616-19.358a.692.692,0,0,0-1.109-.288c-.255.233-.559.467-.849.7a.686.686,0,0,1-1.111-.5,16.2,16.2,0,0,0-2.277-7.528.691.691,0,0,0-1.272.434h0a.683.683,0,0,1-1.313.327q-.251-.616-.518-1.225a.689.689,0,0,0-1.317.3c.008.325.016.66.024,1a.687.687,0,0,1-1.346.211c-.814-2.771-1.718-5.674-2.375-6.508a4.161,4.161,0,0,0-.54,1.944c-1.574-.467-2.362,9.907-2.871,8.216-.009,2.069-3.824-12.7-3.2-8.7,1.084,7-8.24,15.335-7.553,13.962,1.266-2.532,3.966-14.275,3.733-13.672-1.215,3.143-3.285,7.631-5.106,8.637a31.326,31.326,0,0,1-3.928,1.461A.685.685,0,0,1,513.279,107.922Z" transform="translate(-11.806 -4.96)" fill="#fff" stroke="#000" stroke-miterlimit="10" stroke-width="0.5"/>
            <path d="M513.279,107.923a20.253,20.253,0,0,0,4.513-8.66.684.684,0,0,1-1.188-.6,29.411,29.411,0,0,1-7.142,6.263.688.688,0,0,0-.957-.937,20.378,20.378,0,0,0,1.559-2.908.687.687,0,0,1-1.19-.657c-2.01,2.715-4.112,4.087-5.8,5.989-1.87,2.1-2.11,9.253-3.891,11.444-1.072,1.319-1.93-6.347-3.378-5.556-.886.484-1.127,6.35-1.68,7.244-.618,1-1.146-3.267-1.216-2.053s-1.092,2.6-2.084,2.013c-.1-1.623-2.489,3.736-1.742,2.35-1.416.358,1.1-6.445-.052-5.495s-2.675,3-2.2,4.52a20.322,20.322,0,0,1-.231-4.306.678.678,0,0,1-1.039-.639,7.832,7.832,0,0,1-3.349,1.112.688.688,0,0,0-.452-1.253,12.163,12.163,0,0,0,3.616-4.271c.916-1.679,1.163-1.117,1.526-2.594.174-.709-5.681.727-5.036.458,3.662-1.526,6.22-6.125,6.3-7.183.155-2.041,2.49-7.117,3.49-8.832,3.232-5.549,9.7-10.8,13.575-12.85a33.243,33.243,0,0,1,19.232-4.251c11.089.683,19.782,8.674,25.273,19.319-.528-1.357,3.978,8.214,8.165,11.144a.683.683,0,0,0-.448,1.239A14.662,14.662,0,0,1,553.2,106.9a.683.683,0,0,1-.913.843c1.438,4.79,1.462,9.937-1.324,16.405-.519-1.523.474-8.587.485-10.2.038,2.768-3.692,14.014-3.232,10.127.081-.685-1.007,1.833-3.879,5.532,1.947-5.282,5.215-12.229,2.611-19.372a.683.683,0,0,1-1.1-.275c-.255.233-.561.468-.851.7a.686.686,0,0,0-1.111-.5,16.2,16.2,0,0,0-2.277-7.53.691.691,0,0,0-1.272.434h0a.683.683,0,0,1-1.313.327q-.251-.616-.518-1.225a.689.689,0,0,0-1.317.3c.008.325.016.66.024,1a.687.687,0,0,1-1.346.211c-.814-2.771-1.718-5.674-2.375-6.508a4.161,4.161,0,0,0-.54,1.944c-1.574-.467-2.362,9.907-2.871,8.216-.009,2.069-3.824-12.7-3.2-8.7,1.084,7-8.24,15.335-7.553,13.962,1.266-2.532,3.966-14.275,3.733-13.672-1.215,3.143-3.285,7.631-5.106,8.637a31.334,31.334,0,0,1-3.928,1.461A.685.685,0,0,0,513.279,107.923Z" transform="translate(-11.806 -4.96)" stroke="#000" stroke-miterlimit="10" stroke-width="0.5" fill="url(#_10_dpi_30_7)"/>
            <g>
              <path d="M422.57,422.912c-3.463,6.848-31.9,47.546-33.844,58.69,35.006,16.652,76.048,21.124,90.023,20.8.381-.009,25.042-61.815,28.234-69.475.175-.42,4.117-6.214,4.427-5.882,14.807,15.84,19.43,58.768,23.562,66.257,37.049-3.9,60.32-13.2,65.323-23.4-4.587-8.9-22.587-47.9-30.587-65.9-2.746-6.178-12.8-34.516-13.14-41.268a471.311,471.311,0,0,1,5.981-102.491.717.717,0,0,0-.751-.836c-19.273,1.034-38.193-6.292-57.521-6.353-17.041-.053-34.751,3.453-38.32,9.742-4.108,7.238-1.137,30.389-4.619,42.824-7.231,25.825-3.1,21-8.264,43.387C451.3,356.707,438.765,390.889,422.57,422.912Z" transform="translate(-11.806 -4.96)" fill="#fff" stroke="#000" stroke-miterlimit="10" stroke-width="0.5"/>
              <path d="M511.409,427.044a14.589,14.589,0,0,1,3.616-2.324" transform="translate(-11.806 -4.96)" fill="none" stroke="#000" stroke-miterlimit="10" stroke-width="0.5"/>
            </g>
            <path d="M492.265,156.153c3.61,2.2,2.156.781,4.711,1.685a15.273,15.273,0,0,1,4.735,2.723,39.748,39.748,0,0,0,38.91,6.537c3.238,3.655,9.126,6.672,14.006,6.848,5.12.185,13.75,6.539,16.7,10.731s10.869,14.271,17.531,20.28c2.323,1.541,14.85,7.361,13.964,10.367-3.107,10.543-17.6,26.458-18.8,25.891-7.492-3.544-20.9-12.14-20.735-11.343,1.677,8.119-.156,9.443-.178,14.621-.012,2.842-1.179,26.264-.834,42.114.4,18.528,3.785,60.291.975,66.3-10.725,6.825-31.327,5.926-47.774,7.8-21.064,2.4-59.473-9.75-80.435-14.625-.42-.1-8.513-3.532-8.287-3.9,7.8-12.675,17.7-54.133,22.243-75.631,3.913-18.53,10.372-60.421,8.1-60.964-2.38-.569-3.653-7.881-8.039-12.246-4.274-4.253-20.341-4.537-26.061-9.21a.682.682,0,0,1-.145-.87c2.795-4.861,7.819-13.859,8.059-19.523.191-4.493,2.147-18.47,6.078-23.863,5.717.78,25.793,12.835,37.335,11.589,4.756-.514,3.541.319,8.3.817S488.664,153.963,492.265,156.153Z" transform="translate(-11.806 -4.96)" stroke="#000" stroke-miterlimit="10" stroke-width="0.5"/>
            <g>
              <path d="M391.117,52.842,381.6,34.153c-.433-.8-1.867-3.73.382-5.417L431.916,6.365c2.274-.795,3.206,1.89,3.458,2.645L441.685,28.2c.229.689.35,1.367-.081,1.554L393.1,53.142C392.09,53.9,391.662,53.907,391.117,52.842Z" transform="translate(-11.806 -4.96)" fill="#fff" stroke="#000" stroke-miterlimit="10" stroke-width="0.5"/>
              <path d="M392.069,55.085,381.6,34.153c-.433-.8-.9-1.814.171-2.586L433.487,8.159a1.292,1.292,0,0,1,1.886.851l7.277,21.561c.23.691.145,1.557-.527,1.763s-47.942,23.624-47.942,23.624C393.334,56.4,392.614,56.15,392.069,55.085Z" transform="translate(-11.806 -4.96)" fill="#fff" stroke="#000" stroke-miterlimit="10" stroke-width="0.5"/>
              <polygon points="386.666 47.12 376.111 25.759 418.086 6.988 425.839 27.982 386.666 47.12"/>
              <path d="M436.355,23.385l-.77-2.247c-.048-.141.092-.349.313-.461h0c.22-.112.439-.088.487.053l.764,2.246c.047.14-.092.346-.31.458h0C436.621,23.547,436.4,23.525,436.355,23.385Z" transform="translate(-11.806 -4.96)"/>
            </g>
            <path d="M414.075,47.413c.812-5.687,8.6-8.5,9.587-8.937a40.656,40.656,0,0,1,5.85-1.95c.626-.369-.26-3.015-.487-5.037a5.035,5.035,0,0,1,3.412-5.2c1.713-.4,1.861,3.022,1.9,3.517.478,5.65,1.19,7.81,1.057,8.7" transform="translate(-11.806 -4.96)" fill="#fff" stroke="#000" stroke-miterlimit="10" stroke-width="0.5"/>
            <path d="M636.108,150.815a50.31,50.31,0,0,0-1.323,6,17.168,17.168,0,0,1-.609,2.925" transform="translate(-11.806 -4.96)" fill="none" stroke="#000" stroke-miterlimit="10" stroke-width="0.5"/>
            <path d="M527.751,118.963c-1.885-.529-3.4,1.768-2.812,3.635.566,1.784,1.423,6.873,2.341,8.363" transform="translate(-11.806 -4.96)" fill="#b4b4b4"/>
            <path d="M520.632,131.018a1.884,1.884,0,0,1,2.016.117" transform="translate(-11.806 -4.96)" fill="none" stroke="#000" stroke-miterlimit="10" stroke-width="0.5"/>
          </g>
          <path d="M508.932,139.148c-.13-.574.453-.238.975.035,1.587.829,4.571-.114,6.947.366,3.456.7,6.063.087,9.735.9s6.887,3.331,7.366,2.513-6.02,5.382-11.129,5.365a17.617,17.617,0,0,1-13.162-5.484C508.516,141.564,509.163,140.169,508.932,139.148Z" transform="translate(-11.806 -4.96)" fill="#fff" stroke="#000" stroke-miterlimit="10" stroke-width="0.5"/>
          <path d="M654.574,165.84c-1.15,1.9-1.907,3.946-3.539,4.564a1.686,1.686,0,0,1-1.8-1.041c-.6-.425.661-3.566,1.2-4" transform="translate(-11.806 -4.96)" fill="#fff" stroke="#000" stroke-miterlimit="10" stroke-width="0.5"/>
          <path d="M652.107,158.681a8.281,8.281,0,0,1-1.6,6.176c-.355.452-1.426,2.012-1.855,2.437-.93.92-2.287,2.752-3.378,2.4a1.757,1.757,0,0,1-1.17-2.042,9.39,9.39,0,0,1,2.909-4.133c.081-1.219.772-5.525-.041-5.119" transform="translate(-11.806 -4.96)" fill="#fff" stroke="#000" stroke-miterlimit="10" stroke-width="0.5"/>
          <path d="M647.216,154.132c-.367,3.231.077,7.842-1.144,8.962-.992,1.34-2.9,3.715-3.8,4.1a2.52,2.52,0,0,1-1.744.058c-.927-.3-.985-1.65-.658-2.521s1.574-2.067,1.981-2.926" transform="translate(-11.806 -4.96)" fill="#fff" stroke="#000" stroke-miterlimit="10" stroke-width="0.5"/>
          <path d="M641.731,152.914c-.853.731.836,7.447.109,8.253a8.252,8.252,0,0,1-1.815,2.228c-1.341.731-2.081,1.948-3.778,1.95-1.034,0-2.245-.235-1.584-2.437.366-1.219,1.858-2.608,2.072-3.169.014-.965.254-2.746-.366-3.9" transform="translate(-11.806 -4.96)" fill="#fff" stroke="#000" stroke-miterlimit="10" stroke-width="0.5"/>
          <path d="M634.907,173.876a10.015,10.015,0,0,0,1.815-3.946,14.138,14.138,0,0,0-.027-6.17c-.246-1.282-1.418-2.918-1.544-4.225a10.968,10.968,0,0,1,.894-4.306c.908-2.421.65-4.469.2-6.947a7.13,7.13,0,0,0-.933-2.564,2.116,2.116,0,0,0-.455-.566c-.232-.181-.8-.773-1.09-.81a2.294,2.294,0,0,0-2.311.935,2.838,2.838,0,0,0-.274.834,32.8,32.8,0,0,1-1.315,6.03,144.993,144.993,0,0,0-4.144,16.006" transform="translate(-11.806 -4.96)" fill="#fff" stroke="#000" stroke-miterlimit="10" stroke-width="0.5"/>
          <path d="M407.8,16.356c-.709,1.417-.888,2.746-2.5,3.473s-2.244.513-2.8-.853a3.914,3.914,0,0,1,1.542-4.33" transform="translate(-11.806 -4.96)" fill="#fff" stroke="#000" stroke-miterlimit="10" stroke-width="0.5"/>
          <path d="M398.983,17.2a2.5,2.5,0,0,1,2.792.693c1.185,1.213-1.055,4.048-2.894,4.6s-2.644-.462-2.446-1.916A4.645,4.645,0,0,1,398.983,17.2Z" transform="translate(-11.806 -4.96)" fill="#fff" stroke="#000" stroke-miterlimit="10" stroke-width="0.5"/>
        </g>
      </g>
    </g>
  </g>
</svg>
